<svg viewBox="0 0 175 387" xmlns="http://www.w3.org/2000/svg">
  <g fill="#DA4648" fill-rule="evenodd">
    <path d="M86.7 304.7c-22.6 0-40-3.4-48.4-5.4a93 93 0 01-13.8-4.3l11.2 19.2 4.3 59.7c0 6.7 21.3 12.1 47.5 12.1 26.3 0 47.5-5.4 47.5-12.1l3.5-60.4 10.6-18.5a92 92 0 01-14 4.3c-8.4 2-25.8 5.4-48.4 5.4zm62.8-194.3a471.8 471.8 0 01-62 3.6c-23.3 0-45.3-1.3-61.9-3.6a116 116 0 01-19.3-4c-1-.4-3-1-4.7-2L11.8 199a80.4 80.4 0 015.8-14.6 86.2 86.2 0 0111.1-16.8c2.1-2.3 4.3-4.4 6.5-6.1 2.2-1.7 4.5-3 6.7-4a17 17 0 016.7-1.4c2.6 0 5 .6 7.4 2 2.4 1.4 4.6 3.7 6.7 6.8.5.7.8 1.4.9 2.1l.2 2c0 1.5-.4 2.7-1 3.6-.8.8-1.6 1.3-2.6 1.3s-1.8-.5-2.5-1.4c-.8-1-1.7-2.3-2.6-4.1a9.8 9.8 0 00-3-3.5c-1-.7-2.2-1-3.5-1-2 0-4 .8-6.3 2.4a36.5 36.5 0 00-6.6 6.5A95.6 95.6 0 0020.4 203a37.9 37.9 0 00-1.1 12.2c0 1 .3 1.9.7 2.7.3.8.8 1.4 1.4 2 .6.5 1.4.7 2.3.7 1 0 2.2-.3 3.5-1a51.5 51.5 0 0012.4-10.9A63.3 63.3 0 0045 201l4-11.7a5.5 5.5 0 011.8-2.6c.7-.6 1.5-.8 2.4-.8.3 0 .7 0 1.1.2.4.1.8.3 1 .6.4.3.6.6.8 1 .2.5.3 1 .3 1.7 0 1.5-.2 3-.4 4.4a35.6 35.6 0 01-2.6 8.1 99 99 0 00-3.2 9.1 284 284 0 00-4.4 14.5 771 771 0 00-3.3 11.2l-1.1 1.8c-.4.6-.9 1-1.4 1.4-.5.4-1 .6-1.6.6-.9 0-1.5-.3-2-.9-.3-.6-.5-1.7-.5-3.3v-.7-.7c0-.5.3-1.5.7-3a198.6 198.6 0 014.8-16 83.7 83.7 0 01-10.1 9.4 31.6 31.6 0 01-5.5 3.2 13 13 0 01-5.4 1.3c-2 0-3.6-.5-5-1.3l-.8-.5 5.7 59.9c1.5 3.7 29.5 12.8 66.4 12.8 37 0 65-9.1 66.4-12.9l8.2-71.2-2 1.9a86 86 0 01-6.6 5.6 30 30 0 01-6.1 3.7c-2 .8-4.1 1.3-6.4 1.3-2.1 0-3.8-.5-5-1.4a4.6 4.6 0 01-1.7-3.9v-.3-.5a9 9 0 011.3-3.4l2.8-4a111.2 111.2 0 016.7-8.3l2.6-3.5c.6-1 1-2 1-2.6 0-.4-.2-.7-.4-1-.3-.2-.8-.3-1.4-.3-1.2 0-2.3.3-3.5.9-1.2.6-2.4 1.3-3.5 2.3a32 32 0 00-6.5 7.3 53.3 53.3 0 00-6.5 11.7 146 146 0 01-2.2 5l-1 2.1a47.2 47.2 0 01-1.2 3 331.7 331.7 0 00-5.4 14.5l-1 2.4a10 10 0 01-1.3 2c-.5.6-1 1-1.7 1.4-.6.4-1.3.6-2 .6-1 0-2-.3-2.6-.8-.6-.4-1-1.4-1-2.7a18.2 18.2 0 011.7-6.1l.7-1.9a973.3 973.3 0 019.2-19.9l.8-2-.2.3a55.8 55.8 0 01-5.5 4.6 28.9 28.9 0 01-5.3 3.2c-1.8.8-3.6 1.2-5.2 1.2-1.2 0-2.1-.2-3-.5-.7-.4-1.3-.9-1.8-1.5a6 6 0 01-1-2.3l-.1-.9a41 41 0 01-6.6 4.1c-1.7.7-3.2 1.1-4.6 1.1-1.3 0-2.4-.4-3.2-1.3-.9-1-1.3-2.4-1.3-4.6 0-1.5.2-3.3.7-5.3a27.2 27.2 0 01-6.5 7.5c-1.4 1.1-3 2-4.7 2.7-1.7.7-3.6 1-5.7 1-.9 0-1.8-.1-2.6-.3a5.6 5.6 0 01-3.8-3.5 9.3 9.3 0 01-.5-5 112 112 0 019.2-25 6.7 6.7 0 012-2.8 4.2 4.2 0 015 0l.9.9c.2.3.3.8.3 1.3l-.1 1-1 2.1a263.6 263.6 0 01-3.5 7 54.3 54.3 0 00-3.4 8.7c-.5 1.5-.7 3-.7 4.4 0 .6 0 1.1.4 1.6.3.5.7.8 1.4.8 1.8 0 3.5-.6 5.2-1.8 1.6-1.2 3.1-2.7 4.6-4.5a72.4 72.4 0 009.4-18.5c.4-1.1 1-2 1.6-2.8.6-.7 1.3-1 2.3-1 1 0 1.8.3 2.4 1 .6.8.8 1.8.8 2.8 0 .6-.1 1.4-.5 2.5a70.2 70.2 0 01-3.3 7.9 75.5 75.5 0 00-3.3 9.3c-.4 1.5-.6 2.9-.6 4.2 0 1.2.6 1.8 1.9 1.8.8 0 2-.3 3.2-1a22.1 22.1 0 005.1-3.3l1.4-4.5a575 575 0 015.8-14.7l12.7-32.1a5.4 5.4 0 012-2.8c.9-.5 1.8-.8 2.6-.8.9 0 1.7.3 2.4.9.7.5 1 1.4 1 2.7 0 .6 0 1.2-.3 1.9l-.9 2.1a396 396 0 00-9 21.4 5011.6 5011.6 0 01-9 22.5 28 28 0 00-1 2.7c-.2 1-.4 1.9-.4 2.7 0 .5.1.9.3 1.2.2.3.5.4 1 .4s1.3-.2 2.2-.6l2.8-1.7a45.7 45.7 0 006.5-5 89.6 89.6 0 006.5-6 89.4 89.4 0 002.2-6.6l1.3-3.2c.5-1.1 1-2 1.7-2.8.6-.8 1.3-1.2 2-1.2 1.2 0 2 .3 2.5.8s.8 1.3.8 2.3l-.1 1a33.1 33.1 0 01-.8 3.6 56.6 56.6 0 017.1-6.4c1.3-.9 2.6-1.6 4-2.2a10.4 10.4 0 016.7-.4 8 8 0 012.5 1.2c.7.5 1.3 1.1 1.7 1.9.5.8.7 1.7.7 2.7 0 1.4-.3 2.8-1 4.4a58.3 58.3 0 01-9.3 13.2l-2.7 3-1.1 1.8c0 .4.1.7.4 1 .2.2.6.4 1.2.4.5 0 1.2-.3 2.1-.8l4-2.8a194.2 194.2 0 0012.4-10.6l11.1-103c-1.8 1-3.6 1.6-4.7 2a116 116 0 01-19.3 4zM87.5 86c-48 0-87 5.4-87 12s39 12 87 12 87-5.4 87-12-39-12-87-12zm34.7 15.5c0 1.6-4.6 2.8-10.3 2.8-5.7 0-10.4-1.2-10.4-2.8 0-1.6 4.7-2.8 10.4-2.8s10.3 1.2 10.3 2.8z"/>
    <path d="M103.6 100.3v.2c0 1 3.7 1.8 8.3 1.8 4.6 0 8.3-.8 8.3-1.8l10.9-44 43.2-45.7c1-1.1-.9-4.3-4-7C167.3 1 164 0 163 1l-46.2 48.6-13 50.6z"/>
  </g>
</svg>
