<svg viewBox="0 0 553.27 552.31" xmlns="http://www.w3.org/2000/svg"><g fill="#dd3735"><path d="m103.33 230.65c.7.6 2.1.9.7 2.1a27.58 27.58 0 0 0 -2.8 3.9c-.7 1.3-1.3 1.7-2.4.7 1.5-2.4 3-4.6 4.5-6.7zm375.2 195.7c0 .6.2.9.2 1.5a11.4 11.4 0 0 0 .6-1.5zm-70.53-105.5a18.11 18.11 0 0 0 -2.6-.9 5.55 5.55 0 0 1 .7 1.9 8.52 8.52 0 0 0 1.7-.4.73.73 0 0 1 .2-.6zm-1.07-40.5a5 5 0 0 0 -.2 1.7 4.68 4.68 0 0 1 .2-1.7zm.07 3.7c-.2 0-.2 0-.4-.2v.2c.33.2.33.2.4 0zm-.27 1.5v-1.3c-.6.2-1.1.2-1.9.4.9.35 1.9.5 1.9.9z"/><path d="m553 261.65c-.2-7.1-.6-14.4-.9-21.5-.4-7.3-.6-14.6-1.3-21.8-1.3-9.9-2.6-20-4.9-29.7-1.7-8-4.5-15.7-7.3-23.3a262.59 262.59 0 0 0 -11.6-26.7c-7.3-13.8-16.8-26.1-25.6-39-5.8-8.2-13.3-14.9-18.9-23.3-3.2-4.9-7.8-9-12.5-12.7-7.5-6-15.3-11.4-23.1-16.6-6-4.1-11.9-8-18.3-11.6-5-2.8-10.5-5-15.7-7.5-6-2.8-11.8-6.2-18.5-7.5a45.8 45.8 0 0 1 -4.9-1.5c-4.3-1.5-8.4-3.2-12.7-4.5-6.5-2.1-12.9-4.5-19.6-6.2a167.7 167.7 0 0 0 -20-3.7c-7.5-1.1-15.1-1.5-22.6-2.2-4.9-.6-9.7-1.1-14.4-1.3-7.1-.4-14.4-.4-21.5-.6a97.47 97.47 0 0 0 -10.8-.4 147.79 147.79 0 0 0 -16.2 1.5c-5.2.6-10.5 1.5-15.5 2.2-6.2.7-12.3 1.1-18.5 1.9-5.8.7-11.8 1.9-17.5 2.8-2.1.4-4.1 1.1-6.2 1.5-4.5.9-9.1 1.3-13.6 2.8-8 2.4-16.1 5.2-23.9 8.2a229.06 229.06 0 0 0 -21.3 9.9c-7.1 3.9-13.8 8.6-20.5 13.1-6.3 4.3-12.7 8.8-18.9 13.6a223.29 223.29 0 0 0 -17 15.1c-3 3-5.4 6.5-8.2 9.9-4.7 5.4-9.3 10.6-13.8 16.2-3.7 4.7-7.1 9.5-10.6 14.4a236.3 236.3 0 0 0 -16.8 26.9c-2.1 3.7-3.9 7.5-5.8 11.2-2.8 5.6-5.8 11-8.4 16.8a66.4 66.4 0 0 0 -4.5 12.5c-2.6 9.1-5.2 18.5-7.7 27.6-2.2 8.2-2.8 16.8-3 25.2-.2 7.5.6 14.7 1.3 22.2.2 1.9-.9 4.1 1.3 5.6.2 0 0 .7-.2.9a1.79 1.79 0 0 0 1.1 2.6.7.7 0 0 1 .2.4h-.9c-.6 1.7 1.3 3 .6 4.9-.2.4.6 1.1.9 1.7a6.05 6.05 0 0 0 0 1.9c.2 1.7.9 3.4.9 5.2 0 1.3 1.1 2.8 1.5 4.1a2.12 2.12 0 0 1 -.4 1.9c-1.1 1.3-.9 2.4.7 3.2a2 2 0 0 1 .9 1.3 22.14 22.14 0 0 1 -.6 3.4c.4.4.6.7.4 1.1 0 .6-.6 1.1-.4 1.5a23 23 0 0 1 2.2 9.7 9 9 0 0 0 .7 2.4 2.56 2.56 0 0 1 1.1.2c-.4 1.1-.7 2.2-1.1 3.4a14.45 14.45 0 0 1 2.6-1.1 53.61 53.61 0 0 0 1.9 6.7 3.8 3.8 0 0 0 1.1 1.1c-.2.4-.2 1.1-.6 1.3.7 3.4 1.1 6.5 2.4 9.7.2 0 .4-.2.6-.2-.6-3.4-.9-6.9-1.5-10.3v-1.1a2 2 0 0 1 .6-.2 12.3 12.3 0 0 1 .6 2.2c1.5 0 3.7.9 5.2.9a16.19 16.19 0 0 1 .6-1.7c-1.1-1.1-2.1-2.8-3.2-3.9a5.25 5.25 0 0 1 0 2.6c-.7-.4-1.7-.7-2.6-1.1a30.52 30.52 0 0 1 2.6-3c0-1.7-.9-3.2-3.5-3 1.1-.4 2.2-.9 3.5-1.3a11.64 11.64 0 0 0 .6 1.5c1.5-2.6-.7-4.7-.7-7.3.2-3.2-1.7-6.3-2.2-9.7-.9-5.2-.7-13.1-1.3-18.3 0-.4-.6-.7-.9-1.1-.2.2-1.1 2.6-1.3 2.8.6 4.5 1.1 9 1.5 13.4-.2 0-.4 0-.4.2-.7-3.9-1.5-8-2.4-12.5a21 21 0 0 0 -.4 2.6 18.32 18.32 0 0 0 -1.7-.7c.7 1.7 1.5 2.8 2.1 4.1a5.74 5.74 0 0 0 -2.8-.4v5.2c-1.9-1.9-2.4-3.4-3.4-4.7-.4-1.5-.6-3-.9-4.5l.6-.2a8.24 8.24 0 0 1 -.6-1.9q-.3-1.95-.6-4.5c.2-.2.9-.4 1.3-.7-.4-.6-.7-1.1-1.5-2.2a27.53 27.53 0 0 0 3.4.4c0-.4.2-.6 0-.7-1.9-1.7-.6-3.2.2-4.7.4-.7 1.7-.9 2.1-1.7 1.5-2.8 3.9-5 3.9-8.6 0-1.7.6-3.5.7-5.2.4-3.2.7-6.3.9-9.5.4-4.1 0-8.2.9-12.1 1.5-6.5 3.4-13.1 5.4-19.6 1.5-4.7 3.2-9.1 5-13.8 2.8-7.3 5.4-14.6 9-21.5 5-10.1 10.8-19.8 16.4-29.7 3.5-6.2 7.3-11.9 11.2-17.9a201.27 201.27 0 0 1 11.8-17.2 152.22 152.22 0 0 1 19.8-21.1c7.5-6.7 14.6-13.6 22.6-19.8a240.18 240.18 0 0 1 33.2-21.3 251.7 251.7 0 0 1 29.33-12.65c6.3-2.4 13.3-3.5 19.8-5.6a80 80 0 0 1 22.8-3.7c5-.2 9.9-.7 14.9-1.3 4.5-.4 9-.7 13.8-1.3a5.23 5.23 0 0 0 -.9 1.5c-2.1 3-4.3 6-6.3 9-1.7 2.4-3.5 5-5.2 7.5-3 3.9-6.2 7.8-9 11.9-4.3 6.2-8.2 12.5-12.7 18.7-4.5 6-9.3 11.6-14 17.4-6.2 8-11.9 16.2-18.1 24.3-5.6 7.7-11.6 14.9-17 22.6-4.9 6.7-9.1 13.8-13.8 20.7-6.9 10.3-13.8 20.3-20.7 30.6-5.4 7.8-10.8 15.5-16.4 23.3-.4.6-.9.7-1.5 1.1-.4.4-1.1.7-1.1 1.1a33.45 33.45 0 0 1 -.9 3.7c-1.5 2.8-3 5.6-4.7 8.2a42.58 42.58 0 0 1 -3.4 4.3c-.4-.2-.6-.4-.9-.4.7-1.9 3.9-3 2.4-5.8-.9 1.5-1.9 2.8-2.8 4.3-.7 1.5-1.5 3-2.2 4.5.7.6 2.1.9.7 2.1-.6.9-1.1 2.1-1.7 3 .2 0 .2.2.4.2.6-.7 1.1-1.3 1.7-2.1.2 0 .4.2.6.2a31.56 31.56 0 0 1 -2.6 5.2c-.7 1.5-2.6 2.6-3.9 3.7.2.2 1.5.7 1.7.9.6-.7.7-.4 1.3-1.1.4.6.9-.4 1.1.2a6.44 6.44 0 0 0 1.27-1.9 6.57 6.57 0 0 1 3.7-4.1 9 9 0 0 0 1.9-1.5c5.6-5.8 11.4-11.4 16.4-17.5 7.8-9.5 14.9-19.4 22.4-29.1 3.2-4.1 6.9-8.2 10.3-12.1.4.2.7.2.9.4-.4 3.9-.7 8-.9 11.9-.6 6.9-.9 13.8-1.5 20.9-.2 2.8 0 5.6-.2 8.4 0 .7-.6 1.3-.6 2.1 0 1.9.6 3.9.6 5.8-.6 6.9-1.3 13.6-1.9 20.5-.2 1.5.6 3 .9 4.3a4 4 0 0 0 -.9-.7c0 10.8 2.1 21.5.4 32.1.7-.2 1.1-.4 1.1-.7a26.29 26.29 0 0 0 .6-3.9 20.42 20.42 0 0 0 0-3.5v-1.9c.2-3.4.9-6.9.6-10.3a32.49 32.49 0 0 1 .4-10.8c.4-1.5-.2-3.4.7-5.2v2.8c-.2 10.6.2 21.3-1.3 31.9-.2.9.6 2.6-1.5 2.4-.2 0-.4.9-.7 1.5-.9 1.9 1.1 4.3-.7 6.2-.4.4.4 2.1.6 3.2 0 .4.2.7 0 .9-.7 1.3-.7 1.3.4 1.5.2 4.1.6 7.8.7 11.8h.6c2.4-7.1.9-14.4 2.2-21.7a68.75 68.75 0 0 1 .2 9.1c0 4.9-.2 9.5-.4 14.4a13.51 13.51 0 0 1 -.4 2.8c-.6 2.6-.7 5.2-1.7 7.7-.7 1.9-.4 4.7-.4 6.9v7.1c0 .2.6.7.6 1.5.2 1.7-.7 3.4-.2 5.2.2.4-.2.9-.4 1.3a2.53 2.53 0 0 0 -.2 1.7c.2.9.4 1.9.6 2.8 0 .2.2.4.4.7a5.42 5.42 0 0 0 .2-1.5c3.2.4 1.5 3.2 3 4.7a9.15 9.15 0 0 0 -1.3.7 7.27 7.27 0 0 1 .6 2.1 40.46 40.46 0 0 1 -.4 4.9c0 4.3-.2 8.6-.2 12.7 0 .6.2 1.1.2 1.7 0 .4-.2.7-.2 1.3v3.9h.7a9.62 9.62 0 0 1 -1.3 1.7c-.2 0-.7 0-.7-.2v-23.5h-2.8c-.4 11.2.6 21.3-1.5 31.7a44.57 44.57 0 0 1 -5.4.6c-5.8 0-11.6 0-17.4.2-6.9 0-13.6.2-20.5.2-3.4 0-6.9.4-10.3.4-4.5 0-9.1-.6-13.6-.6-6.9 0-13.6.6-20.5.7-5 .2-10.1.2-15.1.4-3.4.2-6.7.4-10.1.7a28.32 28.32 0 0 0 -4.7 1.3 14.8 14.8 0 0 0 -3 0c-1.9.4-3.5 1.5-5.4 1.9-2.8.6-3.5 1.3-3.2 4.1v1.9a5.08 5.08 0 0 0 -1.3-.9.7.7 0 0 0 -.4.2c.2.6.6.9.7 1.5.7-.4 1.7-1.3 2.4-1.3h2.6c-.4 0-.6 1.1-1.1 2.1 1.5-.6 2.4-.9 3.4-1.3a5 5 0 0 1 .2 1.5c2.6-.2 5-.9 7.3-.4 7.3 1.9 14.7 2.6 22.2 3.4 4.9.4 9.5.6 14.4.7 6.9.4 13.8.7 20.7.7 5.8 0 11.4-.6 17.2-.6 8 0 16.1.4 24.1.6 1.7 0 3.5-.2 5.4-.2h13.8c12.1-.4 24.3-.6 36.4-.9 6.9-.2 14-.6 20.9-.7l21.3-.6c8.2-.2 16.4-.2 24.5-.4 6.2 0 12.1-.2 18.3-.4 6.9-.2 14-.7 20.9-1.1 3.7-.2 7.5-.6 11.2-.9 4.5-.4 9.1-.9 13.6-1.1 6.7-.4 13.6-.6 20.3-.9 8.4-.6 16.8-1.3 25.4-1.5 7.8-.4 15.9-.2 23.7-.4 6.9-.2 13.8-.6 20.9-.7l11.8-.6c3.9-.2 7.8-.2 11.8-.6 6.7-.4 13.4-1.1 20.2-1.3 4.3-.2 8.6 0 12.9-.2 6.9-.2 14-.6 20.9-.6 2.6 0 5.4.4 8.8.6-1.5 1.3-2.4 2.1-3.5 3a20.37 20.37 0 0 1 2.2.9c0 .2-.2.4-.2.7-.9 0-1.9.2-2.8.2a11.29 11.29 0 0 0 -1.1 3.2h3.4c-1.3 0-2.4 1.7-3.7 2.8.2.2.4.2.6.4-2.1-.7-3.4-.4-4.1 1.7a3.89 3.89 0 0 0 1.5.2c-.2.6-.4 1.1-.6 1.9a2.5 2.5 0 0 0 -.4 1.3l-.6-.6a2.15 2.15 0 0 0 -.2-1.1c-1.1 1.1-2.8 1.9-1.9 4.3-.7.4-1.7.7-2.6 1.3.2.4.6.7.7 1.3-1.7.2-3.4.6-3 2.6.7.2 1.5.6 2.1.7-.9.4-1.9.9-2.8 1.3-.2.4-.4 1.3-.7 1.5-2.6.6-1.1 1.5-.4 2.4a7 7 0 0 1 -1.7.9 4 4 0 0 1 1.3.7 4.21 4.21 0 0 1 -1.3.7 6.4 6.4 0 0 0 1.1.6c-.7.6-1.7 1.3-2.8 2.2a1.34 1.34 0 0 0 .2.9 15 15 0 0 0 -2.2 2.6c-.7 1.1-1.1 2.6-2.1 3.7-3.9 4.3-6.7 9.3-11.8 12.7a38.08 38.08 0 0 0 -5.2 4.7c-3.4 3.2-6.3 6.7-9.9 9.7-4.7 3.9-9.5 7.5-14.6 11-6.2 4.3-12.3 8.6-18.5 12.7-3.4 2.2-7.1 3.9-10.6 6s-6.9 3.9-10.5 6c-2.2 1.5-4.3 3.5-6.7 4.7-6.2 2.6-12.7 4.9-19 7.3-.6.2-.9.4-1.5.6-4.7 2.1-9.1 4.3-13.8 6a100 100 0 0 1 -13.3 3.5c-1.5.4-3.2 0-4.9.2-3.2.6-6.3 1.3-9.5 1.7-8.2 1.1-16.4 1.9-24.6 3-4.9.6-9.5 1.5-14.4 2.1-3.4.2-6.9-.2-10.3-.2-2.4 0-5 .6-7.5.2-3.9-.6-7.8-1.5-11.8-2.2-.9-.2-2.2-.6-3-.2-1.5.7-2.8-.4-4.3 0-.9.2-1.9-.6-2.8-.6-.7-.2-1.7.2-2.6 0-2.1-.6-3.9-1.3-6.2-1.1s-4.5-.9-6.9-1.5c-3.4-.7-6.5-1.5-9.9-2.2a15.26 15.26 0 0 1 -3.7-1.7 3.37 3.37 0 0 1 -1.7.6c-3.2-.6-6.3-.7-9.3-1.9-2.6-.9-5-2.2-7.8-1.9-.7.2-1.3-.2-2.1-.2-.6-.7-1.1-2.2-1.7-2.2-3.7.2-6-3-9.1-3.9-1.7-.6-3-2.4-4.7-3-4.1-1.7-7.5-5.2-12.1-5.8a25.34 25.34 0 0 1 -4.7-1.5c.6.7.9 1.3 1.5 1.9l-.4.4c-5-3-10.1-6-15.1-8.8a8 8 0 0 1 -1.9-1.3c-1.7-1.1-3.4-2.2-5-3.4-.6-.4-1.7-.9-1.7-.7-1.1 1.3-2.2.2-3-.2-5-3.5-10.8-5.8-15.7-9.7-2.1-1.7-4.5-2.8-6-4.9a29.82 29.82 0 0 0 -9.3-7.3c-2.8-1.5-5.4-3.2-8-4.9-1.3-.9-2.6-2.1-2.6-4.1 0-1.3-.6-2.6-2.2-1.9-.7-1.1-1.5-2.4-2.4-2.8-2.2-.9-3.7-2.6-5.4-4.1s-3-3.5-5-4.3c-3.7-1.5-6-4.7-8.2-7.3-5.2-6.2-9.9-12.9-14.7-19.4-.4-.6-1.1-.9-1.7-1.5l-.2.2c.9 1.9 1.9 3.5 2.8 5.4-.2.2-.6.4-.7.6-1.1-1.3-2.4-2.6-3.5-3.9-.2.2-.4.4-.6.4 4.5 7.1 9 14.2 13.4 21.3 1.1 1.7 2.1 3.4 3.2 5a4.35 4.35 0 0 1 -.7.6 7.78 7.78 0 0 1 -4.9-3.5c-1.7-3-3.5-4.9-7.3-4.5a30.1 30.1 0 0 1 -.9-4.1 14.35 14.35 0 0 1 -2.6-.2c2.6 4.1 4.9 7.7 7.3 11.8a16 16 0 0 0 -1.9-1.1c3.4 3.5 5.8 8 10.1 10.3.9 4.3 5.8 6.3 6.9 10.5l-2.6-.6c-1.5-1.9-3.2-3.7-4.9-5.8a9.88 9.88 0 0 0 1.7 3.4 66.05 66.05 0 0 0 6.9 8c.9.9 2.2 1.3 2.2 3a3.5 3.5 0 0 1 1.5-.9 4.72 4.72 0 0 0 -.7 1.7c.7 0 1.3.2 1.9.2.4 1.1-.2 2.8 2.1 2.4.2 0 .4.2.6.4.9 2.4 2.4 2.4 4.5 1.5a1.39 1.39 0 0 1 1.5.4c.9 2.1 2.2 2.2 3.9.7 0 .9.2 1.9.2 2.6h.7a18.32 18.32 0 0 1 -.2-1.9c.9.7 1.5 1.1 1.9 1.5 1.9 2.6 3.5 5 6.2 7.1 3.5 3 6.7 6.2 10.1 9a140.39 140.39 0 0 0 21.1 14c9 5 17.5 10.5 26.7 15.3a144 144 0 0 0 34.9 12.5c4.5.9 8.8 1.9 13.3 3 3.9 1.1 7.8 2.8 11.8 3.7 6 1.3 12.1 2.4 18.1 3.5 1.3.2 2.6.4 4.1.6v.4c1.7 0 3.7-.7 4.1-.2.9 1.5 1.7.7 2.8.6a15 15 0 0 1 4.3-.4c5.2.2 10.3 1.3 15.5.9 1.1 0 2.8-.9 3.7.9a7 7 0 0 0 .9-.6c.7-.2 1.7-.2 2.4-.4v.4a7.54 7.54 0 0 1 -1.5.4 19.13 19.13 0 0 1 2.1.6 3.47 3.47 0 0 1 -.9.6 15.25 15.25 0 0 0 -1.7.9c6.7 1.3 13.1 1.5 18.7 0v-1.4h.7a2.46 2.46 0 0 0 .4 1.1 60.35 60.35 0 0 0 25-3.2c.7.9 1.3 2.2 2.4.4.4-.6 1.3-.7 2.1-.9 1.7-.4 3.7-1.1 5.2-.6 1.7.6 2.2-.9 3.5-.9a32.07 32.07 0 0 0 6.3-.6 34.24 34.24 0 0 0 3.5-1.1.73.73 0 0 0 -.2-.6 28.67 28.67 0 0 0 -3.9-.4q3.3-1.65 6.3-3c0 .2.2.2.2.4-.6.2-.9.9-1.7.9h2.6c-.6 0-1.3 1.7-2.2 2.8 6.7-1.7 12.9-3.2 18.9-4.7v-.4c-.7.2-1.3.2-1.9.4-.2-3.9 4.1-2.6 5.6-4.9-1.9.6-3.7 1.1-5.6 1.5v-.2c6.3-2.8 12.9-5.6 19.2-8.4 0 .2.2.2.2.4-1.1.7-2.2 1.3-3.9 2.2a19.36 19.36 0 0 1 2.4.4c0 .6 0 .9-.2 1.1 3.2-.2 2.4-3 3.4-4.7.6.2 1.3.6 1.9.4a45.82 45.82 0 0 0 4.9-1.5c1.9-.6 3.7-1.1 5.6-1.9 3-1.3 5.8-3 8.8-4.5a8.09 8.09 0 0 1 2.2 0c.6 0 .9-.4 1.3-.7.7-.6 1.5-1.7 2.1-1.5 2.6.4 4.5-.6 5.2-3 .2 0 .2-.2.4-.2.9-.7 1.9-1.5 2.8-2.1 4.1-2.2 8-4.5 12.1-6.7.2-.2.6 0 .9 0a4.42 4.42 0 0 0 1.7-.2 75.5 75.5 0 0 0 6.9-3.7c-.6-.2 0-.4-1.9-.6v-.4c1.9-.4 2.4-.6 3.5-.9l-.4-.4c4.9-4.9 11-8.4 15.7-12.5a9.25 9.25 0 0 0 1.9.4 4.42 4.42 0 0 0 .2-1.5 16.13 16.13 0 0 1 2.4-2.8c4.1-3.7 8.6-6.9 12.3-10.8 5.4-5.4 10.6-11 15.5-16.8a150.74 150.74 0 0 0 12.7-16.2c5.2-8 9.7-16.2 14.4-24.6 3.4-6 6.3-11.9 9.7-17.9.4-.6 1.1-1.3 1.7-1.3 5-.6 10.1-.9 14.9-1.5a13.2 13.2 0 0 0 3.5-1.5c-.6-.9-.9-2.1-1.5-3-.7-1.1-1.9-2.1-2.6-3.2a24.57 24.57 0 0 1 -1.9-3.2c-.6-.9-1.1-1.7-1.7-2.6-1.1-2.1-2.2-4.1-3.2-6.3a4 4 0 0 1 -.4-2.1c3.4-7.3 4.7-15.1 7.8-22.4 3.2-7.5 4.1-15.9 5.6-23.9 1.3-7.7 2.1-15.3 3-23 .6-5.4 1.3-10.6 1.5-16.1 1.1-8.4.7-16.5.5-24.5zm-469.27 208.35c-1.3-1.5-2.4-3.2-3.7-4.7l.6-.6c2.1 2.2 4.1 4.5 6.2 6.9-1.2-.45-2.5-.85-3.1-1.6zm3 1.7c.6-.2 1.1-.2 1.7-.4.6.9.9 2.1 1.5 3.2-2.6-.25-3.93-1.35-3.2-2.85zm194.2 77.1v-.6c3.5-.4 6.9-.7 10.5-1.1v.6c-3.6.45-7 .85-10.5 1.05zm47-4.8c-2.6.6-5.4.9-8 1.3-.9.2-2.1 1.1-2.4-.6-.4.2-.7.2-1.1.4.9 2.8 3.2.6 5 1.7-4.1.6-8 .9-11.9 1.5v-.4c1.1-.2 2.4-.4 3.5-.6v-.6a52.7 52.7 0 0 0 -5.6-.4c-.6 0-1.3.7-1.9.9a8.59 8.59 0 0 1 -2.4.4c-3.2.2-6.3.2-9.3.4a6.37 6.37 0 0 1 -.7-.2v-.6c12.5-1.7 24.8-3.4 37.3-5 .2.4.2.7.4 1.1a17.65 17.65 0 0 0 -2.9.7zm2.8-1.9c4.3-.6 8.2-.9 12.3-1.5-8.6 2.4-11.4 2.75-12.3 1.45zm-162.6-376.9c6-8.2 12.1-16.4 18.1-24.8 1.9-2.4 3.4-5 5.2-7.5a23.28 23.28 0 0 1 2.2-1.9l-.2-.4a27.94 27.94 0 0 0 1.9-2.4 36.42 36.42 0 0 0 2.2-4.9 2.1 2.1 0 0 1 .7-.7c2.6 1.3 2.6-1.5 3.5-2.4 1.7-1.9 3.4-3.9 4.9-5.8a51.51 51.51 0 0 0 3.2-4.5c.2-.6-.4-1.5-.6-2.2h-.6c.6-.4 1.1-.9 1.7-1.3.2 0 .2 0 .4-.2 1.1-1.7 2.2-3.4 3.4-4.9a75.34 75.34 0 0 1 7.3-8.6c-.4.9-.7 1.9-1.1 2.6.2 0 .2.2.4.2 2.2-3 4.7-5.8 6.9-8.8-.2-.2-.4-.4-.6-.4-.9.9-1.7 1.9-2.6 2.8-.2-.2-.4-.4-.6-.4 1.9-2.4 3.7-4.9 5.6-7.7.4.6.7 1.3 1.5 2.8.7-1.9 1.5-3.2 2.1-4.5-.6.6-1.3 1.1-1.9 1.7l-.6-.6c1.1-1.7 2.2-3.4 3.4-5 3.5-5 7.1-10.3 10.6-15.3 1.3-1.9 3-3.4 4.1-5.2 3.5-7.1 9.1-12.7 13.4-19.2a22.45 22.45 0 0 1 3.4-3.5c.9-1.1 1.7-.7 2.4.2 5 6.3 10.1 12.9 15.1 19.2 3.7 4.7 7.5 9.1 11 14 4.3 6 8.4 11.9 12.7 17.9 4.9 6.9 9.7 13.8 14.4 20.9 7.1 10.5 13.8 20.9 20.9 31.4 5.2 7.7 10.5 15.1 15.5 22.8h-9.5c-8.8-.2-17.7-.9-26.5-.6-11.9.6-24.1 1.9-36 2.8-15.1 1.3-30.4 1.5-45.5 1.5-5.4 0-10.8.7-16.2 1.1-6.5.4-12.9.7-19.4.9-7.7.4-15.1.6-22.8.7-4.2.4-8.7.2-13.4.2zm214.1 85.9v1.7c-.2 0-.4.2-.7.2-.7-2.6-1.5-5.4-2.4-8-1.9-5.4-3.9-10.8-7.3-15.7-3.7-5.2-7.1-10.6-10.8-16.1a22.45 22.45 0 0 0 -3.4-3.5c-3.9-4.3-7.8-8.8-12.9-11.9a146.07 146.07 0 0 0 -23.3-11.9 50.65 50.65 0 0 1 -6.5-3.4h4.5l31.9-.6c6.9-.2 13.6-.2 20.5-.6a3.59 3.59 0 0 1 3.5 2.1c1.7 2.8 3.4 5.6 5.2 8.4a3.39 3.39 0 0 1 .6 1.5c0 4.1 0 8.4.2 12.5.2 4.3.6 8.4.7 12.7s-.4 8.8-.2 13.3c.2 6.2.4 12.7.4 19.3zm-200.8-62.6c8.8-.4 17.2-.9 25.8-1.3 6.7-.4 13.6-.6 20.3-.9a37.47 37.47 0 0 1 8.2 0 60 60 0 0 0 -8.6 4.9c-3.4 2.2-6.5 5.2-9.9 7.7a52.78 52.78 0 0 0 -9.1 8.6c-3.5 4.3-7.5 8-11.2 12.1-2.6 3-5.6 5.8-7.8 9-3.2 4.1-6 8.6-9 13.3.9-17.9 2-35.4 1.3-53.4zm121.9 179.6c-6 1.5-12.1 3.2-18.3 3.9a121.86 121.86 0 0 1 -16.1.6c-4.9 0-9.5-.2-14.4-.6-5.4-.6-10.8-1.1-16.1-3.5-4.5-2.1-9.1-3.9-13.6-6.2s-9-4.9-12.3-9c-2.4-3-5.8-5.4-8.8-8a9.21 9.21 0 0 0 3.9 5.4c-.9 1.1-2.2.6-4.1-2.4a4.82 4.82 0 0 1 -1.5.7c.6-1.3 1.1-2.6 1.7-3.7-.7-1.5-1.7-3.2-2.4-4.7-1.5-2.4-3-5-4.3-7.5a12.2 12.2 0 0 1 -.7-1.7 27.85 27.85 0 0 1 -2.6-3.4 70.3 70.3 0 0 0 -4.7-6.9c0 .6.2 1.1.2 1.9a.7.7 0 0 0 -.4.2c-1.3-3.2-2.6-6.3-3.9-9.5-.2 0-.2 0-.4.2 1.1 4.1 2.2 8.2 3.4 12.3-.2 0-.4.2-.6.2a9.74 9.74 0 0 1 -1.5-2.4 1.42 1.42 0 0 0 -2.4-.9 2.39 2.39 0 0 0 -.7 2.2c1.3 3.2 2.8 6.3 4.3 9.5a21.49 21.49 0 0 0 1.3 3.2c.2.4.7.7.7 1.3a28.94 28.94 0 0 0 2.2 4.3l5.2 6.7c1.7 2.2 3.2 4.7 4.7 6.9.2.4.7.4.9.6.9 2.8 4.1 4.9 6.3 3.7.6 4.3 5.2 5.8 7.1 9.9-2.2-.9-3.9-1.7-5.4-2.4-.2.2-.2.4-.4.7a67.11 67.11 0 0 1 6.5 3.5 50 50 0 0 1 5.4 3.5 16.28 16.28 0 0 0 8 3.9c-.2-.6-.4-.7-.4-.7 5.2 2.4 10.6 5 14.7 7.1-19.4.4-40.1.7-61.6 1.1 0-3.5-.2-6.9-.2-10.5a31 31 0 0 0 .2-4.3c-.6-8.6-.6-17.2-1.7-25.6a183.34 183.34 0 0 1 -.9-26.7c.2-4.9-.2-9.9-.4-14.7 0-6.5 0-12.9.2-19.4a8.39 8.39 0 0 1 .7-2.6h.6c.2.4 0 .9.4 1.1.6.6 1.5 1.5 1.9 1.3 1.1-.7 2.8-1.5 3.2-2.6a18.74 18.74 0 0 0 1.3-6.9 6.22 6.22 0 0 1 1.5-3.9 8.38 8.38 0 0 0 .9-1.9c-.7-.6-1.5-.9-2.4-1.7.7-2.1.6-4.5 3.4-5.6.4-.2.4-1.1.6-1.7.2-1.5.4-3.2.6-4.7a13.5 13.5 0 0 0 .9 1.1 2.48 2.48 0 0 1 .4-.6c0-.7-.2-2.2 0-2.2 2.2-.4 1.3-2.8 2.4-3.9.2-.2-.2-.7-.2-1.1s0-.9.2-.9c2.6-.6 2.2-3.4 3.9-4.7.6-.4.7-.9 1.5-1.9 1.5 2.6-1.1 3.9-1.3 5.8 3.2-1.9 4.1-6.3 2.2-7.7a13.89 13.89 0 0 0 2.1-2.1c2.1-2.2 4.3-4.3 6.2-6.5 1.3-1.7 2.1-3.7 3.4-5.4a9.1 9.1 0 0 1 3.4-2.2c3.4-1.9 6.5-3.9 8.6-7.1a9.73 9.73 0 0 1 1.5-1.1c.6-.4 1.7-.4 1.9-.9s-.4-1.3-.7-1.9c.7-.4 1.5-1.1 3-1.9-.6 1.1-.7 1.9-1.1 2.6l.9.9c1.7-1.3 4.3-2.8 6-3.9 0-.2-.9-.9-.9-.9a47.81 47.81 0 0 1 -4.5 2.2c.4-.6.4-.9.6-1.1a64.4 64.4 0 0 1 8-4.7c6.5-3 13.1-6 19.6-8.8 1.1-.6 2.6-.2 3.9-.2a3.89 3.89 0 0 0 1.5-.2c3-.9 6-1.9 9-2.6a14.53 14.53 0 0 1 4.1-.6c5.6.2 11.2.2 16.8.6a26.55 26.55 0 0 1 6.9 1.5 62 62 0 0 1 8.4 3.5 76.52 76.52 0 0 1 9.1 5.6c5.4 3.5 10.5 7.5 15.9 10.6a43.83 43.83 0 0 1 12.7 12.3c4.1 5.8 8.8 11 10.6 18.1.9 4.1 1.9 8.2 2.8 12.3.6 2.2 1.9 4.5 1.3 7.1-.9 4.7-1.7 9.5-2.4 14.2a21.36 21.36 0 0 0 -.6 5.6c.4 5.8-1.9 10.8-4.1 16.1-.7 1.7-1.9 3.4-2.8 5.2a5.07 5.07 0 0 0 1.5.7c.6-1.1 1.1-2.2 1.7-3.4.2 0 .2 0 .4.2-.9 2.6-1.7 5.4-2.6 8a188.32 188.32 0 0 1 -7.3 17.4c-1.5 3.2-4.1 5.8-6 8.8-1.9 2.6-3.4 5.4-5.2 7.8a27 27 0 0 1 -5.6 5.6 148 148 0 0 1 -15.7 10.5c-3.5 2.6-7.4 3.7-11.1 4.6zm-99.5-9.9-.2.2a8.26 8.26 0 0 1 -1.3-.7c-1.5-2.2-3-4.5-4.5-6.7a2.12 2.12 0 0 1 -.4-1.9c2.1 3.1 4.1 6.1 6.4 9.1zm116.1 25.6c8.4-3.5 15.3-8.6 21.7-14.4a18.68 18.68 0 0 1 3-2.6c7.8-4.9 13.6-11.6 18.9-19 6-8.6 9.9-18.3 14.7-27.4.4-.7.7-1.5 1.1-2.1-.4 21.3 2.1 42.2 4.9 63.3-21.2.7-42.7 1.4-64.3 2.2zm189.2-5.6c-.2.4-.6.7-.7 1.1a10.8 10.8 0 0 1 -.4-1.7c-1.1 3-3.5 1.5-5.2 1.5-10.1.2-20.3.2-30.4.2-9.7 0-19.6 0-29.3.2-3.2 0-6.5.7-9.7.9-7.7.4-15.3.6-23 .7-.6 0-1.1-.9-2.1-1.7-.2.4-.6.9-1.1 1.7-.2-.4-.6-.7-.9-1.3a11.65 11.65 0 0 1 -.6 1.5h-.6c-.4-2.6-1.1-5-1.1-7.7 0-5.6.6-11.2.7-16.8.2-2.6 0-5 0-7.5.7.6 1.3.9 2.1 1.5.4-.7.7-1.3 1.1-1.9a2.23 2.23 0 0 1 -.7-.6 1.48 1.48 0 0 0 .7-.7c.2-.6.6-1.1.6-1.5a18.23 18.23 0 0 0 -.6-3.5.73.73 0 0 0 .6-.2c.4 1.9.7 3.7 1.1 5.6h.6c-.7-1.3 1.7-2.4-.4-3.9-.2-.2.2-1.3.2-1.9a35.21 35.21 0 0 1 -1.5-3.7 4 4 0 0 1 1.3-.6 10.66 10.66 0 0 0 -1.9-.9c1.9-1.7 1.9-2.6.2-4.5.4-.2.7-.2.7-.4a20.69 20.69 0 0 0 -.4-5c-.4-1.9.6-4.1-2.2-5.2a10.09 10.09 0 0 0 .7 1.5 4 4 0 0 0 -1.1.6c-2.4-2.2-.9-5.2-1.5-8.6 1.3.4 2.2.7 3.2 1.1-.4-1.3-1.3-2.8-1.9-4.5h-.63v-12.3c0 .2 1.3.2 2.1.4 0-.2.2-.4.2-.6q-.9-1.05-2.1-2.4l.4-.4c-1.5-1.9-.7-4.5-.7-5v-13.1c1.9 1.9-.9 4.3 1.9 5.4v-1.9h-.2c-.2-2.8-.2-5.6-.4-8.4h-.4a7.93 7.93 0 0 1 -.4.9h-.4c.4-14.7.7-29.5 1.1-44.6a53.37 53.37 0 0 1 5.2 7.1c4.3 7.8 9.9 14.6 15.1 21.7 4.5 6.2 8.6 12.9 12.7 19.2 5 7.7 9.9 15.3 14.9 23 3.7 5.8 7.7 11.6 11.6 17.2 3.5 5 7.3 9.9 11 14.7 3.2 4.3 6.5 8.6 9.7 12.9 3.7 5.2 7.5 10.5 11.2 15.5q2.85 3.9 6 7.8a20.51 20.51 0 0 0 3.9 3.5 1.08 1.08 0 0 1 -.7-.2c.6.7.9 1.3 1.3 1.7 2.1 1.3 2.3 2.4 1.1 4.1zm9.6-46.7v-1.3c0 .35.2.95 0 1.25zm6.3-82.3a8.7 8.7 0 0 1 -1.5-1.3c-.2.6 0 1.1-.4 1.9-.2-.6-1.5-.4-1.5-.9-.2 2.6 1.1 5.2.9 7.8.6-.4 2.8-.6 3.4-1.1a1.72 1.72 0 0 0 .7.4c-3.7 2.8-2.8 5.6-1.1 8.8.4.7 1.5 2.2.4 3.7-.4.4.2 1.5.4 2.4h.6v.4c-.6.2-1.1.4-1.7.6-.4-.6-2.6-1.7-2.6-2.6v9.5c1.9.6 1.9 3.2 2.6 4.5a3.4 3.4 0 0 0 .7-1.5l.2.2c-.2 1.1-.4 2.2-.7 3.4a42.09 42.09 0 0 0 -.9 4.9c0 .2.4.6.4.7-2.1 4.7-.9 9.9-1.7 14.7-.6 3.5 0 7.3-.4 11a83 83 0 0 1 -1.9 9.7c-.2.6-.6.7-1.5 1.1a14.13 14.13 0 0 0 -.2-5.8c-.2 0-2.6-1.3-2.8-1.3 0 2.6 1.5 6.2 2.1 9.1-.6-.2-2.8-1.5-3-1.5-.4 2.2-.4 5.2-.6 7.7-.2 1.9-1.9 3.5-2.1 5.6 0 1.1 1.3 1.9 1.1 3.7h1.5c0-3.7 1.7-7.1 1.7-11h.6c.2.4.7.7.6.9-.4 2.1-1.1 4.3-.9 6.3 0 1.1.9 2.2.6 3.5a13 13 0 0 0 -.7 3.9 9.25 9.25 0 0 1 -.4-1.9c-.2 0-1.9-.2-2.1-.2-.2 1.1 1.3 2.2 1.1 3.2-.2.2-.4.2-.7.4-2.1-3-4.1-6-6.2-9-4.9-7.1-9.7-14.2-14.6-21.5a55.82 55.82 0 0 1 -3.43-5.6 269.43 269.43 0 0 0 -19.2-28.6c-5.4-6.9-9.7-14.4-14.7-21.7-4.7-6.9-9.3-13.6-14-20.5-1.7-2.2-3.7-4.3-5.2-6.7-4.9-7.7-9.1-15.5-14-23.1-4.1-6.3-8.6-12.5-12.9-18.7-1.5-2.1-3-4.3-4.5-6.5a2.5 2.5 0 0 1 -.4-1.3c-.4-4.1-.7-8.2-.9-12.1 0-3.7.4-7.5.4-11.4v-3.4c0-.9.2-1.7.2-2.6.2-.2.4-.6.6-.7-5.4 0-11-.2-16.4 0-3.5.2-5.4-1.3-7.8-3.9-7.1-8-12.3-17.2-18.5-25.8-5.8-8.2-11.8-16.2-17.7-24.3-4.9-6.5-9.7-12.9-14.6-19.4-5.4-7.5-10.6-14.9-16.2-22.4-6.7-9-13.6-17.9-20.5-26.9-3.2-4.1-6.7-8-10.3-12.3q3.6.6 6.9.9l9 .6c6.7.6 13.4.9 20.2 1.9 5.6.7 11.2 1.9 17 2.8a246.38 246.38 0 0 1 36.2 9.3c6.9 2.2 13.6 5.2 20.3 8a411.58 411.58 0 0 1 43.7 21.5c4.5 2.4 7.1 6.3 10.5 9.9q7.35 7.5 14.4 15.3c5.4 6.2 10.5 12.5 15.7 18.9 4.7 5.6 9.5 11.2 14.2 16.8a55.81 55.81 0 0 1 3.9 5.6c3 4.5 6.3 8.8 9 13.6 1.9 3.5 3 7.7 4.3 11.6 1.9 5.8 3.7 11.4 5.6 17.2 1.3 4.3 2.4 8.8 3.4 13.3.7 3 .6 6.2 1.5 9.1 1.1 3.9 0 8.2 1.1 12.1.2.4.4.9.6 1.3.7.7 1.3 1.5.2 2.6a1.88 1.88 0 0 0 0 1.5 4.28 4.28 0 0 0 .9-1.3 2 2 0 0 0 .2.7 8.1 8.1 0 0 0 0 2.2c0 .4.4.9.6 1.3a7.25 7.25 0 0 1 1.5-1.1c1.7 6.3 1.9 12.7 1.9 19.2 0 6.2 1.1 12.3-1.5 18.3.1-1.9-1.2-3.7-.7-5.6z"/><path d="m405.73 321.75a.7.7 0 0 1 .4.2l-.2-.2c0-.2 0-.2-.2 0zm29.5 184.4a18.48 18.48 0 0 1 -6.7 3.4c-.2-.2-.2-.4-.4-.6 2.1-1.3 4.3-2.6 6.3-3.9.3.4.6.8.8 1.1zm-350-252.9c2.1-2.6 4.1-5.2 6.3-7.8a14.58 14.58 0 0 0 1.9.7c-2.1 2.6-4.9 6.2-6.9 9-.3-.4-.9-1.7-1.3-1.9zm-53 91.5c-1.5-3.2-3-6.5-4.5-9.7a6.12 6.12 0 0 1 1.7-.7c2.1 3 3 6.5 4.5 9.7 0-.05-1.5.7-1.7.7zm47.6-89.6c-1.1 1.7-2.2 3.5-3.4 5.2-.2-.2-2.2.7-2.4.6 1.1-1.7 3.9-4.7 5-6.3.3.1.4.3.8.5zm335.5 258.7c.2 0 .2-.2.4-.2a28.57 28.57 0 0 0 4.3.4c-2.5 1.7-4.03 1.5-4.7-.2zm-335.1-250.85a14 14 0 0 1 .9-1.7 3 3 0 0 0 .9-.2c.7-1.3.7-2.2 1.5-3.4-.2-.2-.4-.2-.6-.4-1.1.7-2.2 1.7-3.4 2.4a1 1 0 0 1 .4.9c-1.5-.2-2.1.6-2.8 2.6-.2.6-1.1.7-2.1 1.5-.2.4-.4 1.3-.7 2.2l.2.2a3 3 0 0 1 -.9.6c-1.1 1.1-2.4 2.1-3.5 3.2a5.26 5.26 0 0 0 -.4 1.7c1.3-1.3 3.5-3.7 5.2-5.2l.2.2c.7-1.1 1.3-2.2 2.1-3.4.2.2.2.4.4.6-.6 1.5-1.1 3.2-1.7 4.7-.4.2-.9.6-.9.4-.7.6-1.3 1.3-2.1 1.9-1.1.7-2.2 1.5-3.4 2.2-1.9 1.7-3.7 3.2-5.8 4.9-1.3 2.1-2.6 3.9-4.1 6.3 2.2-.6 2.8.4 2.6 2.2 2.6.4 2.8-1.7 3.5-3.2.2-.4.4-1.1.7-1.3 1.7-1.5 3.5-2.8 5.4-4.3a2.41 2.41 0 0 0 .4-1.7c0-.2-.9-.2-1.5-.4 1.7-1.9 4.1-5 5.8-7.1.9-.6 1.9-1.3 1.9-1.9-.2-2.1 1.1-2.6 2.6-3.4a1.45 1.45 0 0 1 -.8-1.1z"/><path d="m83.93 261c-.7 1.3-1.5 2.4-2.2 3.7-.4-.2-.7-.4-1.1-.6-.7 4.3-3.4 8-6 8.8a3.57 3.57 0 0 0 2.1.6c.6-.1.9-1.1 1.3-1.7 1.7-2.4 3.4-4.9 5-7.3.6-.9 1.1-1.9 1.7-2.8zm-62.1 81.85c.9 0 1.9.2 3 .2 0-.7.9-.6.9-1.3h.6c0 .9.2 1.7.2 2.6h-3.9c-.3-.2-1-1.3-.8-1.5zm-1.5-8.6c-.6-.6-1.5-1.1-1.5-1.7-.2-.7.4-1.7.9-2.6.4 1.3.6 2.4.9 3.7-.1.3-.3.4-.3.6zm4.6-11.9c.7 1.9 1.5 3.9 2.2 5.8a10.09 10.09 0 0 0 -1.5.7c-.7-1.9-1.7-3.9-2.4-5.8a5.09 5.09 0 0 1 1.7-.7zm415.6 178.4a19.53 19.53 0 0 1 3.5-.9 30.79 30.79 0 0 0 -4.1 3.4c-.2-.2-.4-.4-.6-.4.4-.8.8-1.3 1.2-2.1zm-229.53-394.4c1.1-.7 2.1-1.3 3.2-2.1l.4.4c-1.1 1.5-2.1 3-3.4 4.9-.2-1.3-.2-2.1-.4-3-.1 0 .1 0 .2-.2zm54.73 94.5c1.7-.7 3.4-1.5 5.4-2.4a13.27 13.27 0 0 0 -.2 2.6 6.46 6.46 0 0 0 -1.9-.4c-1.1.2-3.2 1.7-4.1 1.9a13 13 0 0 1 .8-1.7zm140 158.3c.4 1.9 3.9 2.8.4 4.7a14 14 0 0 0 1.7.9 1 1 0 0 1 -.4.7c-.4.2-1.1.6-1.5.4-.2 0-.6-.7-.6-1.1.1-1.7.2-3.4.4-5.6z"/></g></svg>