<svg xmlns="http://www.w3.org/2000/svg" viewBox="0 0 256 256"><path d="M0 0h256v256H0z" style="fill:#fff;shape-rendering:crispEdges"/><path d="M0 0v9h9V0zm9 0v9h9V0zm9 0v9h8V0zm8 0v9h9V0zm9 0v9h9V0zm9 0v9h9V0zm9 0v9h9V0zm18 0v9h8V0zm8 0v9h9V0zm9 0v9h9V0zm27 0v9h9V0zm26 0v9h9V0zm18 0v9h9V0zm18 0v9h8V0zm17 0v9h9V0zm9 0v9h9V0zm9 0v9h9V0zm9 0v9h9V0zm9 0v9h8V0zm8 0v9h9V0zm9 0v9h9V0zM0 9v9h9V9zm53 0v9h9V9zm18 0v9h8V9zm17 0v9h9V9zm9 0v9h9V9zm35 0v9h9V9zm62 0v9h9V9zm53 0v9h9V9zM0 18v8h9v-8zm18 0v8h8v-8zm8 0v8h9v-8zm9 0v8h9v-8zm18 0v8h9v-8zm26 0v8h9v-8zm9 0v8h9v-8zm9 0v8h9v-8zm9 0v8h9v-8zm9 0v8h9v-8zm9 0v8h8v-8zm8 0v8h9v-8zm9 0v8h9v-8zm9 0v8h9v-8zm9 0v8h9v-8zm18 0v8h8v-8zm17 0v8h9v-8zm18 0v8h9v-8zm9 0v8h9v-8zm9 0v8h8v-8zm17 0v8h9v-8zM0 26v9h9v-9zm18 0v9h8v-9zm8 0v9h9v-9zm9 0v9h9v-9zm18 0v9h9v-9zm18 0v9h8v-9zm35 0v9h9v-9zm9 0v9h9v-9zm9 0v9h8v-9zm17 0v9h9v-9zm9 0v9h9v-9zm9 0v9h9v-9zm35 0v9h9v-9zm18 0v9h9v-9zm9 0v9h9v-9zm9 0v9h8v-9zm17 0v9h9v-9zM0 35v9h9v-9zm18 0v9h8v-9zm8 0v9h9v-9zm9 0v9h9v-9zm18 0v9h9v-9zm44 0v9h9v-9zm27 0v9h8v-9zm8 0v9h9v-9zm9 0v9h9v-9zm36 0v9h8v-9zm17 0v9h9v-9zm18 0v9h9v-9zm9 0v9h9v-9zm9 0v9h8v-9zm17 0v9h9v-9zM0 44v9h9v-9zm53 0v9h9v-9zm26 0v9h9v-9zm18 0v9h9v-9zm27 0v9h8v-9zm8 0v9h9v-9zm27 0v9h9v-9zm9 0v9h9v-9zm26 0v9h9v-9zm53 0v9h9v-9zM0 53v9h9v-9zm9 0v9h9v-9zm9 0v9h8v-9zm8 0v9h9v-9zm9 0v9h9v-9zm9 0v9h9v-9zm9 0v9h9v-9zm18 0v9h8v-9zm17 0v9h9v-9zm18 0v9h9v-9zm18 0v9h8v-9zm17 0v9h9v-9zm18 0v9h9v-9zm18 0v9h8v-9zm17 0v9h9v-9zm9 0v9h9v-9zm9 0v9h9v-9zm9 0v9h9v-9zm9 0v9h8v-9zm8 0v9h9v-9zm9 0v9h9v-9zM71 62v9h8v-9zm8 0v9h9v-9zm9 0v9h9v-9zm18 0v9h9v-9zm53 0v9h9v-9zm18 0v9h8v-9zM9 71v8h9v-8zm9 0v8h8v-8zm17 0v8h9v-8zm9 0v8h9v-8zm9 0v8h9v-8zm9 0v8h9v-8zm17 0v8h9v-8zm36 0v8h9v-8zm17 0v8h9v-8zm27 0v8h9v-8zm9 0v8h9v-8zm17 0v8h9v-8zm9 0v8h9v-8zm27 0v8h9v-8zm17 0v8h9v-8zm9 0v8h9v-8zM0 79v9h9v-9zm18 0v9h8v-9zm8 0v9h9v-9zm18 0v9h9v-9zm18 0v9h9v-9zm26 0v9h9v-9zm27 0v9h9v-9zm17 0v9h9v-9zm18 0v9h9v-9zm18 0v9h9v-9zm9 0v9h8v-9zm8 0v9h9v-9zm27 0v9h9v-9zm9 0v9h9v-9zm9 0v9h8v-9zm8 0v9h9v-9zm9 0v9h9v-9zM18 88v9h8v-9zm8 0v9h9v-9zm27 0v9h9v-9zm18 0v9h8v-9zm8 0v9h9v-9zm9 0v9h9v-9zm27 0v9h9v-9zm44 0v9h9v-9zm26 0v9h9v-9zm9 0v9h9v-9zm9 0v9h9v-9zm9 0v9h9v-9zm18 0v9h8v-9zm8 0v9h9v-9zM9 97v9h9v-9zm9 0v9h8v-9zm8 0v9h9v-9zm18 0v9h9v-9zm35 0v9h9v-9zm36 0v9h9v-9zm26 0v9h9v-9zm27 0v9h9v-9zm44 0v9h9v-9zm18 0v9h8v-9zM0 106v9h9v-9zm9 0v9h9v-9zm9 0v9h8v-9zm35 0v9h9v-9zm9 0v9h9v-9zm44 0v9h9v-9zm9 0v9h9v-9zm9 0v9h8v-9zm8 0v9h9v-9zm9 0v9h9v-9zm36 0v9h8v-9zm8 0v9h9v-9zm9 0v9h9v-9zm9 0v9h9v-9zm9 0v9h9v-9zm9 0v9h9v-9zm26 0v9h9v-9zm-212 9v9h9v-9zm9 0v9h9v-9zm27 0v9h8v-9zm8 0v9h9v-9zm9 0v9h9v-9zm9 0v9h9v-9zm9 0v9h9v-9zm18 0v9h8v-9zm8 0v9h9v-9zm18 0v9h9v-9zm27 0v9h8v-9zm8 0v9h9v-9zm18 0v9h9v-9zm9 0v9h9v-9zm9 0v9h9v-9zm17 0v9h9v-9zM0 124v8h9v-8zm18 0v8h8v-8zm8 0v8h9v-8zm27 0v8h9v-8zm18 0v8h8v-8zm8 0v8h9v-8zm36 0v8h9v-8zm35 0v8h9v-8zm18 0v8h9v-8zm9 0v8h8v-8zm8 0v8h9v-8zm9 0v8h9v-8zm18 0v8h9v-8zm18 0v8h8v-8zm8 0v8h9v-8zM0 132v9h9v-9zm9 0v9h9v-9zm17 0v9h9v-9zm9 0v9h9v-9zm9 0v9h9v-9zm53 0v9h9v-9zm9 0v9h9v-9zm62 0v9h9v-9zm79 0v9h9v-9zm-212 9v9h9v-9zm18 0v9h9v-9zm18 0v9h8v-9zm8 0v9h9v-9zm9 0v9h9v-9zm9 0v9h9v-9zm9 0v9h9v-9zm9 0v9h9v-9zm9 0v9h8v-9zm26 0v9h9v-9zm27 0v9h8v-9zm8 0v9h9v-9zm9 0v9h9v-9zm9 0v9h9v-9zm35 0v9h9v-9zM9 150v9h9v-9zm9 0v9h8v-9zm44 0v9h9v-9zm17 0v9h9v-9zm9 0v9h9v-9zm18 0v9h9v-9zm26 0v9h9v-9zm9 0v9h9v-9zm27 0v9h9v-9zm17 0v9h9v-9zm9 0v9h9v-9zm18 0v9h9v-9zm9 0v9h9v-9zm9 0v9h8v-9zm8 0v9h9v-9zm9 0v9h9v-9zm-229 9v9h8v-9zm8 0v9h9v-9zm9 0v9h9v-9zm18 0v9h9v-9zm9 0v9h9v-9zm26 0v9h9v-9zm9 0v9h9v-9zm27 0v9h8v-9zm8 0v9h9v-9zm27 0v9h9v-9zm9 0v9h9v-9zm35 0v9h9v-9zm35 0v9h9v-9zm9 0v9h9v-9zM0 168v9h9v-9zm18 0v9h8v-9zm26 0v9h9v-9zm27 0v9h8v-9zm17 0v9h9v-9zm18 0v9h9v-9zm9 0v9h9v-9zm26 0v9h9v-9zm27 0v9h9v-9zm9 0v9h8v-9zm8 0v9h9v-9zm18 0v9h9v-9zm18 0v9h9v-9zM9 177v8h9v-8zm9 0v8h8v-8zm17 0v8h9v-8zm18 0v8h9v-8zm9 0v8h9v-8zm17 0v8h9v-8zm27 0v8h9v-8zm9 0v8h9v-8zm9 0v8h8v-8zm17 0v8h9v-8zm18 0v8h9v-8zm9 0v8h9v-8zm9 0v8h8v-8zm8 0v8h9v-8zm9 0v8h9v-8zm9 0v8h9v-8zm9 0v8h9v-8zm9 0v8h9v-8zm17 0v8h9v-8zm9 0v8h9v-8zm-168 8v9h9v-9zm9 0v9h9v-9zm9 0v9h9v-9zm9 0v9h9v-9zm26 0v9h9v-9zm9 0v9h9v-9zm9 0v9h9v-9zm9 0v9h9v-9zm18 0v9h8v-9zm35 0v9h9v-9zm26 0v9h9v-9zM0 194v9h9v-9zm9 0v9h9v-9zm9 0v9h8v-9zm8 0v9h9v-9zm9 0v9h9v-9zm9 0v9h9v-9zm9 0v9h9v-9zm18 0v9h8v-9zm8 0v9h9v-9zm9 0v9h9v-9zm9 0v9h9v-9zm9 0v9h9v-9zm18 0v9h8v-9zm26 0v9h9v-9zm18 0v9h9v-9zm9 0v9h8v-9zm17 0v9h9v-9zm18 0v9h9v-9zm9 0v9h9v-9zm17 0v9h9v-9zm9 0v9h9v-9zM0 203v9h9v-9zm53 0v9h9v-9zm18 0v9h8v-9zm26 0v9h9v-9zm18 0v9h9v-9zm26 0v9h9v-9zm9 0v9h9v-9zm9 0v9h9v-9zm18 0v9h8v-9zm35 0v9h9v-9zm35 0v9h9v-9zM0 212v9h9v-9zm18 0v9h8v-9zm8 0v9h9v-9zm9 0v9h9v-9zm18 0v9h9v-9zm18 0v9h8v-9zm26 0v9h9v-9zm80 0v9h8v-9zm8 0v9h9v-9zm9 0v9h9v-9zm9 0v9h9v-9zm9 0v9h9v-9zm9 0v9h9v-9zm9 0v9h8v-9zm8 0v9h9v-9zm9 0v9h9v-9zM0 221v9h9v-9zm18 0v9h8v-9zm8 0v9h9v-9zm9 0v9h9v-9zm18 0v9h9v-9zm26 0v9h9v-9zm9 0v9h9v-9zm18 0v9h9v-9zm18 0v9h8v-9zm8 0v9h9v-9zm18 0v9h9v-9zm53 0v9h9v-9zm18 0v9h9v-9zm9 0v9h8v-9zM0 230v8h9v-8zm18 0v8h8v-8zm8 0v8h9v-8zm9 0v8h9v-8zm18 0v8h9v-8zm18 0v8h8v-8zm17 0v8h9v-8zm9 0v8h9v-8zm27 0v8h8v-8zm53 0v8h8v-8zm8 0v8h9v-8zm18 0v8h9v-8zm18 0v8h9v-8zm9 0v8h8v-8zM0 238v9h9v-9zm53 0v9h9v-9zm18 0v9h8v-9zm17 0v9h9v-9zm9 0v9h9v-9zm9 0v9h9v-9zm18 0v9h8v-9zm8 0v9h9v-9zm9 0v9h9v-9zm18 0v9h9v-9zm9 0v9h9v-9zm17 0v9h9v-9zm9 0v9h9v-9zm9 0v9h9v-9zm9 0v9h9v-9zm9 0v9h9v-9zm17 0v9h9v-9zm9 0v9h9v-9zM0 247v9h9v-9zm9 0v9h9v-9zm9 0v9h8v-9zm8 0v9h9v-9zm9 0v9h9v-9zm9 0v9h9v-9zm9 0v9h9v-9zm26 0v9h9v-9zm27 0v9h9v-9zm18 0v9h8v-9zm26 0v9h9v-9zm9 0v9h9v-9zm9 0v9h9v-9zm17 0v9h9v-9zm18 0v9h9v-9zm27 0v9h8v-9z" style="fill:#000;shape-rendering:crispEdges"/></svg>