<svg xmlns="http://www.w3.org/2000/svg" viewBox="0 0 256 256"><path d="M0 0h256v256H0z" style="fill:#fff;shape-rendering:crispEdges"/><path d="M0 0v8h8V0zm8 0v8h8V0zm8 0v8h7V0zm7 0v8h8V0zm8 0v8h8V0zm8 0v8h8V0zm8 0v8h7V0zm15 0v8h8V0zm23 0v8h8V0zm62 0v8h8V0zm16 0v8h8V0zm23 0v8h8V0zm16 0v8h7V0zm7 0v8h8V0zm8 0v8h8V0zm8 0v8h8V0zm8 0v8h7V0zm7 0v8h8V0zm8 0v8h8V0zM0 8v8h8V8zm47 0v8h7V8zm15 0v8h8V8zm39 0v8h8V8zm8 0v8h7V8zm15 0v8h8V8zm16 0v8h7V8zm7 0v8h8V8zm8 0v8h8V8zm23 0v8h8V8zm24 0v8h7V8zm46 0v8h8V8zM0 16v7h8v-7zm16 0v7h7v-7zm7 0v7h8v-7zm8 0v7h8v-7zm16 0v7h7v-7zm15 0v7h8v-7zm16 0v7h7v-7zm15 0v7h8v-7zm16 0v7h7v-7zm15 0v7h8v-7zm8 0v7h8v-7zm15 0v7h8v-7zm8 0v7h8v-7zm8 0v7h8v-7zm8 0v7h7v-7zm7 0v7h8v-7zm24 0v7h7v-7zm15 0v7h8v-7zm8 0v7h8v-7zm8 0v7h7v-7zm15 0v7h8v-7zM0 23v8h8v-8zm16 0v8h7v-8zm7 0v8h8v-8zm8 0v8h8v-8zm16 0v8h7v-8zm15 0v8h8v-8zm23 0v8h8v-8zm16 0v8h8v-8zm31 0v8h8v-8zm23 0v8h8v-8zm8 0v8h8v-8zm8 0v8h7v-8zm7 0v8h8v-8zm8 0v8h8v-8zm16 0v8h7v-8zm15 0v8h8v-8zm8 0v8h8v-8zm8 0v8h7v-8zm15 0v8h8v-8zM0 31v8h8v-8zm16 0v8h7v-8zm7 0v8h8v-8zm8 0v8h8v-8zm16 0v8h7v-8zm23 0v8h8v-8zm8 0v8h7v-8zm7 0v8h8v-8zm16 0v8h8v-8zm8 0v8h7v-8zm7 0v8h8v-8zm47 0v8h8v-8zm8 0v8h7v-8zm15 0v8h8v-8zm16 0v8h7v-8zm15 0v8h8v-8zm8 0v8h8v-8zm8 0v8h7v-8zm15 0v8h8v-8zM0 39v8h8v-8zm47 0v8h7v-8zm38 0v8h8v-8zm8 0v8h8v-8zm8 0v8h8v-8zm8 0v8h7v-8zm7 0v8h8v-8zm16 0v8h8v-8zm54 0v8h8v-8zm16 0v8h7v-8zm46 0v8h8v-8zM0 47v7h8v-7zm8 0v7h8v-7zm8 0v7h7v-7zm7 0v7h8v-7zm8 0v7h8v-7zm8 0v7h8v-7zm8 0v7h7v-7zm15 0v7h8v-7zm16 0v7h7v-7zm15 0v7h8v-7zm16 0v7h7v-7zm15 0v7h8v-7zm16 0v7h7v-7zm15 0v7h8v-7zm16 0v7h7v-7zm15 0v7h8v-7zm16 0v7h7v-7zm7 0v7h8v-7zm8 0v7h8v-7zm8 0v7h8v-7zm8 0v7h7v-7zm7 0v7h8v-7zm8 0v7h8v-7zM70 54v8h8v-8zm8 0v8h7v-8zm7 0v8h8v-8zm24 0v8h7v-8zm15 0v8h8v-8zm8 0v8h8v-8zm8 0v8h7v-8zm15 0v8h8v-8zm8 0v8h8v-8zM0 62v8h8v-8zm16 0v8h7v-8zm7 0v8h8v-8zm8 0v8h8v-8zm16 0v8h7v-8zm15 0v8h8v-8zm16 0v8h7v-8zm7 0v8h8v-8zm31 0v8h8v-8zm16 0v8h8v-8zm8 0v8h7v-8zm7 0v8h8v-8zm8 0v8h8v-8zm8 0v8h8v-8zm8 0v8h7v-8zm23 0v8h8v-8zm31 0v8h8v-8zm8 0v8h7v-8zm7 0v8h8v-8zm8 0v8h8v-8zM0 70v8h8v-8zm23 0v8h8v-8zm8 0v8h8v-8zm8 0v8h8v-8zm15 0v8h8v-8zm16 0v8h8v-8zm23 0v8h8v-8zm16 0v8h7v-8zm7 0v8h8v-8zm24 0v8h7v-8zm7 0v8h8v-8zm8 0v8h8v-8zm8 0v8h8v-8zm8 0v8h7v-8zm31 0v8h7v-8zm15 0v8h8v-8zm8 0v8h8v-8zm15 0v8h8v-8zM31 78v7h8v-7zm16 0v7h7v-7zm54 0v7h8v-7zm8 0v7h7v-7zm15 0v7h8v-7zm16 0v7h7v-7zm7 0v7h8v-7zm31 0v7h8v-7zm8 0v7h8v-7zm31 0v7h8v-7zm23 0v7h8v-7zm8 0v7h8v-7zM16 85v8h7v-8zm7 0v8h8v-8zm8 0v8h8v-8zm23 0v8h8v-8zm31 0v8h8v-8zm8 0v8h8v-8zm8 0v8h8v-8zm23 0v8h8v-8zm16 0v8h7v-8zm15 0v8h8v-8zm16 0v8h7v-8zm23 0v8h8v-8zm8 0v8h7v-8zm7 0v8h8v-8zm31 0v8h8v-8zM16 93v8h7v-8zm23 0v8h8v-8zm8 0v8h7v-8zm38 0v8h8v-8zm24 0v8h7v-8zm7 0v8h8v-8zm16 0v8h8v-8zm8 0v8h7v-8zm7 0v8h8v-8zm8 0v8h8v-8zm8 0v8h8v-8zm8 0v8h7v-8zm15 0v8h8v-8zm8 0v8h8v-8zm23 0v8h8v-8zm-201 8v8h7v-8zm15 0v8h8v-8zm23 0v8h8v-8zm8 0v8h8v-8zm23 0v8h8v-8zm16 0v8h8v-8zm15 0v8h8v-8zm16 0v8h8v-8zm23 0v8h8v-8zm8 0v8h8v-8zm8 0v8h7v-8zm31 0v8h7v-8zm31 0v8h7v-8zm7 0v8h8v-8zm8 0v8h8v-8zM8 109v7h8v-7zm8 0v7h7v-7zm23 0v7h8v-7zm8 0v7h7v-7zm7 0v7h8v-7zm8 0v7h8v-7zm16 0v7h7v-7zm7 0v7h8v-7zm24 0v7h7v-7zm54 0v7h8v-7zm23 0v7h8v-7zm8 0v7h8v-7zm15 0v7h8v-7zm8 0v7h8v-7zm8 0v7h8v-7zm8 0v7h7v-7zm7 0v7h8v-7zm8 0v7h8v-7zM0 116v8h8v-8zm8 0v8h8v-8zm8 0v8h7v-8zm54 0v8h8v-8zm8 0v8h7v-8zm7 0v8h8v-8zm39 0v8h8v-8zm8 0v8h8v-8zm8 0v8h7v-8zm7 0v8h8v-8zm39 0v8h8v-8zm8 0v8h8v-8zm31 0v8h8v-8zm8 0v8h7v-8zm7 0v8h8v-8zm8 0v8h8v-8zM0 124v8h8v-8zm23 0v8h8v-8zm24 0v8h7v-8zm15 0v8h8v-8zm8 0v8h8v-8zm46 0v8h8v-8zm16 0v8h8v-8zm31 0v8h8v-8zm8 0v8h7v-8zm23 0v8h8v-8zm8 0v8h7v-8zm15 0v8h8v-8zm16 0v8h7v-8zm7 0v8h8v-8zm8 0v8h8v-8zm-225 8v8h8v-8zm8 0v8h8v-8zm23 0v8h8v-8zm8 0v8h8v-8zm31 0v8h8v-8zm54 0v8h8v-8zm8 0v8h8v-8zm8 0v8h8v-8zm8 0v8h7v-8zm15 0v8h8v-8zm8 0v8h8v-8zm31 0v8h8v-8zm15 0v8h8v-8zm8 0v8h8v-8zm-209 8v7h8v-7zm8 0v7h7v-7zm7 0v7h8v-7zm8 0v7h8v-7zm23 0v7h8v-7zm8 0v7h8v-7zm16 0v7h7v-7zm15 0v7h8v-7zm23 0v7h8v-7zm8 0v7h8v-7zm39 0v7h8v-7zm15 0v7h8v-7zm8 0v7h8v-7zm31 0v7h8v-7zM0 147v8h8v-8zm16 0v8h7v-8zm15 0v8h8v-8zm8 0v8h8v-8zm23 0v8h8v-8zm8 0v8h8v-8zm15 0v8h8v-8zm16 0v8h8v-8zm8 0v8h7v-8zm38 0v8h8v-8zm8 0v8h8v-8zm8 0v8h8v-8zm15 0v8h8v-8zm8 0v8h8v-8zm8 0v8h8v-8zm8 0v8h7v-8zm7 0v8h8v-8zm39 0v8h8v-8zM0 155v8h8v-8zm16 0v8h7v-8zm7 0v8h8v-8zm24 0v8h7v-8zm15 0v8h8v-8zm8 0v8h8v-8zm39 0v8h7v-8zm7 0v8h8v-8zm8 0v8h8v-8zm8 0v8h8v-8zm31 0v8h8v-8zm15 0v8h8v-8zm16 0v8h8v-8zm23 0v8h8v-8zm8 0v8h8v-8zm8 0v8h7v-8zm-171 8v8h8v-8zm8 0v8h8v-8zm8 0v8h7v-8zm23 0v8h8v-8zm8 0v8h7v-8zm7 0v8h8v-8zm8 0v8h8v-8zm8 0v8h8v-8zm8 0v8h7v-8zm15 0v8h8v-8zm16 0v8h7v-8zm23 0v8h8v-8zm8 0v8h7v-8zm7 0v8h8v-8zm8 0v8h8v-8zm31 0v8h8v-8zm-232 8v7h7v-7zm7 0v7h8v-7zm8 0v7h8v-7zm16 0v7h7v-7zm7 0v7h8v-7zm31 0v7h8v-7zm39 0v7h8v-7zm8 0v7h8v-7zm15 0v7h8v-7zm24 0v7h7v-7zm38 0v7h8v-7zm8 0v7h8v-7zm16 0v7h7v-7zm7 0v7h8v-7zM0 178v8h8v-8zm8 0v8h8v-8zm46 0v8h8v-8zm8 0v8h8v-8zm8 0v8h8v-8zm8 0v8h7v-8zm7 0v8h8v-8zm31 0v8h8v-8zm16 0v8h8v-8zm15 0v8h8v-8zm8 0v8h8v-8zm8 0v8h8v-8zm8 0v8h7v-8zm23 0v8h8v-8zm8 0v8h7v-8zm7 0v8h8v-8zm8 0v8h8v-8zm8 0v8h8v-8zm8 0v8h7v-8zm7 0v8h8v-8zm-224 8v8h7v-8zm15 0v8h8v-8zm8 0v8h8v-8zm8 0v8h7v-8zm31 0v8h7v-8zm7 0v8h8v-8zm8 0v8h8v-8zm8 0v8h8v-8zm39 0v8h7v-8zm15 0v8h8v-8zm23 0v8h8v-8zm8 0v8h8v-8zm8 0v8h8v-8zm8 0v8h7v-8zm7 0v8h8v-8zm8 0v8h8v-8zm23 0v8h8v-8zm-178 8v8h8v-8zm8 0v8h8v-8zm8 0v8h7v-8zm7 0v8h8v-8zm8 0v8h8v-8zm31 0v8h8v-8zm8 0v8h8v-8zm8 0v8h7v-8zm7 0v8h8v-8zm16 0v8h8v-8zm15 0v8h8v-8zm8 0v8h8v-8zm31 0v8h8v-8zm23 0v8h8v-8zM0 202v7h8v-7zm8 0v7h8v-7zm8 0v7h7v-7zm7 0v7h8v-7zm8 0v7h8v-7zm8 0v7h8v-7zm8 0v7h7v-7zm23 0v7h8v-7zm8 0v7h7v-7zm38 0v7h8v-7zm8 0v7h8v-7zm8 0v7h8v-7zm8 0v7h7v-7zm23 0v7h8v-7zm8 0v7h7v-7zm7 0v7h8v-7zm8 0v7h8v-7zm16 0v7h7v-7zm15 0v7h8v-7zm16 0v7h7v-7zM0 209v8h8v-8zm47 0v8h7v-8zm31 0v8h7v-8zm15 0v8h8v-8zm8 0v8h8v-8zm31 0v8h8v-8zm8 0v8h7v-8zm15 0v8h8v-8zm16 0v8h7v-8zm7 0v8h8v-8zm8 0v8h8v-8zm31 0v8h8v-8zm16 0v8h7v-8zM0 217v8h8v-8zm16 0v8h7v-8zm7 0v8h8v-8zm8 0v8h8v-8zm16 0v8h7v-8zm15 0v8h8v-8zm23 0v8h8v-8zm8 0v8h8v-8zm16 0v8h7v-8zm7 0v8h8v-8zm8 0v8h8v-8zm8 0v8h8v-8zm54 0v8h8v-8zm8 0v8h8v-8zm8 0v8h7v-8zm7 0v8h8v-8zm8 0v8h8v-8zm23 0v8h8v-8zm8 0v8h8v-8zM0 225v8h8v-8zm16 0v8h7v-8zm7 0v8h8v-8zm8 0v8h8v-8zm16 0v8h7v-8zm15 0v8h8v-8zm31 0v8h8v-8zm8 0v8h8v-8zm23 0v8h8v-8zm8 0v8h8v-8zm8 0v8h7v-8zm7 0v8h8v-8zm16 0v8h8v-8zm15 0v8h8v-8zm8 0v8h8v-8zm16 0v8h7v-8zm7 0v8h8v-8zm8 0v8h8v-8zm8 0v8h8v-8zm8 0v8h7v-8zM0 233v7h8v-7zm16 0v7h7v-7zm7 0v7h8v-7zm8 0v7h8v-7zm16 0v7h7v-7zm15 0v7h8v-7zm8 0v7h8v-7zm8 0v7h7v-7zm23 0v7h8v-7zm8 0v7h7v-7zm7 0v7h8v-7zm8 0v7h8v-7zm8 0v7h8v-7zm23 0v7h8v-7zm16 0v7h7v-7zm31 0v7h7v-7zm7 0v7h8v-7zm8 0v7h8v-7zm16 0v7h7v-7zm15 0v7h8v-7zM0 240v8h8v-8zm47 0v8h7v-8zm23 0v8h8v-8zm8 0v8h7v-8zm7 0v8h8v-8zm16 0v8h8v-8zm23 0v8h8v-8zm16 0v8h7v-8zm23 0v8h8v-8zm8 0v8h7v-8zm7 0v8h8v-8zM0 248v8h8v-8zm8 0v8h8v-8zm8 0v8h7v-8zm7 0v8h8v-8zm8 0v8h8v-8zm8 0v8h8v-8zm8 0v8h7v-8zm15 0v8h8v-8zm8 0v8h8v-8zm8 0v8h7v-8zm46 0v8h8v-8zm8 0v8h8v-8zm15 0v8h8v-8zm16 0v8h8v-8zm8 0v8h7v-8zm15 0v8h8v-8zm39 0v8h8v-8zm15 0v8h8v-8z" style="fill:#000;shape-rendering:crispEdges"/></svg>