<svg xmlns="http://www.w3.org/2000/svg">
	<defs>
		<style>
			:root svg:not(:target) {
				display: none;
			}
		</style>
	</defs>

	<svg id="react" fill="none" xmlns="http://www.w3.org/2000/svg" viewBox="0 0 229 210"><path d="M114.5 125.14a20.4 20.4 0 1 0 0-40.81 20.4 20.4 0 0 0 0 40.81Z" fill="#61DAFB"/><path d="M114.5 146.54c60.47 0 109.5-18.71 109.5-41.8 0-23.1-49.03-41.81-109.5-41.81C54.02 62.93 5 81.64 5 104.73c0 23.1 49.02 41.81 109.5 41.81Z" stroke="#61DAFB" stroke-width="9.95"/><path d="M78.3 125.64c30.23 52.37 70.95 85.47 90.95 73.92 20-11.54 11.7-63.36-18.54-115.73C120.47 31.46 79.75-1.64 59.75 9.9c-20 11.55-11.7 63.37 18.54 115.74Z" stroke="#61DAFB" stroke-width="9.95"/><path d="M78.3 83.83C48.04 136.2 39.74 188.02 59.74 199.56c20 11.55 60.72-21.55 90.96-73.92C180.94 73.27 189.25 21.45 169.25 9.9c-20-11.54-60.72 21.56-90.96 73.93Z" stroke="#61DAFB" stroke-width="9.95"/></svg>

	<svg id="angular" fill="none" xmlns="http://www.w3.org/2000/svg" viewBox="0 0 190 210"><path d="M95 3 0 36.84l14.49 125.48L95 206.87l80.51-44.55L190 36.84 95 3Z" fill="#DD0031"/><path d="M95 3v22.63-.1 181.34l80.51-44.55L190 36.84 95 3Z" fill="#C3002F"/><path d="M95 25.53 35.61 158.55h22.15l11.93-29.76h50.41l11.94 29.76h22.14L95 25.53Zm17.35 84.9h-34.7L95 68.76l17.35 41.69Z" fill="#fff"/></svg>

	<svg id="svelte" fill="none" xmlns="http://www.w3.org/2000/svg" viewBox="0 0 166 210"><path d="M155.38 31.62C136.93 5.07 100.22-2.7 73.82 14.03L27.29 43.8A52.85 52.85 0 0 0 3.26 79.48a55.33 55.33 0 0 0 5.58 36.02A51.04 51.04 0 0 0 .9 135.45a56.87 56.87 0 0 0 9.64 42.96c18.62 26.55 55.17 34.32 81.56 17.58l46.54-29.6a52.85 52.85 0 0 0 24.02-35.67 55.33 55.33 0 0 0-5.58-36.02 51.03 51.03 0 0 0 7.95-19.96 55.69 55.69 0 0 0-9.64-43.12Z" fill="#FF3E00"/><path d="M68.98 180.94a36.86 36.86 0 0 1-39.57-14.71 34.24 34.24 0 0 1-5.92-25.87c.34-1.53.68-2.88 1.02-4.4l.84-2.7 2.37 1.69a61.67 61.67 0 0 0 18.26 9.13l1.7.5-.18 1.7c-.17 2.36.51 4.9 1.86 6.93a11.2 11.2 0 0 0 12.01 4.56c1.02-.33 2.03-.67 2.88-1.18l46.33-29.6a9.58 9.58 0 0 0 4.4-6.42c.5-2.7-.17-5.58-1.7-7.78a11.1 11.1 0 0 0-12-4.4c-1.02.34-2.03.68-2.87 1.19L80.65 120.9a31.45 31.45 0 0 1-9.47 4.06 36.86 36.86 0 0 1-39.57-14.71 34.16 34.16 0 0 1-5.75-25.88A32.02 32.02 0 0 1 40.4 62.91l46.5-29.6a36.8 36.8 0 0 1 9.48-4.23 36.86 36.86 0 0 1 39.57 14.72 34.25 34.25 0 0 1 5.92 25.87 42.37 42.37 0 0 1-1.19 4.4l-.84 2.7-2.37-1.69a61.7 61.7 0 0 0-18.27-9.13l-1.69-.5.17-1.7c.17-2.37-.5-4.9-1.86-6.93a11.1 11.1 0 0 0-12-4.4c-1.02.34-2.03.68-2.88 1.19L54.61 83.2a9.58 9.58 0 0 0-4.4 6.42c-.5 2.71.17 5.59 1.7 7.78a11.1 11.1 0 0 0 12 4.4c1.01-.34 2.03-.68 2.87-1.18l17.76-11.33A36.8 36.8 0 0 1 94 85.06a36.86 36.86 0 0 1 39.57 14.71 34.24 34.24 0 0 1 5.92 25.88 32.02 32.02 0 0 1-14.55 21.47l-46.5 29.6a36.79 36.79 0 0 1-9.47 4.22Z" fill="#fff"/></svg>

	<svg id="preact" fill="none" xmlns="http://www.w3.org/2000/svg" viewBox="0 0 182 210"><path d="m91 0 91 52.5v105L91 210 0 157.5v-105L91 0Z" fill="#673AB8"/><path d="M27.17 154.37c10.35 13.5 47.32 2.5 82.57-24.55 35.25-27.05 55.44-59.9 45.08-73.4-10.34-13.49-47.31-2.5-82.56 24.55s-55.44 59.91-45.09 73.4Z" stroke="#fff" stroke-width="6.57"/><path d="M154.82 154.37c10.36-13.49-9.83-46.35-45.08-73.4-35.25-27.04-72.22-38.04-82.57-24.55-10.35 13.5 9.84 46.35 45.09 73.4 35.25 27.05 72.21 38.04 82.56 24.55Z" stroke="#fff" stroke-width="6.57"/><path d="M91 119.35a13.96 13.96 0 1 0 0-27.9 13.96 13.96 0 0 0 0 27.9Z" fill="#fff"/></svg>

	<svg id="vue" fill="none" xmlns="http://www.w3.org/2000/svg" viewBox="0 0 216 210"><path d="M132.94 21 108 64.19 83.06 21H0l108 187L216 21h-83.06Z" fill="#41B883"/><path d="M132.94 21 108 64.19 83.06 21H43.2L108 133.2 172.8 21h-39.86Z" fill="#34495E"/></svg>

	<svg id="lit" fill="none" xmlns="http://www.w3.org/2000/svg" viewBox="0 0 160 210"><path d="m40 125 20-60 90 90-30 50-40-40H60" fill="#00E8FF"/><path d="M80 165V85l40-40v80M0 165l40 40 20-40-20-40H20" fill="#283198"/><path d="M40 125V45L80 5v80m40 120v-80l40-40v80M0 165V85l40 40" fill="#324FFF"/><path d="M40 205v-80l40 40" fill="#0FF"/></svg>
</svg>
