<svg xmlns="http://www.w3.org/2000/svg">
    <defs>
        <style>
            :root svg:not(:target) {
                display: none;
            }
        </style>
    </defs>
    <svg id="1" viewBox="0 0 186 189">
        <path id="1" fill="currentcolor" d="M35.4 178.1c-1.6-10.4-4-20.8-5.6-31.2a218 218 0 0 1 2.7-40.3l3-2.9c.7 5 1.9 10 3.4 14.8 1.8 6.2 4.5 12 8.3 17.3 2.4 3.3 5.6 6 9.4 7.5l-5.3 3.5c-1.3.7 0 2.5 1.2 1.8l7-4.4 1.1.1c1.9.2 3.8.1 5.6-.3l.1 8.2a52 52 0 0 0 2.1 13.6c1 3.7 3.1 7 6.2 9.4 4.4 2.8 8.7-.3 11.8-3.8 1.8 2.5 3.8 4.8 6 7 3.1 3.3 6.9 6.1 11 8.1a27 27 0 0 0 11.7 2.4c7-.4 13.8-3 19.3-7.5a52.3 52.3 0 0 0 14-17.2 41.6 41.6 0 0 0 5-20.2 35 35 0 0 0-7.6-20.3c2.4-2 4.8-4 7.2-6.2 4-3.6 8-7.5 12-11.4l8.3-8.2c3.2-3.2 6-6.7 8.6-10.5 2.3-3.4 3.7-7.3 3.9-11.4.2-4-1.8-7.8-5.2-10-3.6-1.7-7.7-2-11.5-.8-4.2 1-8.2 2.2-12.1 3.7l-6 1.9c-2.5.9-5 1.8-7.5 2.9l-3.2 1.4c.7-4 1-8 1.2-12 .2-5.3-.2-10.7-1.3-15.9-2-8.1-4.7-18.4-13-22-8.8-4-17 4.5-22.6 10.2a116 116 0 0 0-7.9 9.2c-4.2-.5-8.5-.4-12.7.5a296.5 296.5 0 0 0 3.3-22.3v-.4l.1-.7.2-2c.5-3.2.6-6.5.5-9.8.1-3-1-6-3-8.3a6.7 6.7 0 0 0-8.4.5 31.4 31.4 0 0 0-7.2 7.5l-2.8 4-.9 1.4-.4.7-1.2 1.8a222 222 0 0 0-17.3 31.3c-6.2-5.1-13.3-11.6-21.7-9.5a19.6 19.6 0 0 0-9.7 7.1A56.5 56.5 0 0 0 7.7 60 89.8 89.8 0 0 0 .3 94c-.2 4.7.5 9.4 2 13.9 1.3 3.6 4 6.6 7.5 8 5.2 1.4 10.7.2 14.9-3-.6 5.5-.5 11 .1 16.5.7 6.5 1.5 13 2.6 19.5.3 10.1 2.1 20.2 5.4 29.9a1.3 1.3 0 0 0 2.6-.6ZM30 104.4v-.1.1Zm19.6 30.2c-3.7-5-6.5-10.8-8.1-16.8-1.7-5.5-2.9-11-3.5-16.8l6-6.5.6-.6a130 130 0 0 0 5 12.2l1.7 3.9a14 14 0 0 0-1 5.4 1 1 0 0 0 1.8.8c0 3.3.2 6.6.7 10a14 14 0 0 0-.6 7 6 6 0 0 0 7 4.7 13 13 0 0 0 6.7-4.3l.4.5.2.4-.1 1.3a105 105 0 0 1-7 5.5c-4-1-7.3-3.5-9.8-6.7Zm-16.4-33.3.5-2.6.9-.9.1 1.5v.4l-1.5 1.6Zm4.3-4.5-.1-1.3a28 28 0 0 1 2-1.3l1.1-.6-3 3.2Zm11-30.2a23.3 23.3 0 0 1 7-2.1 35 35 0 0 1 6.3-.4l.2.1a52.9 52.9 0 0 0-3 9l-5 5.7-6.6 7.6-1.3 1.4a50 50 0 0 1-2.3-14.4c0-1.3.1-2.6.4-3.8.5-.5 1-1 1.5-1.3l1.5-1 .7-.4.4-.2.3-.2Zm93.6 57.3-1 .7a338.8 338.8 0 0 1-45.5 30.9l1.9-4.5.7-1.8c2.2-1.1 4.3-2.5 6.2-4.1l2-1a31.8 31.8 0 0 0 17.2-24.2 215 215 0 0 0 4.2-8.2 67.2 67.2 0 0 1 14.3 12.2ZM58 101.2l-1.6 1.4.1-.9 1-4.8.5 4.3Zm8.2-.9-1.2 3.5a16 16 0 0 1 1.1-3.3v-.2Zm4-3.3 2.2-.8-1.2 4.9-1.5 1.5-2.2 2.3a603 603 0 0 0 2.6-7.9Zm22-27.7c-1.6-.8-3.2-1.6-5-2.3l-.8-.6 4.3-7.9c1.1 1.2 2 2.5 3 3.8a59 59 0 0 1 5.6 11 91 91 0 0 0-7-4ZM69.6 65h.1-.1Zm12.2-1.6-1.4-.8 2-8.5a9.7 9.7 0 0 1 5.3 1.6l1.1.8a149.8 149.8 0 0 0-4.6 8.3l-2.4-1.4Zm-14.6-2.2.1-.2 1.1.3-1.2-.1Zm-3-1-.3.6h-1l-1.4-1 1.8.2 1 .2Zm9.4 63 9.3-7.3c-3 5.8-7 11-11.7 15.6l-1-3a70 70 0 0 0 3.4-5.4Zm1.6-3v-.2c3.2-5.3 5.3-11 6.4-17a12 12 0 0 0-1-7.9l-.6-.8.2-.4 1.7-.3 1.6.4 5.4 1.5-.8 5.6c-.8 4-2 8-3.8 11.8l-9.1 7.3Zm.2-24V96l.3-.6.3.1-.6.9ZM72 91.5h.3-.3ZM98.7 95l.9.7-7.5-2.4V93l2.9.5.7.2h.4l.1.1 1.5.6.6.3.4.3Zm.8-2.8c1.5.5 3 .8 4.5 1l1.1 2.9v.6l-.8.6-.7-.2a8.6 8.6 0 0 0-4.1-5ZM74.2 74.5c-1.2 4.4-2.5 8.9-3.9 13.3l-6-.8A29.6 29.6 0 0 1 71 71.4l3.2 3Zm3.7-2.8.8 2.8-1.2-1.1.4-1.7Zm14.3 18.5v-1.4l4 2c-1.3-.3-2.7-.5-4-.6Zm-3.1-.1c-2 0-4.1.2-6.2.5l-1.5-.4c.7-2.8 1-5.6 1-8.5 2.1 1.8 4.3 3.5 6.6 5v3.4Zm-10.6-.6-1.2-.3 2.1-6.3a25 25 0 0 1-.9 6.6Zm-3.9-.9-1.5-.3a486 486 0 0 0 3.5-11.7l1.4 1.3.3.2a146 146 0 0 0-3.7 10.5Zm17.2 7.7 9.5 3v.2l-1.4 1-.4.2c-.7.1-1.3.6-2 .8H97l-1 .4c-.6.5-1 1.4-.8 2.2l-6.3 5c1.4-4.1 2.4-8.4 2.8-12.8Zm16.9-.1 5.8-4.1a42 42 0 0 1 5.2 11.6c-3.3-1.7-6.7-3.2-10.2-4.6l-.8-3Zm-.6-1.8-.4-1.2h1l1.4-.2-2 1.4Zm4.1-5.1c-1.6.6-3.3 1-5 1-.5-3-1.1-6-2-8.8a50.2 50.2 0 0 1 7.3 7.7h-.3Zm-10-8.2.7 2.5a57 57 0 0 0-6-8.1c1.5.9 3 1.9 4.4 3l.9 2.6Zm-10.3-6c4.4 4.3 8 9.2 10.7 14.7a33 33 0 0 1-10.5-4.6 40 40 0 0 0-2.4-12.1l2.2 2ZM88.7 83a91.8 91.8 0 0 1-6.7-5.4l-.1-1 2.7-6.2 1 1.6c1.7 3.5 2.8 7.2 3.1 11Zm-6.4-14.4L81 71.7c-.4-1.5-1-3-1.9-4.3l3.3 1v.1Zm-6.5-.2-.7 2.9-1.4-1.3-.7-.7a5 5 0 0 1 1.6-.9c.4-.2.8-.1 1.2 0Zm-10.7-1.7L64 68.8l-.6.5 1.2-3.1.5.4Zm3.4 2.8-2.9 4.2a31 31 0 0 0-4.5 13.2h-.8v-.4c1.4-4.6 3-9 5-13.4l.8-1.7a42 42 0 0 1 2.5-2ZM57.4 86.2l-.2.6c-2.1 0-4.2.2-6.3.5l5.6-6.5 1.6-1.7c-.4 2.3-.6 4.7-.7 7Zm12 4.7-.5 1.4a9.2 9.2 0 0 0-3.5 3L64 97l-.2.1.1-7 5.5.7Zm-8.8 6c-.2-2.3-.3-4.6-.3-7h.4c-.2 2.4-.2 4.7-.1 7Zm13 6.2c1.7-1.6 3.1-3.5 4.4-5.4v.2l.2.4v.2a17 17 0 0 1-.7 7.8 75 75 0 0 1-6.8 15.3l-.3.5c.8-6.4 1.9-12.7 3.2-19Zm-7.9 8 4.5-4.5a204 204 0 0 0-2.3 14l-2.2-9.5Zm-8 5c-.9-1.5-1.7-3-2.4-4.7 0-1.4.2-2.9.4-4.3l2.8-3c.4 3 1 5.8 1.6 8.6-1 1.1-1.7 2.3-2.5 3.5Zm1.7 3.4v-.2l.3-.7-.3.9ZM56 119l-.8 1.6v-3.3l.8 1.7Zm6 1.3 1.7 5.5v.3l-2.4-3.7.8-2Zm-3.8 2.5-2 5.3-.2-1 1-3 .9-1.8.3.5Zm1.8 2.9a76 76 0 0 0 4 5.4c-.9 1-1.9 1.9-3 2.6-.4.4-1 .6-1.5.8l-.4.2h-.7l-.4.1c-.7 0-1.4-.4-2-1 .5 0 1-.3 1.2-.7l2.8-7.4Zm12.4 8.5 2.3-2.2A60.8 60.8 0 0 0 88 111.8l7.2-5.6c-.2 2.1 0 4.2-.4 6.4-.4 2.4-1.3 4.7-2.6 6.8a53.9 53.9 0 0 1-18 18.1l-.7-.6-1.2-2.6Zm8.4 2.1a56 56 0 0 0 11-11c3.2-3.8 5.3-8.4 6.1-13.4l.2-3.2.2-3.6v-1h.1c.7-.1 1.3-.6 2-.8.5-.1 1-.2 1.6-.1 1.7 0 2.2-1.5 2.2-2.9l1.3.5v5.9c-.6 9.7-2.3 19.3-5.1 28.6a34.8 34.8 0 0 1-9.2 8.8c-5.1-.4-10-2.2-14.3-5 1.4-.8 2.7-1.8 4-2.8Zm27-23.5a50 50 0 0 1-1.4 9.2l-.1.6c.6-3.3 1-6.6 1.4-9.8Zm-9.9 30-.3 1.1-1 .1 1.3-1.1ZM66.4 141c-1 .3-2 .4-3 .5l3-2.3v1.8Zm11.7 2.3c1.8 1 3.6 1.7 5.5 2.3l1.7.5c-1.6.1-3.1-.1-4.5-.7-.8-.5-1.5-1-2.2-1.7l-.5-.4Zm14 3.8h2.4c-1.4.5-2.9.8-4.4.9l2-.9Zm-14.5.2a18.3 18.3 0 0 0 17.6 3.1 117 117 0 0 1-4.5 9.8 56.4 56.4 0 0 1-4 6.8 164.5 164.5 0 0 1-12.8-22.6c1 1.2 2.3 2.1 3.7 3Zm46.6-34.7c0-1.1 0-2.3-.2-3.4l1.5.9-1.3 2.5Zm-3.4 6.5c-1.4 2.4-2.8 4.8-4.3 7a68 68 0 0 1-13 15.7l-1.1.9-1.9.6a169 169 0 0 0 1.8-5.4 47.2 47.2 0 0 0 8-35v-.2c3.5 1.4 7 3 10.3 4.7l.2.8c.5 3.6.5 7.3 0 11Zm2.6-13.6a43 43 0 0 0-6.1-15.3A218 218 0 0 1 136.7 79c-2.2 9.8-5.5 19.3-10 28.4l-3.3-2ZM108.5 80a55.5 55.5 0 0 0-5-4.1l-2-4.9c-2-5.6-5.1-10.7-9.1-15.2a122 122 0 0 1 5.5-8 40 40 0 0 1 8.5 2.4 24.5 24.5 0 0 1 16.1 18.3 19.7 19.7 0 0 1-7.2 19c-2-2.7-4.3-5.2-6.8-7.5ZM90.2 54a12.7 12.7 0 0 0-7.4-2.9l.6-2.7h.2c3.6-1 7.3-1.3 11-1-1.6 2.1-3 4.3-4.4 6.5Zm-10.5-2.5a16 16 0 0 0-5.9 3.4c-1.2 1-2.3 2.1-3.3 3.4l-1.2-.4a27 27 0 0 1 10.8-8.3l-.4 1.9ZM79 55l-1.4 6.2-4.1-1.8c1.5-1.8 3.4-3.3 5.5-4.4Zm-27.2 1.6-1.4.4c-2 .8-3.9 2-5.4 3.5l1.4-3.3 1.5-3.6 4 3Zm1.5 3.3c.8-.2 1.7-.4 2.5-.4l1.8 1.3c-3.8.2-7.5 1.2-10.9 2.9 1.7-2 4-3.3 6.6-3.8ZM42 85.2a75 75 0 0 0 1 4c-2 .7-3.9 1.6-5.7 2.8-.1-3.5.1-7 .7-10.3a22 22 0 0 1 2.4-7.1c.1 3.6.7 7.2 1.6 10.6Zm5.1 6.2.4-.4a44 44 0 0 1 8.8-1c-1.3 5.2-2.5 10.5-3.3 15.9v.5a237.6 237.6 0 0 1-5.9-15Zm32.7 82a4 4 0 0 1-2.8.2 6.8 6.8 0 0 1-3-2.3 25 25 0 0 1-4.4-11.9c-.7-4.5-1-9.2-.8-13.8v-2.3l1.2-.4a162.1 162.1 0 0 0 15 26.4 13 13 0 0 1-5.1 4.2Zm70-34.6c1.3 6.4.7 13.1-1.8 19.2-2.6 6.8-6.7 13-12 18.2a34 34 0 0 1-17.7 9.6 31.9 31.9 0 0 1-30.2-16.6h.1a63 63 0 0 0 6.4-11.1l.2-.1c10.2-6 20.4-12 30.2-18.7 6.4-4.3 12.5-8.9 18.5-13.7 3 3.9 5.2 8.4 6.3 13.2Zm2.8-66.2 5.7-1.8 5.8-2a52.2 52.2 0 0 1 9.1-2h2.7c1.7.1 3.3.7 4.6 1.7a8.7 8.7 0 0 1 2.8 4.5c.5 1.7.5 3.4.2 5.1-.3 2-1 3.7-1.8 5.4-2 3.9-4.7 7.4-7.7 10.6-2.8 3-5.8 6-8.8 8.9l-10.5 10c-3.3 3.2-6.7 6.1-10.2 9a62.1 62.1 0 0 0-13.1-11.6l-2.2-1.4c4.6-9.5 8.1-19.6 10.4-30l.3-1.4c4.1-2 8.4-3.6 12.7-5Zm-47.5-26.1a44 44 0 0 0-5-1.4l2.5-3.1c3-3.7 6.4-7 10-10.2 2.8-2.9 6.7-4.6 10.8-4.7 4.2.9 7.8 3.8 9.5 7.7a63.5 63.5 0 0 1 5.7 27.7 84 84 0 0 1-1.5 14c-5.1 2.6-10.2 5.4-15 8.4a25 25 0 0 0 2.3-21.6A30.1 30.1 0 0 0 105 46.5ZM61.1 28A214 214 0 0 1 74.3 8.6 25 25 0 0 1 79.6 4l1.5-.5h1.2l.3.2h.1v.1l.4.3.2.2c.7 1 1.2 2 1.4 3.3.4 3.1.5 6.3 0 9.5a278.1 278.1 0 0 1-3.9 28.8 30.7 30.7 0 0 0-14.5 10.9l-.2.3a43.6 43.6 0 0 0-9.7-1.2l-6.7-5-.5-.3a220 220 0 0 1 11.9-22.5Zm-46 85.1-1.5.1H13l-.8-.1-1-.2-.4-.2-.7-.3-.5-.3-.3-.2-1-.7-.3-.4-.3-.2-.8-1-.7-1.2-.1-.2-.4-.8-1-2.8-.2-.7-.1-.6-.3-1.6a39.9 39.9 0 0 1-.6-9.2l.1-1.8A88.2 88.2 0 0 1 14 54.3l1-1.6.4-.8.2-.2.3-.4c1.2-1.9 2.6-3.7 4.2-5.3l.5-.5h.2l.2-.3 1.1-1 1.2-.7.5-.3h.1l.3-.2 1.1-.5.6-.1.3-.1h.1c2-.4 4-.2 6 .5 4.4 2 8.4 4.6 12 8l1.2 1c-3 6.7-5.6 13.6-7.9 20.6l-.2.4a28.7 28.7 0 0 0-2.8 8.8l-.2 1.7c-1.2 4.5-2.2 9-3.1 13.5a24.9 24.9 0 0 0-5.9 11.3l-1.2 1c-2.7 2-5.8 3.4-9.2 4Zm12.3 2.2c.2-1.7.4-3.4.8-5.1l1.2-1c-.9 6.3-1.5 12.6-1.8 19-.4-4.3-.5-8.6-.2-12.9Z"/>
    </svg>
    <svg id="2" viewBox="0 0 196 182">
        <path id="2" fill="currentcolor" d="M192.8 56.1a12 12 0 0 0-7.8-3.7 47 47 0 0 0-19.9 3.7l-5.2 2 7.9-6.6a2.3 2.3 0 0 0-1.8-4c-5.1 1-9.9 3.2-14 6.4-4.8 3-9.2 6-14 9.4l-1.8 1.4 8.6-13.7c2.6-4.3 5.1-8.6 7.8-12.8l5.4-8.8c2-3.4 3.7-7 5-10.8a14 14 0 0 0 .3-9.5 8.3 8.3 0 0 0-10-3.7 40 40 0 0 0-13.6 7.5l-5.1 4.2c-.6-2.9-1.7-5.6-3.2-8A23 23 0 0 0 108 .5a65.4 65.4 0 0 0-33.4 15.9l-4.5-2a68 68 0 0 0-29-6.3A27 27 0 0 0 19.3 19a24.3 24.3 0 0 0-2.6 18.8 70 70 0 0 0 8.5 19.9c2.3 3.8 4.7 7.6 7.4 11.2-4.8 8.6-8.9 17.6-12 26.9a38 38 0 0 0-1.8 6.6c-1.7 2.2-3.2 4.4-4.8 6.7a138.3 138.3 0 0 0-12.5 22.4c-1 2-1.2 4.1-.6 6.2 1.4 3.7 6.4 3 9.4 2.2A277.7 277.7 0 0 0 59 121l-.7 2.5L57 128v.4c-3.4 3.7-6.8 7.6-10 11.6-.6 1-.5 2.1.2 3 .8 1 2.3 1.1 3.3.3a346 346 0 0 0 29.8-24.5l3.7-3.4c3.5 2 7 4 10.6 5.8-12.5 19.2-24.7 38.6-38.4 57a2.2 2.2 0 0 0 2 3.4 8 8 0 0 0 4.4-1.9 2.1 2.1 0 0 0 .1-3.1c12.6-17.4 24-35.6 35.6-53.7 4.8 2.2 9.8 4 14.9 5.6 7 2.2 14.3 3 21.7 2.5a33 33 0 0 0 7.6-1.5c-.1 1.8 2.8 2 3 .2l.3-1.6c2.6-1.3 4.7-3.3 6-5.8 2.6-5.6 2.6-12-.1-17.5l.4-.2a130.3 130.3 0 0 0 31.8-21.4c5.7-4.5 9.7-11 11.3-18.1.5-3.2-.4-6.5-2.4-9Zm-169 51.5-.2-.2-.3-.4-.2-.5-.2-1.2v-.9A261.4 261.4 0 0 1 42.7 81c3.8 4.1 7.7 8 11.8 11.8l-5.3 4a81 81 0 0 1-13.9 8.2c-2.2 1-4.5 1.9-6.9 2.5l-1.7.3-1.1.1-1.2-.1c.4 0-.8-.4-.5-.2Zm31-19.8a211 211 0 0 1-9.4-9.5 144 144 0 0 1 11.8-10.4l-.4 3c-.7 6.3 0 12.5 1.9 18.5l-1.2 1-2.7-2.6ZM80 23.3c2.7 1.5 5.3 3 7.8 4.8h-.3a43 43 0 0 0-19 14.6c-4.5 5.6-7.8 12-9.9 18.8-5.6 4.2-11 8.7-16 13.7l-5.3-6.4a199.9 199.9 0 0 1 27.3-37.6c3.5-3.7 7.1-7.1 11-10.4l4.4 2.5Zm44 25.5a33.2 33.2 0 0 0-10.7-3.6l-.6-.7c6-6.8 12-13.6 18.6-19.9a60.8 60.8 0 0 1-6.4 22.3l-.8 1.9Zm4.7 9.2a15.2 15.2 0 0 1 2.7 7.4l-1.2 1.9c-2-3.3-4.1-6.5-6.4-9.6l1.7-3c1.2.9 2.3 2 3.2 3.3Zm-.3 39-.3.8-.8 2-.3.5-.5.7-.6.7-.4.4c-.4.4-.9.8-1.4 1v.2l-.3.1-1 .4-.7.4-.7.2-1.7.4-1.9.2h-.6a25 25 0 0 1-5.4-.7h-.6l-.1-.1-.6-.2 11.2-17c2-1 4-2.2 5.7-3.6h.1l.3 1a33 33 0 0 1 1 6.9v2.3c0 .8-.1 1.7-.3 2.5v.6l-.1.3Zm-25 4.2-.6-.3h-.2l-1-.6-.5-.3 8-7 1-.7 3.8-2.4 1.7-.5-8.9 13.4-3.4-1.6ZM84.1 109H84l2.9-2.5-2.8 2.5ZM62.6 63.8c9.4-7 20-11.8 31.4-14.2l2.5-.4a48.7 48.7 0 0 1-4.3 7.1c-5.5.8-10.3 4.1-13.2 8.9-1.1 2.3-1.7 5-1.6 7.5l-4 3.9c-3.6 3.3-7.3 6.4-11 9.6v-.4a44.8 44.8 0 0 1 .2-22Zm20.6-29 .3-.1.5-.3 1-.6a32.4 32.4 0 0 1 6.8-2.5h.4c2.4 1.7 4.8 3.6 7 5.6l.1.8c.1 2.4-.2 4.8-1 7.1l-3.5.5c-10.7 2-21 6-30 12a55 55 0 0 1 14.6-19.7c1.2-1 2.5-1.9 3.8-2.7ZM82 76.7v-.1l-.1-.4-.4-2c4.6-4.4 8.9-9.1 12.7-14.1l1.2-.1-5 6.6-1 1.2-1.2.6a11.4 11.4 0 0 0-5.8 9v.1h-.1l-.3-.8Zm.1-8.6a11 11 0 0 1 5.5-6 78.2 78.2 0 0 1-5.5 6Zm9.2 3.6.4-.2.6-.1c1.7-.4 3.4-.5 5.1-.2a41 41 0 0 1 11 2.5c-3.5 4.6-7.2 9-11 13.3l-1.2-.1-2-.4-.6-.2-1-.3c-1.3-.4-2.5-1-3.7-1.5l-.2-.1-.3-.2-.8-.4-.5-.4-.4-2v-1l-.1-.5V78l4.6-6.3h.1ZM105 87.2h-2.6l1.7-2c2.9-3.3 5.6-6.6 8.2-10.1 2.3 1 4.6 2 6.7 3.2a299 299 0 0 0-14 8.9Zm-6.2 4h.3l-.8.6.5-.5Zm-9.1-2c1.4.5 2.9 1 4.4 1.3l-2 2a30 30 0 0 1-2.4-3.3Zm33-13.8-.4-.2a83.8 83.8 0 0 0-7.3-3.7l2.4-3.5c2.2 2 4.2 4.3 6 6.9l-.7.5ZM111.2 70a55 55 0 0 0-16.4-3.3l5.2-6.9c3.4.3 6.7 1.3 9.7 3 1.6.7 3.2 1.7 4.6 2.8l-3.1 4.4Zm-29 14.5 1.1 1a29 29 0 0 0 5.8 10.1l-8.6 8.8-3 1.6h-.2l-1-.7c-1.3-.8-2.5-1.6-3.6-2.6l-.8-.7-.3-.2a198 198 0 0 1 10.5-17.3Zm45.3-13-1 .7a40.6 40.6 0 0 0-6.8-7.7l2-3.2.4.6c2 2.8 4 5.8 5.9 8.8l-.5.8ZM116.6 62c-4-3-8.7-5-13.7-6l.5-.5 5.6-6.8 3 .4a151 151 0 0 1 7.2 8.7l-2.6 4.2Zm-15.5-9.5-2.5 3.2h-1.4a48 48 0 0 0 3.8-7l3.5-.2-3.4 4ZM77.8 77.7l.2-.3c.4 1.4 1 2.6 1.7 3.8-4 5.7-7.6 11.6-11 17.6L67 96.4l-.6-.8-.4-.8a35 35 0 0 1-2.2-4.5c4.8-4 9.4-8.3 14-12.6Zm43.4-23.3-2.9-3.6 1.1.4 2.8 1.3-1 1.9Zm-18.7-9.9c.3-1.3.6-2.7.7-4.1 1.5 1.3 3 2.7 4.3 4.2a55 55 0 0 0-5 0Zm-29.6 64.1-6 3.3 2.6-5.8c1 .9 2.2 1.7 3.4 2.5Zm24.9 2.8a63 63 0 0 1-8.2-1l8.2-7.4c2 1.3 4.2 2.5 6.5 3.4l-3.4 5.1-3.1-.1Zm.2 4.6-1.2 1.8-4.5-2.3c1.9.3 3.8.4 5.7.5Zm10-8.2c5 1.7 10.4 2 15.4.5A14.8 14.8 0 0 0 133 95c.2-2.5.2-5.1-.2-7.6a69 69 0 0 1 5.6 5.2 91 91 0 0 1 3.1 11.3 149.8 149.8 0 0 1-23.7 6.2c-3.4.5-6.9 1-10.4 1.2h-1.8l2.4-3.6Zm36-8.3c.7 1 1.3 1.9 1.8 2.9l-1 .4-.7-3.3Zm-13-18.8-.2-.6 1.5-1.9 2.5 5.3-3.7-2.8Zm9.6-64.3 3.6-2.7 1.6-1.1.8-.6.4-.2.4-.3c2-1.2 4-2.2 6.2-2.9h.3l.7-.2 1.4-.2h1.4l.3.1 1 .4.2.1.5.4h.1l.1.2.4.4.2.3.1.2.2.4.1.4c.4 3-.2 6.1-1.6 8.8-1.5 3.6-3.3 7-5.4 10.4l-4.8 7.6a858.4 858.4 0 0 1-14.1 22.6 19.9 19.9 0 0 0-7.3-9.7c3-5.8 5.2-12 6.7-18.3.9-3.7 1.2-7.6 1-11.4l5.5-4.7Zm-50-5.9a55 55 0 0 1 15-5.5c4.8-1.2 9.7-1.1 14.4.1 3.4 1 6.3 3.3 8.2 6.3A20.6 20.6 0 0 1 131 20c-7 6.7-13.8 13.6-20.1 21l-.8.9a90.7 90.7 0 0 0-7.2-6.7 9.6 9.6 0 0 0-5.7-7.6 9 9 0 0 0-4.6-.6c-4.5-3.3-9.3-6.1-14.2-8.7 3.8-3 7.8-5.6 12-7.9ZM19.4 31.7a19 19 0 0 1 1.3-8.5 17 17 0 0 1 5.8-7 33.4 33.4 0 0 1 26.3-3.7A81.6 81.6 0 0 1 71.7 19 149.8 149.8 0 0 0 54 37.2a202.7 202.7 0 0 0-19.4 28c-3.3-4.4-6.3-9.1-9-14a48 48 0 0 1-6.2-19.5Zm8 57.5c2.3-5.8 5-11.4 7.9-16.9l1.1 1.4L40 78a205.1 205.1 0 0 0-14.2 15.9l1.7-4.6ZM5.2 135.8c.2.3 0 .1 0 0Zm28-8.4a218 218 0 0 1-17.7 6.2l-5.2 1.5-2.6.6-1.2.1H5.2v-.2c.4-2.3 1.2-4.5 2.4-6.4a123 123 0 0 1 12-20.3 6 6 0 0 0 1.7 2 8 8 0 0 0 5.5 1.1c2.5-.3 5-1 7.3-2a106.2 106.2 0 0 0 21.1-12.7l2.3-1.7.1.1c2.9 2.6 5.8 5 8.9 7.5-2 3.8-3.7 7.6-5.3 11.6a316 316 0 0 1-27.8 12.6Zm35.1-11.3-2.2 2.2-2.9 2.8 1-2.8 4.1-2.2Zm2.6 4.6 8.6-8 .3.1-.9.8-8 7.1Zm69.2 5.1-.3.1-1.2.3a33.6 33.6 0 0 1-7.5.8 57.5 57.5 0 0 1-22.6-4.3c-2.7-1-5.4-2-8.1-3.2l2-3 .2-.4a127.5 127.5 0 0 0 39.8-7.6 79 79 0 0 1 .6 16.2h-.1l-2.3 1-.5.1Zm9-8-.1.3-.2.5-.4 1-.1.4-.2.3-.7 1-.6.7-.5.6c.2-5.1 0-10.2-.8-15.3l2.1-.8c.8 2 1.4 4.2 1.7 6.4.2 1.6.1 3.3-.2 4.9Zm41.3-56.6.1.3.2.7V64c0 .7 0 1.4-.2 2v.4l-.2.6-.4 1-1 2.2-.2.3-.3.5-.7 1a55.4 55.4 0 0 1-9.4 10.2 121.6 121.6 0 0 1-16.1 12l-.7.5h-.1l-.3.3-1.8 1a92 92 0 0 1-9.6 4.8c-.8-1.4-1.6-2.8-2.5-4-1.9-2.9-4-5.5-6.5-7.9-1.6-4.3-3.5-8.5-5.6-12.6l8.4-5.8a425.8 425.8 0 0 1 22-9.7 102 102 0 0 1 4.8-1.6l1.2-.4h.2l.6-.2 2.6-.7a43.3 43.3 0 0 1 7.1-1h1.9l2 .4.4.1 1 .4.4.2.7.4.6.5.5.5.4.6.3.6.2.7Z"/>
    </svg>
    <svg id="3" viewBox="0 0 196 182">
        <path id="3" fill="currentcolor" d="M3.3 125.5a12 12 0 0 0 7.8 3.7c6.8.2 13.6-1 19.8-3.7l5.3-2-8 6.6a2.3 2.3 0 0 0 1.8 4c5.1-1 10-3.2 14-6.4 4.8-3 9.3-6 14-9.4l1.8-1.4-8.6 13.7c-2.6 4.3-5 8.6-7.7 12.8-1.9 2.9-3.7 5.8-5.4 8.8a59 59 0 0 0-5 10.8c-1.3 3-1.4 6.4-.4 9.5a8.3 8.3 0 0 0 10.1 3.7 40 40 0 0 0 13.6-7.5l5-4.2c.6 2.9 1.7 5.6 3.2 8A23 23 0 0 0 88 181a65.4 65.4 0 0 0 33.4-15.9l4.5 2a68 68 0 0 0 29.1 6.3c8.5 0 16.5-4 21.6-10.7a24.3 24.3 0 0 0 2.6-18.8c-1.7-7-4.6-13.7-8.4-19.9-2.3-3.8-4.8-7.6-7.5-11.2A162 162 0 0 0 175.4 86a38 38 0 0 0 1.8-6.6l4.7-6.7a138.4 138.4 0 0 0 12.6-22.4c1-2 1.1-4.1.5-6.2-1.4-3.7-6.4-3-9.4-2.2A277.7 277.7 0 0 0 137 60.7l.8-2.5 1.2-4.6v-.4c3.5-3.7 6.8-7.6 10-11.6.6-1 .6-2.1-.1-3-.9-1-2.4-1.1-3.4-.3a346 346 0 0 0-29.7 24.5l-3.8 3.4c-3.4-2-7-4-10.6-5.8 12.5-19.2 24.7-38.6 38.5-57a2.2 2.2 0 0 0-2.1-3.4 8 8 0 0 0-4.3 1.9 2.1 2.1 0 0 0-.2 3.1c-12.6 17.4-24 35.6-35.5 53.7-4.9-2.2-9.9-4-15-5.6-7-2.2-14.3-3-21.6-2.5-2.6.2-5.2.7-7.7 1.5.2-1.8-2.7-2-3-.2l-.3 1.6a14.4 14.4 0 0 0-6 5.8c-2.6 5.6-2.5 12 .2 17.5l-.4.2a130.3 130.3 0 0 0-31.8 21.4c-5.8 4.5-9.8 11-11.4 18.1-.5 3.2.4 6.5 2.5 9ZM172.2 74l.3.2.2.4.3.5.2 1.2v.9a261 261 0 0 1-19.9 23.4 217 217 0 0 0-11.7-11.8l5.2-4a75.5 75.5 0 0 1 20.8-10.7l1.7-.3 1.2-.1 1.2.1c-.5 0 .7.4.5.2Zm-31 19.8c3.3 3 6.4 6.2 9.4 9.5-3.7 3.7-7.6 7.2-11.7 10.4l.4-3c.6-6.3 0-12.5-2-18.5l1.2-1 2.8 2.6ZM116 158.3c-2.6-1.5-5.2-3-7.7-4.8l.3-.1a43 43 0 0 0 19-14.5c4.5-5.6 7.8-12 9.8-18.8 5.7-4.2 11-8.7 16-13.7l5.3 6.4a199.3 199.3 0 0 1-27.3 37.6 131 131 0 0 1-10.9 10.4l-4.5-2.5Zm-44-25.5a33.3 33.3 0 0 0 10.7 3.6l.7.7A284 284 0 0 1 64.8 157a60 60 0 0 1 6.3-22.3l.9-1.9Zm-4.7-9.2a15.2 15.2 0 0 1-2.7-7.4l1.2-1.9c2 3.3 4.2 6.5 6.5 9.6l-1.7 3c-1.3-.9-2.3-2-3.3-3.3Zm.4-39 .2-.9.8-1.9.3-.5.6-.7.5-.7.4-.4 1.4-1 .1-.2.3-.1.9-.5.8-.3.6-.2 1.7-.4a19 19 0 0 1 2-.2h.5a25.7 25.7 0 0 1 5.5.7h.5l.2.1.5.2a8415 8415 0 0 1-11.2 17c-2 1-4 2.2-5.7 3.6l-.3-1a32 32 0 0 1-1.1-6.9V88l.3-2.5.1-.6v-.3Zm25-4.2.6.3h.2l1 .6.4.3-8 7-.9.7-3.8 2.4-1.7.5 8.8-13.4 3.4 1.6Zm19.1-7.7h.2l-3 2.5 2.8-2.5Zm21.7 45-.1.2a80.6 80.6 0 0 1-31.4 14l-2.5.5c1.3-2.5 2.7-4.9 4.3-7.1 5.6-.8 10.4-4.1 13.2-8.9 1.2-2.3 1.8-5 1.7-7.5l4-3.9c3.5-3.3 7.2-6.4 10.9-9.6v.4l.7 2.8a44.7 44.7 0 0 1-.8 19.2Zm-20.6 29-.3.2-.6.3-1 .6a32.5 32.5 0 0 1-6.7 2.5h-.5a129 129 0 0 1-7-5.6l-.1-.8c0-2.4.3-4.8 1-7.1a81.4 81.4 0 0 0 33.5-12.5 55 55 0 0 1-14.6 19.7 39 39 0 0 1-3.7 2.7ZM114 105v.1l.2.4.3 2c-4.6 4.4-8.8 9.1-12.7 14.1l-1.1.1 5-6.6.9-1.2 1.3-.6c3.3-1.9 5.4-5.2 5.7-9l.1-.1.3.8Zm-.1 8.6a11 11 0 0 1-5.5 6c1.8-2.1 3.6-4.1 5.5-6Zm-9.2-3.6-.3.2-.7.1a14 14 0 0 1-5 .2c-3.9-.3-7.6-1.2-11.1-2.5 3.5-4.6 7.2-9 11.1-13.3l1.1.1 2 .4h.1l.5.2 1 .3c1.3.4 2.6 1 3.7 1.5l.2.1.3.2.8.4.5.4.4 2 .1 1v2.4l-4.6 6.3ZM91.1 94.4h2.6l-1.8 2a215 215 0 0 0-8.2 10.1c-2.3-1-4.5-2-6.7-3.2 4.8-2.8 9.5-5.8 14-8.9Zm6.1-4H97l.7-.6-.5.5Zm9.2 2c-1.5-.5-3-1-4.4-1.3l1.9-2c.9 1 1.7 2.1 2.5 3.3Zm-33 13.8.4.2c2.3 1.3 4.8 2.6 7.3 3.7l-2.5 3.5c-2.2-2-4.2-4.3-5.9-6.9l.7-.5Zm11.4 5.4a55 55 0 0 0 16.4 3.3l-5.2 6.9a33.7 33.7 0 0 1-14.3-5.7l3.1-4.5Zm29-14.5-1-1a28.5 28.5 0 0 0-6-10.1l8.7-8.8 3-1.6h.2l1 .7c1.3.8 2.5 1.6 3.7 2.6l.8.7.2.2c-3.2 6-6.7 11.7-10.5 17.3Zm-45.2 13 .9-.7a40.6 40.6 0 0 0 6.9 7.7l-2 3.2-.5-.6c-2-2.8-4-5.8-5.9-8.8l.6-.8Zm10.8 9.4c4 3 8.8 5 13.7 6l-.4.5-5.6 6.8-3-.4c-2.5-2.8-5-5.7-7.2-8.7l2.5-4.2ZM95 129l2.5-3.2h1.4a48 48 0 0 0-3.9 7l-3.4.2 3.4-4Zm23.3-25.1-.3.3c-.4-1.4-1-2.6-1.6-3.8a214 214 0 0 0 10.9-17.6l1.8 2.4.5.8.4.8a35 35 0 0 1 2.2 4.5c-4.8 4-9.4 8.3-14 12.6Zm-43.5 23.3 3 3.6-1.2-.4-2.8-1.3 1-1.9Zm18.8 9.9a24 24 0 0 0-.8 4.1l-4.3-4.2h5ZM123.2 73l6-3.3c-.8 2-1.7 4-2.7 5.8-1-.9-2.1-1.7-3.3-2.5Zm-25-2.8c2.8.2 5.5.5 8.2 1a2871 2871 0 0 1-8.1 7.4 41.2 41.2 0 0 0-6.6-3.4l3.4-5.1 3.2.1Zm-.1-4.6 1.1-1.8 4.5 2.3c-1.8-.3-3.7-.4-5.6-.5ZM88 73.8a25 25 0 0 0-15.3-.5A14.8 14.8 0 0 0 63 86.5c-.3 2.5-.2 5.1.2 7.6-2-1.6-4-3.4-5.7-5.2a91 91 0 0 1-3.1-11.3 149 149 0 0 1 23.7-6.2c3.5-.6 7-1 10.4-1.2h1.9L88 73.7ZM52 82l-1.8-2.9 1-.4.8 3.3Zm13 18.8.2.6-1.4 1.9c-1-1.8-1.8-3.5-2.6-5.3l3.8 2.8Zm-9.6 64.3c-1.1 1-2.3 1.8-3.5 2.7l-1.7 1.1-.8.6-.4.2-.4.3c-1.9 1.2-4 2.2-6.1 2.9H42l-.7.2-1.3.2h-1.5l-.2-.1-1-.4-.3-.1-.5-.4-.2-.2-.4-.4-.2-.3c.2.3 0-.1 0-.2l-.2-.4-.2-.4c-.4-3 .2-6.1 1.6-8.9a73 73 0 0 1 5.4-10.3c1.6-2.5 3.3-5 4.8-7.6A853.4 853.4 0 0 1 61.3 121a19.9 19.9 0 0 0 7.2 9.7c-2.9 5.8-5.2 12-6.7 18.3-.9 3.7-1.2 7.6-1 11.4l-5.5 4.7Zm50.1 5.9a55 55 0 0 1-15.2 5.5 28.9 28.9 0 0 1-14.3-.1c-3.4-1-6.3-3.3-8.2-6.3a20.5 20.5 0 0 1-2.9-8.7c7.1-6.7 13.8-13.6 20.1-21l.9-.9c2.3 2.3 4.7 4.6 7.1 6.7a9.6 9.6 0 0 0 5.8 7.6 9 9 0 0 0 4.6.6c4.5 3.3 9.2 6.1 14.1 8.7-3.8 3-7.8 5.6-12 7.9Zm71-21.2a17 17 0 0 1-7.1 15.5 33.4 33.4 0 0 1-26.3 3.7 81.5 81.5 0 0 1-18.7-6.4c6.3-5.6 12.2-11.7 17.5-18.3 7.3-8.8 13.8-18.2 19.5-28 3.3 4.4 6.2 9.1 8.9 14a48 48 0 0 1 6.3 19.5Zm-8-57.5h.1c-2.4 5.8-5 11.4-8 16.9l-1-1.5a146 146 0 0 0-3.5-4 207.8 207.8 0 0 0 14.3-16l-1.8 4.6Zm22.3-46.6c-.3-.3-.1-.1 0 0Zm-28.1 8.4c5.8-2.3 11.8-4.4 17.8-6.2l5.1-1.5a29 29 0 0 1 2.6-.6l1.2-.1h1.4v.2c-.4 2.3-1.2 4.5-2.3 6.4a123 123 0 0 1-12 20.3 6 6 0 0 0-1.7-2 8 8 0 0 0-5.6-1.1c-2.5.3-5 1-7.3 2a58 58 0 0 0-7.1 3.4c-5 2.7-9.6 5.8-14 9.3l-2.2 1.7-.2-.1a183 183 0 0 0-8.8-7.5c2-3.8 3.7-7.6 5.2-11.6a316 316 0 0 1 27.9-12.6Zm-35.1 11.3 2.2-2.2 2.9-2.8-1 2.8-4.1 2.2Zm-2.5-4.6c-2.9 2.7-5.7 5.4-8.7 8l-.2-.1.8-.8a860 860 0 0 1 8-7.1Zm-69.3-5.1.3-.1 1.2-.3a33.5 33.5 0 0 1 7.6-.8 57.5 57.5 0 0 1 22.5 4.3c2.8 1 5.5 2 8.1 3.2l-2 3-.1.4A127.5 127.5 0 0 0 53.6 73a79.1 79.1 0 0 1-.6-16.2l2.4-1 .4-.1Zm-9 8 .2-.3.1-.5.4-1 .2-.4.1-.3.7-1 .6-.7.6-.6c-.3 5.1 0 10.2.7 15.3l-2 .8c-.9-2-1.4-4.2-1.7-6.4-.3-1.6-.2-3.3.2-4.9ZM5.6 120.4l-.1-.3-.1-.7-.1-1v-.7c0-.7 0-1.4.2-2l.1-.4.2-.6.4-1c.2-.8.6-1.5 1-2.2l.1-.3.3-.5.7-1.1 1.6-2.3c2.3-2.9 5-5.5 7.8-7.9a121.7 121.7 0 0 1 16.2-12l.6-.4h.1l.4-.3 1.8-1a92.4 92.4 0 0 1 9.6-4.8l2.4 4c2 2.9 4.1 5.5 6.5 7.9 1.6 4.3 3.5 8.5 5.6 12.6l-8.4 5.8a424.1 424.1 0 0 1-22 9.7 101 101 0 0 1-4.8 1.6l-1.2.4h-.2l-.6.2-2.6.7a43.4 43.4 0 0 1-7 1H12l-2-.4-.5-.1-1-.4-.4-.2-.7-.4-.6-.5-.4-.5-.4-.6-.3-.6-.3-.7Z"/>
    </svg>
</svg>
