<svg xmlns="http://www.w3.org/2000/svg" viewBox="0 0 364 364">
    <defs>
        <style>
            use:not(:target) {
                display: none;
            }
        </style>
        <path id="1" d="M89.8 340.5c-2.8-19-7.1-37.8-10-56.8a396.2 396.2 0 0 1 2.2-51.5 466 466 0 0 1 2.6-21.8l5.4-5.2a190 190 0 0 0 6.3 27 102.2 102.2 0 0 0 15 31.2 40.9 40.9 0 0 0 17.3 13.8 211.9 211.9 0 0 1-9.8 6.3c-2.2 1.4 0 4.6 2.3 3.3l12.7-8 2 .2c3.4.4 6.8.2 10.2-.5-.1 5 0 9.9.1 14.8a94.7 94.7 0 0 0 3.9 24.8 30.7 30.7 0 0 0 11.2 17.2c8 5 16-.7 21.5-7 3.3 4.5 7 8.7 10.8 12.7a69 69 0 0 0 20.3 14.8 49.2 49.2 0 0 0 21.2 4.4 59.8 59.8 0 0 0 35-13.7 95.2 95.2 0 0 0 25.6-31.3 75.8 75.8 0 0 0 9.2-36.7 64.3 64.3 0 0 0-14-37c4.5-3.7 8.8-7.4 13-11.2a600.9 600.9 0 0 0 21.8-20.8c5.1-5 10.4-9.9 15.4-15 5.8-5.8 11-12.2 15.5-19a40.5 40.5 0 0 0 7.1-20.8 20.7 20.7 0 0 0-9.4-18.2 30.4 30.4 0 0 0-21-1.5 168.1 168.1 0 0 0-22 6.7c-3.6 1.3-7.2 2.3-10.8 3.5a197.7 197.7 0 0 0-13.8 5.3L281 153a167.3 167.3 0 0 0 2-21.7c.5-9.7-.3-19.5-2.4-29-3.4-14.8-8.4-33.5-23.6-40.2-15.9-7-31 8.3-41 18.6a190.5 190.5 0 0 0-14.4 16.8 69.8 69.8 0 0 0-23 1 556.1 556.1 0 0 0 4-24.7 155 155 0 0 0 2-16V57l.1-1.3.4-3.5c.7-6 1-12 .8-18 .2-5.5-1.8-11-5.6-15a12.3 12.3 0 0 0-15.1.8A57 57 0 0 0 152 34a140.4 140.4 0 0 0-5 7.3l-1.7 2.5v.1l-.8 1.1-2.2 3.4a414.7 414.7 0 0 0-31.4 56.9C99.5 95.8 86.5 84 71.3 87.9a35.6 35.6 0 0 0-17.6 13 102.9 102.9 0 0 0-14.2 24.6 163.4 163.4 0 0 0-13.4 61.7c-.4 8.6.9 17.2 3.7 25.3a24 24 0 0 0 13.6 14.7 31.3 31.3 0 0 0 27-5.6 137 137 0 0 0 .3 30.2 534.1 534.1 0 0 0 4.6 35.3 185 185 0 0 0 9.9 54.5 2.4 2.4 0 0 0 4.6-1Zm-9.6-134.1v.1-.3.2Zm35.8 54.9a91.8 91.8 0 0 1-14.9-30.6 181.3 181.3 0 0 1-6.4-30.5l11-11.8 1-1a333.9 333.9 0 0 0 9 22l3.2 7.1a25.3 25.3 0 0 0-1.6 9.8 2 2 0 0 0 3.2 1.5c0 6 .4 12.1 1.3 18.1a25.4 25.4 0 0 0-1.2 12.7 10.8 10.8 0 0 0 12.6 8.8c4.8-1.3 9.1-4 12.3-7.8l.8.8.3.8-.1 2.2a191.3 191.3 0 0 1-12.7 10.1 33.1 33.1 0 0 1-17.8-12.2Zm-29.9-60.6.9-4.8 1.6-1.5.2 2.6.1.8-2.8 2.9Zm7.8-8.2-.2-2.4a51.3 51.3 0 0 1 3.6-2.3l2-1.2-5.4 6Zm19.9-54.9c2-1 4.2-1.8 6.4-2.4a38 38 0 0 1 6.4-1.5 70.9 70.9 0 0 1 11.6-.6l.3.2a96.3 96.3 0 0 0-5.4 16.3 282.6 282.6 0 0 0-9.5 10.3l-12 13.8-2.4 2.6a91 91 0 0 1-4.2-26c0-2.4.2-4.8.7-7.1.9-.9 1.8-1.6 2.8-2.3l2.7-1.8 1.4-.9.5-.3.7-.3Zm170.5 104.2-1.7 1.4a616.5 616.5 0 0 1-52.4 37.4 809.5 809.5 0 0 1-30.5 18.7 369.7 369.7 0 0 0 3.3-8l1.3-3.4a60.9 60.9 0 0 0 11.3-7.4 45 45 0 0 0 3.7-1.7A58 58 0 0 0 247 248a65 65 0 0 0 3.6-13.4 391.8 391.8 0 0 0 7.7-15 122.3 122.3 0 0 1 22.4 18 77 77 0 0 1 3.7 4.2Zm-153.1-41.3-3 2.6.4-1.6c.5-3 1.2-5.9 1.8-8.8l.8 7.8Zm14.9-1.5-2.2 6.3a37.4 37.4 0 0 1 2-6l.2-.3Zm7.2-6 4.2-1.6a390.3 390.3 0 0 0-2.2 9l-2.7 2.8-4.1 4 4.8-14.2Zm40.3-50.5-9-4.2-1.7-1.1c2.5-4.9 5.1-9.7 8-14.3a57.7 57.7 0 0 1 5.2 6.8 107.3 107.3 0 0 1 10.4 20 169 169 0 0 0-12.9-7.2Zm-41.7-7.7.1-.3h.2l-.3.3Zm22.3-3-2.7-1.5a646.7 646.7 0 0 0 3.6-15.5 15.4 15.4 0 0 1 4 .4 19.2 19.2 0 0 1 5.8 2.5l2 1.5a230.6 230.6 0 0 0-8.3 15.1l-4.4-2.6Zm-26.5-4.1.1-.3 2 .6-2.1-.3Zm-5.5-1.7-.7 1h-1.8l-2.5-1.9 3.4.6 1.6.3Zm17 114.5 17-13.2a117.5 117.5 0 0 1-21.3 28.3c-.6-1.7-1.3-3.5-1.8-5.3 2.2-3.2 4.2-6.5 6.1-9.8Zm3-5.3.1-.4a98.5 98.5 0 0 0 11.6-31c1-4.9.2-10-2-14.3l-1-1.4.3-.8 3.2-.6 2.8.7 9.9 2.7c-.4 3.5-1 7-1.6 10.3a97.7 97.7 0 0 1-6.7 21.5L162 235.2Zm.3-43.6.2-.7.3-1.1.6.2-1 1.6Zm-5.9-8.8.1-.1h.5l-.6.1Zm48.5 6.3 1.6 1.2c-4.5-1.5-9-2.9-13.6-4.2v-.6l5.2.8 1.4.4.6.2h.2l2.7 1.1 1.1.6.8.5Zm1.4-5.1a45 45 0 0 0 8.3 1.8l2 5.3v1l-1.4 1.2-1.3-.5c-1.3-3.8-4-7-7.6-8.8Zm-46-32.1a769.4 769.4 0 0 1-7 24.3 142.8 142.8 0 0 0-11-1.4c.4-3.4 1.1-6.8 2.1-10.1a53.9 53.9 0 0 1 10-18.2l6 5.4Zm6.8-5a35.2 35.2 0 0 1 1.3 5l-2.1-2 .8-3Zm26 33.6V178a79.1 79.1 0 0 0 7.1 3.6 41 41 0 0 0-7-1.1Zm-5.7-.2c-3.8.1-7.5.4-11.2 1l-2.8-.7a55.1 55.1 0 0 0 1.8-15.5 149.7 149.7 0 0 0 12.1 9.2l.1 6Zm-19.3-1-2.1-.5c1.2-4 2.5-7.8 3.9-11.6a48.6 48.6 0 0 1-1.8 12Zm-7-1.6-2.9-.6a887 887 0 0 0 6.4-21.3l2.6 2.3.5.5a278 278 0 0 0-6.6 19Zm31.3 14a399 399 0 0 1 17.2 5.6v.2l-2.6 2h-.7c-1.3.4-2.4 1.3-3.7 1.7h-.5l-1.8.6a4.5 4.5 0 0 0-1.6 4.1l-11.5 9.1c2.6-7.5 4.3-15.3 5.2-23.3Zm30.6-.3A562.2 562.2 0 0 1 234 184a76.6 76.6 0 0 1 9.4 21 243.2 243.2 0 0 0-18.6-8.2 96 96 0 0 0-1.5-5.4Zm-1-3.2-.8-2.1 1.9-.1 2.6-.4-3.7 2.6Zm7.5-9.4a27.8 27.8 0 0 1-9 1.9 132.5 132.5 0 0 0-3.7-16 91.4 91.4 0 0 1 13.2 14l-.5.2ZM211.4 164l1.4 4.6a104 104 0 0 0-11-14.8c2.7 1.7 5.4 3.5 8 5.4l1.6 4.8Zm-18.7-10.8a95.7 95.7 0 0 1 19.5 26.8 61.5 61.5 0 0 1-19.1-8.4 72.8 72.8 0 0 0-4.4-22c1.4 1.1 2.7 2.3 4 3.6Zm-5.7 14.3a166.1 166.1 0 0 1-12.2-10l-.3-1.9a284.5 284.5 0 0 1 5-11.2 26.3 26.3 0 0 1 1.8 3 57.6 57.6 0 0 1 5.7 20ZM175.3 141l-2.6 5.7a26.4 26.4 0 0 0-3.4-7.7v-.1l6 2Zm-11.8-.3-1.3 5.1-2.6-2.3-1.3-1.2c1-.7 1.9-1.3 3-1.7a2.9 2.9 0 0 1 2.2 0Zm-19.5-3.2-2 4-1.1.9c.6-2 1.3-3.8 2.1-5.7l1 .8Zm6.2 5 .1.1c-2 2.5-3.7 5.3-5.4 7.7a56 56 0 0 0-8.3 24h-1.3v-.8a199.4 199.4 0 0 1 9-24.3l1.5-3.2a76.4 76.4 0 0 1 4.4-3.4ZM130 173.3l-.4 1.1a94.1 94.1 0 0 0-11.6 1l10.3-11.9 2.8-3.1c-.6 4.3-1 8.6-1.1 13Zm21.7 8.6-.8 2.6a19 19 0 0 0-6.5 5.3 29.5 29.5 0 0 0-2.4 3.4l-.3.3a111 111 0 0 1 0-12.9c3.4.3 6.7.8 10 1.3Zm-16 10.9a151 151 0 0 1-.5-12.6h.8a108 108 0 0 0-.3 12.6Zm23.8 11.4a73.2 73.2 0 0 0 8-9.9l.1.4.2.7.1.3v.1c.7 4.8.2 9.7-1.5 14.2a135.1 135.1 0 0 1-12.3 27.8l-.5.9a367.3 367.3 0 0 1 6-34.5h-.1Zm-14.4 14.5v-.1c2.6-2.8 5.3-5.4 8-8a371.5 371.5 0 0 0-4 25.5 366.7 366.7 0 0 1-4-17.4Zm-14.8 9.2a264.6 264.6 0 0 1-4.3-8.6l1-7.9a41.4 41.4 0 0 1 5-5.3c.7 5.2 1.7 10.4 2.8 15.6a64.6 64.6 0 0 0-4.5 6.2Zm3.3 6-.1-.2.7-1.3-.6 1.6Zm-6.3-.6-1.5 2.9a108.2 108.2 0 0 1-.2-6l1.7 3Zm11 2.3c.9 3.4 1.8 6.8 2.9 10.1l.2.5a135.7 135.7 0 0 1-4.6-6.8l1.4-3.8Zm-7 4.6-3.7 9.5-.3-1.7a56 56 0 0 1 1.9-5.4l1.5-3.4.6 1Zm3.2 5.2a137.6 137.6 0 0 0 7.3 10 33.4 33.4 0 0 1-5.4 4.6 11 11 0 0 1-2.8 1.5l-.8.3-.5.1-.6.1h-.8a5 5 0 0 1-3.6-1.7 2.3 2.3 0 0 0 2-1.4l5.2-13.5Zm22.5 15.5a161 161 0 0 0 4.2-4 110.6 110.6 0 0 0 24.4-36.9l13.2-10.3c-.4 4-.2 7.8-.7 11.6a37 37 0 0 1-4.8 12.4 85.7 85.7 0 0 1-17.4 21.5 98.1 98.1 0 0 1-15.2 11.5l-1.4-1a84.7 84.7 0 0 1-2.2-4.7v-.1Zm15.4 4a102 102 0 0 0 20-20.1c5.7-7 9.6-15.4 11-24.4.3-2 .3-3.9.4-5.9l.3-6.6v-1.6h.3c1.3-.4 2.4-1.2 3.6-1.6 1-.2 2-.3 3-.2 3-.1 4-2.7 4-5.3l2.3.9c0 3.5 0 7.1-.2 10.7-1 17.7-4 35.1-9.2 52a63.3 63.3 0 0 1-9.5 10.9c-2.2 2-4.6 3.8-7.2 5.3a57.5 57.5 0 0 1-26-9c2.5-1.7 5-3.4 7.2-5.2Zm49-43a80 80 0 0 1-2.4 16.7l-.3 1.1a203.5 203.5 0 0 0 2.6-17.8Zm-17.8 54.8-.7 1.9-1.8.2 2.5-2Zm-57.5-3.4a31 31 0 0 1-5.5.9l5.6-4.2-.1 3.3Zm21.4 4.1a60.6 60.6 0 0 0 10 4.3l3 .8c-2.8.2-5.6-.2-8.2-1.1a30.7 30.7 0 0 1-4-3.2l-.8-.8Zm25.3 7h4.4a31.4 31.4 0 0 1-7.8 1.6 35.4 35.4 0 0 0 3.4-1.6Zm-26.2.4a33.3 33.3 0 0 0 20.6 7.3 33 33 0 0 0 11.3-1.7 212.8 212.8 0 0 1-8.1 18 102.8 102.8 0 0 1-7.3 12.2 299.3 299.3 0 0 1-12.4-20 284.8 284.8 0 0 1-11-21.1 30 30 0 0 0 6.9 5.3Zm84.8-63.2a76 76 0 0 0-.4-6.2l2.7 1.6-2.3 4.6Zm-6.3 11.9a259 259 0 0 1-7.7 12.8 126 126 0 0 1-23.8 28.4l-2 1.6-3.3 1.1a292 292 0 0 0 3.2-9.7 81.4 81.4 0 0 0 9.2-16.2 86 86 0 0 0 5.5-47.4l-.1-.6a231.5 231.5 0 0 1 18.8 8.6l.2 1.6c1 6.5 1 13.2 0 19.8Zm4.9-24.9a78.8 78.8 0 0 0-1.8-7 79.8 79.8 0 0 0-9.5-20.7 418 418 0 0 1 11-7 290.6 290.6 0 0 1 24.4-13.4 235.1 235.1 0 0 1-18 51.6l-6.1-3.5Zm-27-46.3a101 101 0 0 0-9.2-7.5 184.4 184.4 0 0 0-3.5-8.9 85.3 85.3 0 0 0-16.7-27.6c3.2-5 6.5-9.9 10-14.6a72.6 72.6 0 0 1 15.6 4.3 44.5 44.5 0 0 1 29.2 33.3 36 36 0 0 1-13.1 34.7 102.5 102.5 0 0 0-12.3-13.7Zm-33.3-47.5a23.1 23.1 0 0 0-13.5-5.1l1-4.9.5-.1a59.7 59.7 0 0 1 19.9-1.7c-2.8 3.8-5.4 7.8-8 11.8Zm-19.1-4.4a29.3 29.3 0 0 0-10.7 6.1 51.2 51.2 0 0 0-6 6.2l-2.2-.7a49 49 0 0 1 19.6-15.1l-.7 3.5Zm-1.3 6.2-2.6 11.4a123.5 123.5 0 0 0-7.5-3.3 31.5 31.5 0 0 1 10-8.1Zm-49.5 2.9-2.5.8a26.2 26.2 0 0 0-10 6.3l2.6-6 2.7-6.5 7.2 5.4Zm2.7 6a28.3 28.3 0 0 1 4.5-.8l3.3 2.5a51.4 51.4 0 0 0-19.8 5.2 22 22 0 0 1 12-7ZM102 171.4l2 7.2a56.2 56.2 0 0 0-10.5 5 87.9 87.9 0 0 1 1.2-18.6 44.7 44.7 0 0 1 4.4-13 88.7 88.7 0 0 0 3 19.4Zm9.3 11.2.6-.6a79.4 79.4 0 0 1 16.2-2 268.4 268.4 0 0 0-6 29l-.1.9a432.9 432.9 0 0 1-7.5-18.5l-3.2-8.8ZM170.7 332a7.8 7.8 0 0 1-5 .3 12.3 12.3 0 0 1-5.5-4.3 45.7 45.7 0 0 1-8-21.5 147.7 147.7 0 0 1-1.3-25.2v-4.2l2.1-.8a295.3 295.3 0 0 0 11.2 22.4c4.8 8.9 10.1 17.5 15.9 25.8a23.9 23.9 0 0 1-9.4 7.5Zm127.4-63a60.3 60.3 0 0 1-3.2 35 92.4 92.4 0 0 1-21.8 33 61.8 61.8 0 0 1-32.3 17.6 58 58 0 0 1-54.9-30.2l.1-.2a114.4 114.4 0 0 0 11.6-20.1l.4-.2a812.5 812.5 0 0 0 55-33.9 537 537 0 0 0 33.7-25.1 64.9 64.9 0 0 1 11.5 24Zm5.1-120.4c3.5-1.2 7-2.2 10.3-3.4l10.6-3.6a95.1 95.1 0 0 1 11-2.9c1.9-.3 3.7-.6 5.6-.7h4.9c3 .2 6 1.3 8.4 3a15.8 15.8 0 0 1 5 8.3c1 3 1 6.2.5 9.3a33.7 33.7 0 0 1-3.4 9.8 87 87 0 0 1-13.9 19.2 351.2 351.2 0 0 1-16.1 16.2c-6.4 6-12.5 12.4-19 18.4a426.7 426.7 0 0 1-18.7 16.3 113 113 0 0 0-23.8-21.2l-4-2.6a242 242 0 0 0 19-54.4l.5-2.7a218.9 218.9 0 0 1 23.1-9ZM216.8 101a75 75 0 0 0-9.3-2.5c1.5-2 3-3.8 4.7-5.7a151.7 151.7 0 0 1 18.2-18.5 28.7 28.7 0 0 1 19.6-8.5 24.3 24.3 0 0 1 17.4 14 86.6 86.6 0 0 1 7.7 22.3c2 9.2 2.9 18.6 2.6 28-.2 8.6-1 17.2-2.7 25.6a293.2 293.2 0 0 0-27.3 15.3 45 45 0 0 0 4.1-39.3 54.8 54.8 0 0 0-35-30.7Zm-80.1-33.4c4.4-7.3 9.2-14.3 14-21.5a151.9 151.9 0 0 1 10-13.8 45.4 45.4 0 0 1 6.3-6.4 22.8 22.8 0 0 1 3.3-2.2l2.7-1h1.2l1 .2.7.3.2.1.6.5.4.4a13.3 13.3 0 0 1 2.5 6 62 62 0 0 1 .2 17.2 497.7 497.7 0 0 1-1.8 17.7 526.5 526.5 0 0 1-5.4 35 53.7 53.7 0 0 0-26.4 19.6l-.4.5a79.4 79.4 0 0 0-9.3-1.6 52.4 52.4 0 0 0-8.5-.4l-12-9-1-.7a392 392 0 0 1 21.6-40.9ZM53 222.5l-2.8.1h-1l-1.3-.2-1.8-.4-.8-.3-1.2-.5-1-.5-.6-.5L41 219l-.8-.8-.3-.4-1.5-1.9-1.3-2-.3-.5-.6-1.3a39.3 39.3 0 0 1-1.9-5.2l-.3-1.3-.3-1-.5-3a72.6 72.6 0 0 1-.8-6.4 92.1 92.1 0 0 1-.2-10.3l.1-3.3a161 161 0 0 1 5.1-30.9 156.3 156.3 0 0 1 10.6-29l3.3-6.3 1.7-3 .9-1.3.3-.5.4-.7a62 62 0 0 1 7.8-9.6l1-.9.2-.2.3-.3 2.2-1.7 2-1.4 1-.6.2-.1.5-.3 2-.8 1.1-.4.6-.1h.1c3.7-.7 7.5-.4 11 1a77 77 0 0 1 21.7 14.4l2.2 1.8a416 416 0 0 0-14.3 37.7l-.3.6a52.2 52.2 0 0 0-5.1 16l-.5 3.2a362.8 362.8 0 0 0-5.6 24.5 45.3 45.3 0 0 0-5.5 7.7 51.4 51.4 0 0 0-5.1 13l-2.3 1.6a38 38 0 0 1-16.7 7.5Zm22.4 4c.2-3.2.7-6.3 1.3-9.4l2.2-1.7a432.2 432.2 0 0 0-3.2 34.4c-.8-7.8-.9-15.6-.3-23.4Z"/>
        <path id="2" d="M354.5 118.5a21.8 21.8 0 0 0-14.2-6.7 82.3 82.3 0 0 0-36.1 6.7l-9.6 3.6c4.9-3.9 9.7-7.9 14.4-12a4.2 4.2 0 0 0-3.2-7.2 59.3 59.3 0 0 0-25.5 11.5c-8.7 5.7-16.8 11-25.4 17.2l-3.4 2.5a2011 2011 0 0 0 15.7-25c4.8-7.6 9.3-15.5 14-23.2 3.4-5.3 6.8-10.6 10-16a105.4 105.4 0 0 0 9-19.7c2.3-5.5 2.5-11.6.6-17.2a15 15 0 0 0-18.3-6.9A72.8 72.8 0 0 0 257.8 40a221.7 221.7 0 0 0-9.3 7.6 44.5 44.5 0 0 0-5.7-14.7 41.9 41.9 0 0 0-42.5-15.3A119.1 119.1 0 0 0 145 42l-5.6 4.3a206 206 0 0 0-8.1-3.6 123.6 123.6 0 0 0-53-11.4A49.3 49.3 0 0 0 39 50.8 44.1 44.1 0 0 0 34.3 85a122.9 122.9 0 0 0 15.3 36.3 243 243 0 0 0 13.6 20.4 295.1 295.1 0 0 0-22 49 69.3 69.3 0 0 0-3.2 12c-3 4-5.9 8-8.7 12.1A251.8 251.8 0 0 0 12.8 242a161.8 161.8 0 0 0-6.3 13.6 15.5 15.5 0 0 0-1 11.3c2.6 6.7 11.7 5.3 17 4 8.7-2 17.3-5 25.7-7.8a505.4 505.4 0 0 0 62.9-26.5l-1.4 4.5c-.9 2.7-1.6 5.5-2.3 8.3v.7a420.4 420.4 0 0 0-18.1 21.3 4.4 4.4 0 0 0 .2 5.3 4.4 4.4 0 0 0 6 .6 629.6 629.6 0 0 0 54.2-44.7l6.8-6.1c6.3 3.8 12.7 7.3 19.3 10.6-22.7 35-45 70.2-70 103.6a4 4 0 0 0 3.8 6.2 14.5 14.5 0 0 0 7.9-3.3 3.9 3.9 0 0 0 .3-5.8c22.9-31.6 43.6-64.7 64.7-97.6a211 211 0 0 0 27.1 10.2 107.9 107.9 0 0 0 39.5 4.5 59 59 0 0 0 14-2.8c-.4 3.4 5 3.9 5.5.4l.4-3a26.3 26.3 0 0 0 11-10.4 37.2 37.2 0 0 0-.3-31.9l.7-.3a176.8 176.8 0 0 0 27.2-15 237.1 237.1 0 0 0 30.7-23.9 58.5 58.5 0 0 0 20.7-33 21.2 21.2 0 0 0-4.5-16.4ZM47 212.3l-.5-.4h-.1l-.5-.6v-.1l-.4-.8v-.2l-.3-2.1v-1.7a476 476 0 0 1 25.4-31c3.5-4 7-7.8 10.7-11.6a363.5 363.5 0 0 0 21.4 21.5 302.9 302.9 0 0 1-9.6 7.2 147.6 147.6 0 0 1-25.3 15 68.4 68.4 0 0 1-12.6 4.5l-3 .6-2.1.2-2.2-.2c.8.1-1.4-.7-.9-.4Zm56.2-36a378.7 378.7 0 0 1-17-17.4c6.8-6.7 14-13 21.4-19a82.1 82.1 0 0 0 2.8 39.3l-2.2 1.7-5-4.7Zm46-117.5c4.8 2.8 9.5 5.7 14.1 8.8l-.6.2A78.2 78.2 0 0 0 128.2 94a101.7 101.7 0 0 0-17.9 34.3 260.6 260.6 0 0 0-29 24.8c-3.4-3.8-6.6-7.7-9.7-11.7a363.7 363.7 0 0 1 11.6-19.3 339 339 0 0 1 38-49 238.6 238.6 0 0 1 20-19l8.1 4.5Zm80.1 46.4a60.5 60.5 0 0 0-5.7-2.6 72 72 0 0 0-13.8-3.8l-1.2-1.3a516.6 516.6 0 0 1 33.9-36.2 110.6 110.6 0 0 1-11.5 40.5l-1.6 3.4ZM238 122a27.7 27.7 0 0 1 5 13.5l-2.3 3.4a249.6 249.6 0 0 0-11.7-17.3l3.1-5.7a32.4 32.4 0 0 1 5.9 6.1Zm-.7 71-.4 1.5c-.4 1.3-1 2.4-1.5 3.6v.1l-.5.8-1 1.3-1 1.3-.8.7a20 20 0 0 1-2.4 2l-.3.1-.4.3-1.7.8-1.4.6-1.2.4-3.1.6-3.5.4h-1a49.3 49.3 0 0 1-10-1.1l-.9-.2h-.1l-.2-.1-1-.3 20.3-31a56 56 0 0 0 10.5-6.5h.1l.5 1.7a59.9 59.9 0 0 1 2 12.6v1.9a37.7 37.7 0 0 1-.6 7l-.2 1-.1.5Zm-45.5 7.7-1-.5-.2-.1-.2-.1-1.8-1-.8-.5 14.6-12.8 1.6-1.3 7-4.3 3.1-.9-16.1 24.3a75.7 75.7 0 0 1-6.2-2.8Zm-34.8 14-.3-.1 5.3-4.4-5 4.5Zm-39.4-82.1.2-.1a146.7 146.7 0 0 1 57-25.7l4.6-.7a88.5 88.5 0 0 1-7.9 12.9 33.5 33.5 0 0 0-24 16.1 28 28 0 0 0-3 13.7l-7.3 7c-6.4 6-13.1 11.8-19.7 17.5l-.2-.6-1.1-5.1a81.4 81.4 0 0 1-1.4-12.4c-.2-7.6.7-15.2 2.8-22.6ZM155 79.8l.6-.3 1-.6 1.9-1a59 59 0 0 1 4.3-2 29.5 29.5 0 0 1 7.9-2.5l.8-.1a230.7 230.7 0 0 1 12.8 10.2l.1 1.5a34 34 0 0 1-1.9 13l-6.4.8a148 148 0 0 0-54.5 22 100.5 100.5 0 0 1 8.7-16.3 89 89 0 0 1 17.8-19.7 71.2 71.2 0 0 1 6.9-5Zm-2.1 75.9v-.1l-.3-.8a27 27 0 0 1-.6-3.6 230.6 230.6 0 0 0 23.1-25.6l2.1-.3c-3 4-6.2 8-9.2 12.2l-1.6 2-2.3 1.1a20.7 20.7 0 0 0-10.4 16.4l-.2.3-.6-1.6Zm.2-15.5a20.2 20.2 0 0 1 3.4-5.6c1.9-2.2 4.1-4 6.7-5.2-3.2 3.7-6.6 7.3-10 10.8Zm16.7 6.4.7-.2 1.1-.3c3-.6 6.2-.8 9.3-.4a79.5 79.5 0 0 1 20.1 4.7 405 405 0 0 1-20.2 24.2l-2-.3-3.6-.7h-.3l-.8-.3-2-.6a44.7 44.7 0 0 1-6.7-2.7l-.3-.2-.5-.3-1.5-.9-1-.6-.6-3.6-.2-1.9v-4.3l8.3-11.5h.2Zm24.9 28.5h-.6l-2 .1H190l3.2-3.7a390.3 390.3 0 0 0 15-18.5 121 121 0 0 1 12.2 5.8 535.6 535.6 0 0 0-25.6 16.3Zm-11.2 7.4h.4l-1.3 1 .9-1Zm-16.7-3.8c2.6 1 5.3 1.8 8 2.4l-3.4 3.7a54.7 54.7 0 0 1-4.6-6Zm60-25-.7-.5c-4.2-2.4-8.7-4.6-13.2-6.6l4.4-6.4a67.5 67.5 0 0 1 10.8 12.4l-1.2 1Zm-20.8-10a100.2 100.2 0 0 0-21.6-5.5c-2.7-.4-5.5-.5-8.2-.5l9.4-12.5a46.3 46.3 0 0 1 17.7 5.3 61.5 61.5 0 0 1 8.4 5.2 317.6 317.6 0 0 1-5.7 8Zm-52.9 26.4 2.2 2a51.9 51.9 0 0 0 10.6 18.3 864.8 864.8 0 0 1-15.7 16l-5.4 3-.4-.2-2-1.2a60.5 60.5 0 0 1-6.5-4.6l-1.5-1.3-.4-.4a360.1 360.1 0 0 1 19.1-31.6Zm82.5-23.6-1.6 1.3a78 78 0 0 0-12.5-14 293.3 293.3 0 0 0 3.6-5.9l.8 1a256.1 256.1 0 0 1 10.7 16.2l-1 1.4Zm-19.7-17a61.1 61.1 0 0 0-25-11l.9-1c3.3-4 6.7-8.2 10.2-12.2 1.8.1 3.5.4 5.3.7a265.7 265.7 0 0 1 13.3 15.8l-4.7 7.6Zm-28.3-17.3-4.6 5.7h-2.5a87.2 87.2 0 0 0 7-12.8c2-.2 4.1-.2 6.2-.2l-6 7.3Zm-42.5 45.6.6-.5a30.2 30.2 0 0 0 3 7 379.5 379.5 0 0 0-19.9 31.9 59.2 59.2 0 0 1-3.3-4.4l-1-1.5-.8-1.3a63.4 63.4 0 0 1-3.9-8.2 603.9 603.9 0 0 0 25.4-23Zm79.1-42.4a274.4 274.4 0 0 0-5.2-6.5l2 .7 5 2.3-1.8 3.5Zm-34-18a43.8 43.8 0 0 0 1.3-7.5c2.6 2.5 5.3 5 7.8 7.6-3-.2-6.1-.2-9.2 0Zm-54 116.7-11 5.9c1.6-3.6 3.2-7.1 5-10.6a63 63 0 0 0 6 4.7Zm45.3 5c-5-.3-9.9-1-14.8-2l15-13.3a80.7 80.7 0 0 0 11.7 6.3l-6 9.2a124.5 124.5 0 0 1-5.8-.2Zm.5 8.4-2.1 3.2a243.2 243.2 0 0 1-8.3-4.1c3.5.5 7 .8 10.4 1Zm18.3-15a46 46 0 0 0 28 1 27 27 0 0 0 17.5-24c.5-4.7.4-9.3-.3-13.9 3.6 3 7 6.2 10.3 9.5a167.8 167.8 0 0 1 5.6 20.5 234.8 234.8 0 0 1-43.1 11.3 193 193 0 0 1-19 2.2l-3.3.1 4.3-6.6Zm65.5-15a66.5 66.5 0 0 1 3.2 5.2l-1.8.8-1.4-6Zm-23.6-34.2-.4-1.1 2.6-3.4a224 224 0 0 1 4.6 9.6 152 152 0 0 0-6.8-5.1Zm17.3-117a153 153 0 0 1 6.5-5l3-2 1.5-1 .7-.5.7-.4a51.3 51.3 0 0 1 11.2-5.3l.7-.2 1.2-.3 2.5-.3h2.6l.5.2 1.9.7.4.2.9.7.2.2.1.1.7.8.4.6.2.3.3.7.3.8c.7 5.5-.3 11.1-3 16a132.7 132.7 0 0 1-9.8 18.8c-2.8 4.7-5.9 9.3-8.7 14a1557.6 1557.6 0 0 1-25.8 41 36.2 36.2 0 0 0-6-10.7 37.4 37.4 0 0 0-7.2-6.8 154.5 154.5 0 0 0 12.2-33.3 72.5 72.5 0 0 0 1.8-20.8 247.9 247.9 0 0 1 10-8.5Zm-91-10.7A99.8 99.8 0 0 1 196 25.4a53.6 53.6 0 0 1 26 .3A26.9 26.9 0 0 1 237 37a37.3 37.3 0 0 1 3.7 8.5 44.7 44.7 0 0 1 1.4 7.6 493.6 493.6 0 0 0-36.6 38l-1.4 1.7c-4.2-4.3-8.6-8.3-13-12.3a17.6 17.6 0 0 0-10.5-13.8 19.5 19.5 0 0 0-8.4-1 213.7 213.7 0 0 0-25.8-15.8 152.7 152.7 0 0 1 22-14.3ZM39 74a35.6 35.6 0 0 1 2.4-15.4A31 31 0 0 1 52 45.9a60.8 60.8 0 0 1 48-6.7 148.4 148.4 0 0 1 34 11.6A272.6 272.6 0 0 0 102.2 84a369 369 0 0 0-35.3 51.2 209 209 0 0 1-16.3-25.7A87.2 87.2 0 0 1 39.1 74Zm14.5 104.6A335 335 0 0 1 68 148l2 2.6 6.2 7.5a351.3 351.3 0 0 0-7.7 8.2A502.6 502.6 0 0 0 50.3 187a227.3 227.3 0 0 1 3.3-8.3Zm-40.4 84.8c.5.6.2.3 0 0Zm51.2-15.2A413.7 413.7 0 0 1 32 259.5c-3.6 1-6.3 2-9.4 2.8a57 57 0 0 1-4.7 1l-2.2.3h-1.4l-.9-.1-.2-.1v-.4c.7-4 2.1-8 4.2-11.5a223.8 223.8 0 0 1 15-26.7 317.3 317.3 0 0 1 7-10.3 11 11 0 0 0 3 3.6c3 2 6.5 2.7 10 2.1a50.5 50.5 0 0 0 13.4-3.7c4.4-1.7 8.7-3.7 13-6a192.8 192.8 0 0 0 25.4-17l4-3.2.3.2a332.7 332.7 0 0 0 16 13.7 235.3 235.3 0 0 0-9.4 21 575.2 575.2 0 0 1-50.7 23Zm63.8-20.6-4 4-5.3 5 1.8-5 7.5-4Zm4.6 8.3a443.8 443.8 0 0 1 15.8-14.6l.4.3-1.5 1.4-14.7 13Zm126 9.4-.5.1-2.2.5c-1.5.4-3.1.7-4.7.9a72.7 72.7 0 0 1-9 .6 104 104 0 0 1-19.2-1.7 136.2 136.2 0 0 1-21.8-6.1 207.5 207.5 0 0 1-14.8-6l3.5-5.4.4-.6c5.8 0 11.6-.4 17.3-1a232.1 232.1 0 0 0 55.1-12.8 140.1 140.1 0 0 1 1.2 29.5h-.3a36.5 36.5 0 0 1-4.1 1.7l-.9.3Zm16.4-14.7-.2.7-.3 1-.7 1.8-.3.6-.3.5-1.3 1.8-1 1.4-1 1h-.1c.5-9.3 0-18.6-1.4-27.8l3.9-1.5a51.3 51.3 0 0 1 3 11.7c.4 3 .3 6-.4 8.8Zm75.2-103 .2.7.2 1.2.2 2v1.1a23.9 23.9 0 0 1-.5 3.8l-.1.6-.3 1-.7 1.9a36.3 36.3 0 0 1-1.8 4l-.3.5-.6 1-1.2 1.9a64.5 64.5 0 0 1-3 4.1 101 101 0 0 1-14 14.5 221.3 221.3 0 0 1-16.2 12.6 485 485 0 0 1-13.3 9.2l-1.3.8-.1.1-.6.4-3.3 1.9a204.7 204.7 0 0 1-17.5 8.7 88.4 88.4 0 0 0-4.5-7.4A95.9 95.9 0 0 0 260 178a205 205 0 0 0-10.1-23c5.1-3.4 10.2-7 15.3-10.6a775.3 775.3 0 0 1 25.5-11.5 302.8 302.8 0 0 1 23.3-9l2.1-.7h.4l1-.4 4.8-1.2a69 69 0 0 1 8.9-1.5 49.8 49.8 0 0 1 4-.3h1.2l2.2.1 3.5.5h.1l.8.3 1.8.6.8.4 1.3.8 1 .9.9 1 .7 1 .6 1 .5 1.3Z"/>
        <path id="3" d="M9.6 244.7a21.8 21.8 0 0 0 14.2 6.7 82.3 82.3 0 0 0 36.1-6.6 257.3 257.3 0 0 0 9.6-3.7 510.1 510.1 0 0 0-14.4 12 4.2 4.2 0 0 0 3.2 7.3A59.3 59.3 0 0 0 83.8 249c8.7-5.7 16.8-11 25.4-17.2l3.4-2.5-15.8 25c-4.7 7.6-9.2 15.5-14 23.1-3.4 5.4-6.7 10.7-9.8 16.1a106.2 106.2 0 0 0-9.1 19.6 24.8 24.8 0 0 0-.7 17.3 15 15 0 0 0 18.4 6.8 72.8 72.8 0 0 0 24.6-13.8c3.2-2.4 6.3-4.9 9.3-7.5a44.5 44.5 0 0 0 5.7 14.6 41.9 41.9 0 0 0 42.6 15.4 119.1 119.1 0 0 0 55.2-24.5c2-1.4 3.8-2.9 5.6-4.4l8.2 3.7a123.7 123.7 0 0 0 53 11.3 49.3 49.3 0 0 0 39.3-19.5 44.1 44.1 0 0 0 4.7-34 122.9 122.9 0 0 0-15.3-36.3 241.6 241.6 0 0 0-13.6-20.4 295 295 0 0 0 22-49 69.3 69.3 0 0 0 3.2-12c3-4 5.9-8 8.7-12.1a251.8 251.8 0 0 0 16.5-27.2c2.3-4.5 4.4-9 6.3-13.7a15.5 15.5 0 0 0 1-11.2c-2.6-6.7-11.7-5.3-17.1-4-8.6 2-17.2 5-25.6 7.8a505.4 505.4 0 0 0-62.9 26.5l1.4-4.5c.8-2.8 1.6-5.5 2.2-8.3l.1-.7a420.3 420.3 0 0 0 18-21.3 4.4 4.4 0 0 0-.1-5.3 4.4 4.4 0 0 0-6.1-.6 629.6 629.6 0 0 0-54.2 44.6l-6.8 6.2a263.4 263.4 0 0 0-19.3-10.6c22.7-35 45-70.2 70-103.6a4 4 0 0 0-3.8-6.3 14.5 14.5 0 0 0-7.8 3.4 3.9 3.9 0 0 0-.3 5.7c-23 31.7-43.6 64.8-64.7 97.7-8.8-4-17.9-7.4-27.2-10.2a107.9 107.9 0 0 0-39.4-4.5 59 59 0 0 0-14 2.8c.3-3.4-5-3.9-5.5-.5l-.5 3a26.3 26.3 0 0 0-11 10.5 37.2 37.2 0 0 0 .4 31.9l-.7.3c-9.5 4.2-18.6 9.2-27.2 15a237.1 237.1 0 0 0-30.7 23.9 58.6 58.6 0 0 0-20.7 33 21.2 21.2 0 0 0 4.5 16.3ZM317 151.1l.5.3v.1l.5.6.1.1.3.8v.1l.4 2.2v1.5a475.7 475.7 0 0 1-25.4 31c-3.5 4-7 7.8-10.7 11.6a363.7 363.7 0 0 0-21.4-21.5 276 276 0 0 1 9.6-7.3 147.6 147.6 0 0 1 25.2-15 68.4 68.4 0 0 1 12.6-4.5l3.1-.6 2-.1 2.3.2c-.8-.1 1.4.7.9.4Zm-56.3 36c5.8 5.6 11.5 11.4 17 17.3a272 272 0 0 1-21.3 19 82.1 82.1 0 0 0-2.8-39.2l2.2-1.8 5 4.7Zm-46 117.4c-4.7-2.7-9.4-5.6-14-8.7l.6-.2a78.2 78.2 0 0 0 34.6-26.4 101.7 101.7 0 0 0 17.8-34.3 261.4 261.4 0 0 0 29.1-24.8c3.3 3.8 6.6 7.7 9.7 11.6a363.8 363.8 0 0 1-11.6 19.3 339 339 0 0 1-38.1 49.1A238.4 238.4 0 0 1 223 309a230.4 230.4 0 0 1-8.2-4.5Zm-80-46.4c1.8 1 3.7 1.9 5.7 2.6a72 72 0 0 0 13.8 3.9l1.2 1.3a518.5 518.5 0 0 1-33.9 36.2c1.2-14.1 5.1-27.9 11.5-40.5l1.6-3.5Zm-8.5-16.7a27.6 27.6 0 0 1-4.2-9.3 34.3 34.3 0 0 1-.8-4.3l2.2-3.4a249.3 249.3 0 0 0 11.8 17.4l-3.1 5.7a32.4 32.4 0 0 1-6-6.1Zm.6-71 .5-1.6c.4-1.2.9-2.4 1.5-3.5v-.2l.5-.7 1-1.4 1-1.2.7-.8a20 20 0 0 1 2.5-2h.2l.5-.3 1.6-.8 1.5-.6 1.2-.4 3-.7a36.4 36.4 0 0 1 3.5-.3h1.1a49 49 0 0 1 10 1l.9.3h.3l1 .3-20.4 31a57.4 57.4 0 0 0-10.4 6.6l-.1-.1-.5-1.6a59.8 59.8 0 0 1-2-12.7V179a37.7 37.7 0 0 1 .6-7l.2-1 .1-.6Zm45.6-7.7 1 .5h.1l.2.2 1.9 1 .7.5-14.6 12.7-1.5 1.4-7 4.2-3.1 1 16.1-24.3c2.1.8 4.2 1.7 6.2 2.8Zm34.8-14h.2l-5.2 4.5 5-4.5Zm39.4 82-.2.2a146.7 146.7 0 0 1-57 25.6l-4.6.8a88.7 88.7 0 0 1 7.8-12.9 33.5 33.5 0 0 0 24-16.2 28 28 0 0 0 3-13.7l7.4-7c6.4-6 13-11.7 19.7-17.5l.2.6c.4 1.7.8 3.5 1 5.2a81.5 81.5 0 0 1 1.5 12.3 79 79 0 0 1-2.8 22.7ZM209 283.5l-.6.4-1 .5-1.9 1a58.9 58.9 0 0 1-4.3 2.2 29.5 29.5 0 0 1-7.9 2.4l-.9.1a236.2 236.2 0 0 1-12.7-10.2l-.2-1.6c-.1-4.3.5-8.7 2-12.9l6.3-.9a148.1 148.1 0 0 0 54.6-21.9 100 100 0 0 1-8.8 16.3 89 89 0 0 1-17.8 19.7 70.9 70.9 0 0 1-6.8 5Zm2-75.8h.1l.2.9.6 3.6a230.6 230.6 0 0 0-23 25.6l-2.1.2 9.2-12 1.5-2.2 2.4-1a20.7 20.7 0 0 0 10.4-16.5l.2-.3v.1l.6 1.6Zm0 15.3a20 20 0 0 1-3.3 5.6 23.8 23.8 0 0 1-6.7 5.2c3.2-3.7 6.6-7.3 10-10.8Zm-16.6-6.5-.7.3-1.1.2c-3.1.7-6.3.8-9.4.5a79.5 79.5 0 0 1-20-4.7 405.3 405.3 0 0 1 20.2-24.2l2 .3 3.6.7h.2l.9.3 2 .6a44.5 44.5 0 0 1 6.6 2.7l.4.2.5.3 1.4.8 1 .7.7 3.5.2 2v1.3l-.1 3.1a891 891 0 0 1-8.3 11.5h-.1Zm-24.9-28.4h.6l2-.1h2.1l-3.2 3.6a390.3 390.3 0 0 0-15 18.5 120 120 0 0 1-12-5.8 536.4 536.4 0 0 0 25.5-16.2Zm11.2-7.4h-.5l1.4-1-1 1Zm16.6 3.8c-2.6-1-5.3-1.8-8-2.4l3.5-3.7a54.7 54.7 0 0 1 4.5 6Zm-60 25 .7.4c4.3 2.4 8.8 4.7 13.3 6.7a403 403 0 0 0-4.4 6.4 67.6 67.6 0 0 1-10.8-12.5l1.2-1Zm20.9 9.9a100.3 100.3 0 0 0 21.6 5.5c2.7.4 5.4.6 8.2.5a670.5 670.5 0 0 1-9.5 12.5 46.3 46.3 0 0 1-17.6-5.3 61.5 61.5 0 0 1-8.5-5.1 317.7 317.7 0 0 1 5.8-8.1Zm52.8-26.3-2.1-2a51.9 51.9 0 0 0-10.6-18.3 868 868 0 0 1 15.7-16l5.4-3 .4.2 1.9 1.2a60.5 60.5 0 0 1 6.6 4.6l1.4 1.3.4.3a359.9 359.9 0 0 1-19 31.7Zm-82.5 23.6 1.7-1.3a78 78 0 0 0 12.5 14 276 276 0 0 0-3.7 5.8l-.7-1a262.4 262.4 0 0 1-10.7-16l1-1.5Zm19.8 17a61.1 61.1 0 0 0 25 10.9l-.9 1a885 885 0 0 1-10.2 12.3l-5.3-.7a266.1 266.1 0 0 1-13.3-15.9 250 250 0 0 1 4.7-7.6Zm28.3 17.3 4.5-5.7h2.5a87.2 87.2 0 0 0-6.9 12.8l-6.3.2a846.6 846.6 0 0 0 6.1-7.3Zm42.4-45.7-.5.5a30 30 0 0 0-3-6.9 379.5 379.5 0 0 0 19.9-32 59.2 59.2 0 0 1 3.3 4.5l1 1.4.7 1.4a63.9 63.9 0 0 1 4 8.2 603.2 603.2 0 0 0-25.4 23ZM140 248l5.2 6.5-2-.8a47.4 47.4 0 0 1-5-2.3l1.8-3.4Zm34 18a43.8 43.8 0 0 0-1.3 7.5 223.9 223.9 0 0 1-7.8-7.6c3 .2 6 .2 9.1 0Zm54-116.7 10.9-6a233 233 0 0 1-4.8 10.6 71 71 0 0 0-6.2-4.6Zm-45.4-5c5 .3 10 1 14.8 1.9l-14.8 13.3a80.5 80.5 0 0 0-11.9-6.2l6.1-9.2c2 0 3.9 0 5.8.2Zm-.4-8.5 2-3.2a211.1 211.1 0 0 1 8.3 4.2 120.4 120.4 0 0 0-10.3-1Zm-18.3 15a46.1 46.1 0 0 0-28-.9 27 27 0 0 0-17.5 24 53 53 0 0 0 .3 13.9 117.2 117.2 0 0 1-10.3-9.5 165.7 165.7 0 0 1-5.7-20.5 234.8 234.8 0 0 1 43.2-11.4 192.3 192.3 0 0 1 19-2.1l3.3-.2-4.3 6.7Zm-65.6 15a66.4 66.4 0 0 1-3.2-5.2l2-.7 1.2 6ZM122 200l.4 1.1a35.9 35.9 0 0 0-2.6 3.4 203 203 0 0 1-4.7-9.6 151.2 151.2 0 0 0 6.9 5.1Zm-17.4 117c-2 1.7-4.3 3.4-6.5 5l-3 2-1.5 1-.7.5-.7.4a51.3 51.3 0 0 1-11.1 5.3H81l-.6.2-1.2.3-2.5.3H75l-1-.1-.5-.1h-.1l-1.8-.7-.4-.3-1-.7-.1-.1-.1-.1-.8-.8-.4-.6c.4.5 0-.2-.1-.3l-.3-.7-.3-.8c-.7-5.5.3-11.1 2.9-16.1a133.4 133.4 0 0 1 9.8-18.8c2.9-4.7 6-9.2 8.8-13.9a1556 1556 0 0 1 25.7-41 36.2 36.2 0 0 0 6 10.7 37.3 37.3 0 0 0 7.2 6.8 154.4 154.4 0 0 0-12.2 33.3 72.3 72.3 0 0 0-1.8 20.8 257.3 257.3 0 0 1-10 8.5Zm91.1 10.7A100 100 0 0 1 168 338a53.6 53.6 0 0 1-26-.3 26.9 26.9 0 0 1-15-11.4 37.4 37.4 0 0 1-3.8-8.4 44.7 44.7 0 0 1-1.4-7.6 494 494 0 0 0 36.6-38l1.5-1.7a258.8 258.8 0 0 0 13 12.2 17.6 17.6 0 0 0 10.5 13.8 19.5 19.5 0 0 0 8.4 1.2 213 213 0 0 0 25.7 15.7 152.7 152.7 0 0 1-21.9 14.3ZM325 289.1a35.6 35.6 0 0 1-2.5 15.5 31 31 0 0 1-10.4 12.8 60.8 60.8 0 0 1-48 6.7 148.4 148.4 0 0 1-34.1-11.6 272.6 272.6 0 0 0 32-33.3 368.9 368.9 0 0 0 35.3-51.1 209 209 0 0 1 16.2 25.7A87.2 87.2 0 0 1 325 289Zm-14.5-104.5a335 335 0 0 1-14.5 30.7l-2-2.6c-2-2.6-4.2-5-6.3-7.5a398 398 0 0 0 7.8-8.2 502.3 502.3 0 0 0 18.2-20.8c-1 2.8-2 5.6-3.2 8.4Zm40.4-84.8c-.5-.6-.2-.3 0 0ZM299.7 115a413.6 413.6 0 0 1 32.4-11.2c3.5-1 6.3-2 9.4-2.8 1.6-.4 3.1-.8 4.7-1l2.1-.3h1.5l.8.1.3.1v.3a35.3 35.3 0 0 1-4.3 11.6 223.8 223.8 0 0 1-15 26.7 317.3 317.3 0 0 1-6.8 10.2 11 11 0 0 0-3-3.5c-3-2-6.7-2.7-10.2-2.1a50.4 50.4 0 0 0-13.3 3.6 105.3 105.3 0 0 0-13 6.1c-8.9 5-17.4 10.7-25.5 17l-4 3.1-.2-.2a333.3 333.3 0 0 0-16.1-13.6 239.1 239.1 0 0 0 9.5-21 575.2 575.2 0 0 1 50.7-23.1ZM236 135.5l4-4 5.2-5-1.7 5.1-7.5 4Zm-4.7-8.3a452.6 452.6 0 0 1-15.7 14.6l-.4-.2 1.5-1.4 14.6-13Zm-126-9.3.6-.1 2.1-.6 4.8-.8a72.7 72.7 0 0 1 9-.7c6.4 0 12.9.6 19.2 1.7a134.5 134.5 0 0 1 21.8 6.2 207.3 207.3 0 0 1 14.8 5.9L174 135l-.3.5c-5.8 0-11.6.4-17.3 1a232 232 0 0 0-55.1 12.9c-.8-4.8-1.2-9.5-1.5-14.3a116.8 116.8 0 0 1 .3-15.2l.2-.1a36.7 36.7 0 0 1 4.2-1.6l.8-.3ZM89 132.6l.2-.7.3-1 .7-1.8.3-.6.3-.5 1.2-1.9 1.1-1.3 1-1h.1c-.5 9.2 0 18.6 1.3 27.7l-3.8 1.6a51.3 51.3 0 0 1-3-11.7c-.4-3-.3-6 .3-8.8Zm-75.3 103-.1-.7-.3-1.2-.2-2v-1.1a23 23 0 0 1 .5-3.8l.2-.6.3-1 .6-2a36 36 0 0 1 1.8-3.8l.4-.7.6-1 1.2-1.8a65 65 0 0 1 3-4.1 101 101 0 0 1 14-14.5 221.6 221.6 0 0 1 16.1-12.6 484.1 484.1 0 0 1 13.4-9.2l1.2-.8.2-.1.6-.4 3.3-2a203.9 203.9 0 0 1 17.5-8.6c1.4 2.6 2.9 5 4.4 7.3a95.8 95.8 0 0 0 11.9 14.4 209.4 209.4 0 0 0 10 23L99 218.7a776 776 0 0 1-25.5 11.6l-14.6 6a186 186 0 0 1-8.7 3l-2.1.6h-.3l-.1.1-1.1.3-4.7 1.2a80.9 80.9 0 0 1-13 1.9h-1.2l-2.1-.1-3.6-.5-.9-.3-1.8-.7-.7-.3-1.3-.9-1-.8-.9-1-.7-1-.6-1.1-.5-1.3Z"/>
    </defs>

    <use id="1-white-60" href="#1" fill="white" fill-opacity="0.6"/>
    <use id="2-white-60" href="#2" fill="white" fill-opacity="0.6"/>
    <use id="3-white-60" href="#3" fill="white" fill-opacity="0.6"/>
</svg>
