<svg xmlns="http://www.w3.org/2000/svg">
	<defs>
		<style>
			:root svg:not(:target) {
				display: none;
			}
		</style>
	</defs>
	<svg id="1" viewBox="0 0 200 200">
		<path id="1" fill="currentcolor" d="M37.9 188.5c-1.8-11-4.3-22-6-33-.4-14.4.5-28.7 2.8-42.8l3.3-3c.7 5.2 2 10.5 3.6 15.6 2 6.6 4.9 12.7 9 18.4a24 24 0 0 0 10.1 8l-5.7 3.6c-1.4.8 0 2.7 1.3 2l7.5-4.7H65c2 .3 4.1.2 6-.2l.2 8.7c0 4.9.8 9.7 2.2 14.4a19 19 0 0 0 6.7 10c4.8 3 9.4-.4 12.7-4 2 2.6 4.1 5 6.5 7.4 3.4 3.5 7.4 6.4 11.9 8.5 4 1.8 8.2 2.7 12.6 2.6 7.5-.4 14.9-3.2 20.8-8 6.3-5 11.4-11.1 15-18.2 3.7-6.6 5.5-14 5.5-21.4a36.8 36.8 0 0 0-8.2-21.6c2.6-2 5.1-4.2 7.7-6.5l13-12.1 9-8.7c3.4-3.4 6.4-7.1 9.2-11.2 2.5-3.6 4-7.7 4.2-12a12 12 0 0 0-5.6-10.7 17.3 17.3 0 0 0-12.4-.8 103 103 0 0 0-13 4l-6.5 2c-2.7.9-5.4 1.8-8.1 3l-3.5 1.5c.8-4.3 1.1-8.5 1.3-12.7.3-5.7-.2-11.4-1.4-17-2.1-8.5-5-19.4-14-23.2-9.5-4.3-18.3 4.7-24.3 10.8-3 3-5.9 6.3-8.6 9.7-4.5-.5-9.1-.4-13.6.6 1.4-7.9 2.6-15.8 3.5-23.7v-.4l.1-.8.2-2c.6-3.5.7-7 .6-10.5 0-3.2-1.1-6.3-3.3-8.8a7.3 7.3 0 0 0-9 .6c-3 2.2-5.7 4.8-7.8 8l-3 4.1-1 1.5-.4.8-1.3 1.9a234.4 234.4 0 0 0-18.6 33.2C43.6 46 35.9 39 26.9 41.4c-4.2 1.3-7.9 4-10.5 7.4A59.7 59.7 0 0 0 8 63.3a94 94 0 0 0-8 36c-.2 5 .6 10 2.2 14.8 1.4 3.8 4.3 7 8 8.5 5.7 1.4 11.6.2 16.1-3.2-.6 5.8-.5 11.6.1 17.5a340 340 0 0 0 2.8 20.7 107 107 0 0 0 5.9 31.7c0 .3.3.7.6.9a1.5 1.5 0 0 0 2-.5c.2-.3.3-.7.2-1v-.2ZM32 110.4v-.1Zm21.2 32a53 53 0 0 1-8.8-17.8 90.4 90.4 0 0 1-3.7-17.8l6.4-7 .7-.6a162 162 0 0 0 5.4 13l1.8 4.1a14.6 14.6 0 0 0-1 6.5 1 1 0 0 0 1.3.5c.2 0 .4-.2.6-.4 0 3.5.2 7 .7 10.6-.8 2.4-1 5-.6 7.4.3 1.7 1.3 3 2.7 4 1.4 1 3.2 1.3 4.8 1a14 14 0 0 0 7.2-4.6l.5.6.2.4-.1 1.4c-2.4 2-5 4-7.6 5.8-4.3-1-7.8-3.7-10.5-7.1Zm-17.7-35.3.5-2.8 1-1 .1 1.7v.4l-1.6 1.7Zm4.6-4.8v-1.4l2-1.4 1.3-.6-3.3 3.4Zm11.9-32c2.4-1.2 5-2 7.5-2.3 2.3-.3 4.6-.4 6.8-.4l.2.1a63.6 63.6 0 0 0-3.2 9.6l-5.4 6-7.1 8-1.4 1.6c-1.6-5-2.4-10.1-2.5-15.3 0-1.4.1-2.8.5-4 .5-.6 1-1.1 1.6-1.4l1.6-1 .7-.5.5-.2.3-.2H52ZM152.9 131l-1.1.8a365.5 365.5 0 0 1-49 32.8l2-4.8.8-2c2.3-1 4.6-2.6 6.6-4.3l2.2-1a34.1 34.1 0 0 0 18.5-25.7l4.6-8.7c5.7 3.6 10.9 8 15.4 13Zm-90.7-24-1.7 1.5.1-1 1-5 .6 4.5Zm8.9-1-1.3 3.7c.2-1.2.6-2.4 1.2-3.5v-.2Zm4.3-3.5 2.4-.8-1.3 5.2-1.7 1.6-2.3 2.4 2.8-8.4ZM99 73.1c-1.7-.8-3.5-1.7-5.4-2.4l-.9-.6 4.7-8.4c1.2 1.2 2.1 2.6 3.2 4 2.4 3.7 4.5 7.6 6 11.7-2.4-1.5-5-3-7.5-4.3H99Zm-24.4-4.5h.1ZM88 66.9l-1.5-.9 2.1-9c2 0 4 .6 5.7 1.7l1.2.9-5 8.8-2.5-1.5Zm-16-2.4.2-.2 1.1.3H72Zm-3.2-1-.3.6h-1l-1.6-1 2 .2 1 .2ZM79 130.3l10-7.7A65.1 65.1 0 0 1 76.6 139l-1.1-3.2a55 55 0 0 0 3.6-5.7v.1Zm1.8-3.2v-.2a52.7 52.7 0 0 0 6.9-18c.6-2.9.2-5.8-1.1-8.4l-.7-.9.3-.4L88 99l1.7.4 5.8 1.6-.8 6a59 59 0 0 1-4.1 12.5l-9.8 7.7Zm.2-25.4v-.2l.3-.7.3.1-.6 1v-.2Zm-3.7-5h.3-.3Zm28.8 3.7 1 .7-8.1-2.5v-.3l3.1.5.8.2h.4l.1.1 1.6.7.7.3.4.3Zm.9-3c1.6.6 3.2.9 4.8 1l1.2 3.2v.6l-.9.6-.7-.2a9.2 9.2 0 0 0-4.4-5.3v.1ZM79.7 78.6c-1.3 4.7-2.7 9.5-4.2 14.2l-6.5-.9c.7-6 3.2-11.8 7.2-16.5l3.5 3.1v.1Zm4-3 .8 3-1.3-1.1.5-1.8ZM99 95.4v-1.5l4.3 2.1c-1.4-.3-2.9-.5-4.3-.6Zm-3.3-.1c-2.2 0-4.5.2-6.7.5l-1.6-.4c.7-3 1-6 1-9 2.3 1.9 4.7 3.7 7.1 5.3v3.6h.2Zm-11.5-.6-1.3-.4 2.3-6.6c0 2.3-.3 4.7-1 7Zm-4.2-1-1.6-.3L82.2 81l1.5 1.4.3.2c-1.5 3.6-2.8 7.3-4 11.1Zm18.6 8.2 10.2 3.2v.2l-1.5 1-.4.2c-.8.1-1.4.7-2.2.9h-.5l-1.1.4c-.7.5-1 1.5-.9 2.3l-6.8 5.3c1.5-4.3 2.6-8.9 3-13.5h.2Zm18.2-.1 6.2-4.4a44 44 0 0 1 5.6 12.3 122 122 0 0 0-11-4.9l-.8-3.1Zm-.7-2-.4-1.2h1l1.6-.2-2.2 1.5Zm4.5-5.4c-1.8.7-3.6 1.1-5.4 1.1-.6-3.2-1.2-6.4-2.2-9.3 3 2.4 5.6 5.2 7.9 8.1h-.3v.1Zm-10.8-8.7.7 2.7c-1.9-3-4-6-6.4-8.6 1.6 1 3.2 2 4.7 3.2l1 2.7Zm-11.1-6.3c4.7 4.5 8.6 9.7 11.5 15.6-4-1-7.9-2.6-11.3-4.9a40 40 0 0 0-2.6-12.8l2.4 2Zm-3.5 8.4A79.4 79.4 0 0 1 88 82l-.1-1 2.9-6.6 1 1.7c2 3.7 3.1 7.6 3.4 11.7Zm-6.9-15.3L87 75.7c-.4-1.6-1-3.2-2-4.6l3.5 1v.2Zm-7-.2-.7 3-1.5-1.3-.8-.8 1.7-1h1.3ZM70 70.4l-1.2 2.2-.6.5 1.2-3.3.6.5Zm3.6 3-3 4.4a32 32 0 0 0-5 14h-.8v-.4c1.5-4.9 3.2-9.6 5.4-14.2l.9-1.8c.8-.8 1.7-1.5 2.7-2.2l-.2.1ZM61.5 91l-.1.6c-2.3 0-4.6.2-6.8.5l6-6.9 1.7-1.8c-.4 2.5-.6 5-.7 7.5Zm13 5-.5 1.4a9.9 9.9 0 0 0-3.8 3.2l-1.5 1.8-.2.1v-7.4l6 .7v.1Zm-9.5 6.3c-.2-2.4-.3-4.9-.3-7.4h.4c-.2 2.5-.2 5 0 7.4Zm14 6.6c1.9-1.7 3.4-3.7 4.8-5.7v.2l.2.4v.2c.4 2.8.2 5.6-.8 8.3a79 79 0 0 1-7.3 16.2l-.3.5c.9-6.8 2-13.4 3.4-20.1Zm-8.5 8.5 4.9-4.8c-1 5-1.8 9.9-2.5 14.8l-2.4-10Zm-8.6 5.3c-1-1.6-1.8-3.2-2.6-5 0-1.5.2-3 .5-4.6l3-3.2c.4 3.2 1 6.2 1.7 9.2-1 1.1-1.8 2.4-2.7 3.7l.1-.1Zm1.8 3.6v-.2l.4-.8-.4 1Zm-3.6-.6-.9 1.7V124l.9 1.8Zm6.4 1.4 1.9 5.9v.3l-2.6-4 .8-2v-.2Zm-4 2.7-2.2 5.6-.2-1 1-3.2 1-2 .3.6Zm1.9 3c1.3 2 2.8 4 4.3 5.8-1 1-2 2-3.2 2.7-.5.5-1.1.7-1.7.9l-.4.2h-.7l-.5.1c-.7 0-1.5-.4-2.1-1 .5 0 1-.4 1.3-.8l3-7.8Zm13.4 9 2.4-2.3c6.2-6 11-13.4 14.4-21.4l7.7-6c-.2 2.3 0 4.5-.4 6.9-.4 2.5-1.4 5-2.8 7.2a57.6 57.6 0 0 1-19.4 19.2l-.8-.7-1.3-2.7.2-.1Zm9 2.3a60 60 0 0 0 11.9-11.7c3.4-4 5.7-8.9 6.5-14.2l.3-3.4.2-3.8v-1c.8-.2 1.5-.7 2.2-.9.6-.1 1.1-.2 1.8-.1 1.8 0 2.3-1.6 2.3-3l1.4.4v6.3a132 132 0 0 1-5.5 30.3 37 37 0 0 1-9.9 9.4 33.5 33.5 0 0 1-15.4-5.3c1.5-.9 3-2 4.3-3Zm29.1-25c-.2 3.4-.7 6.6-1.5 9.8l-.1.7 1.5-10.4h.1ZM105.2 151l-.3 1.2h-1l1.3-1.1v-.1Zm-34-2c-1 .4-2 .5-3.1.6l3.2-2.4v1.9Zm12.7 2.5c2 1 3.9 1.8 6 2.5l1.8.5c-1.8.1-3.4-.1-4.9-.7-.9-.6-1.6-1.1-2.4-1.9l-.5-.4Zm15 4h2.7a18 18 0 0 1-4.8 1l2.2-1Zm-15.5.3a19.9 19.9 0 0 0 19 3.3 123 123 0 0 1-9.2 17.6c-5.3-7.7-9.9-15.7-13.8-24 1 1.3 2.4 2.2 4 3.2v-.1Zm50.2-36.8c0-1.2 0-2.5-.2-3.6l1.6 1-1.4 2.6Zm-3.7 6.9-4.6 7.4a72.4 72.4 0 0 1-14 16.6l-1.2 1-2 .6 1.9-5.7a49.4 49.4 0 0 0 8.6-37.1v-.2c3.8 1.4 7.6 3.1 11.1 5l.2.8c.6 3.8.6 7.7 0 11.7v-.1Zm2.8-14.5a45.2 45.2 0 0 0-6.5-16.2c6.7-4.3 13.7-8.3 20.9-11.9-2.4 10.4-6 20.5-10.8 30.1l-3.6-2Zm-16-27c-1.7-1.6-3.5-3-5.4-4.4l-2.3-5a49 49 0 0 0-9.8-16c1.9-3 3.8-5.8 6-8.6 3 .5 6.2 1.4 9.1 2.6a26.4 26.4 0 0 1 17.4 19.4 20.6 20.6 0 0 1-7.8 20.1 57.2 57.2 0 0 0-7.3-8ZM96.9 56.9c-2.2-1.8-5-3-8-3l.7-3h.2c4-1 7.9-1.3 11.9-1a98.4 98.4 0 0 0-4.8 6.9v.1Zm-11.3-2.6a22.8 22.8 0 0 0-10 7.2l-1.2-.5c3-3.8 7-6.9 11.7-8.8l-.5 2ZM85 58l-1.5 6.5-4.5-1.9c1.7-1.9 3.7-3.5 6-4.6Zm-29.4 1.7L54 60c-2.1.8-4.2 2.1-5.8 3.7l1.5-3.5 1.6-3.8 4.4 3.2h-.2Zm1.7 3.5a8 8 0 0 1 2.7-.5l1.9 1.4c-4.1.2-8 1.3-11.7 3 1.8-2 4.3-3.4 7-4ZM45 90l1 4.2c-2 .8-4.1 1.7-6 3a45 45 0 0 1 .7-11 23 23 0 0 1 2.6-7.4A49 49 0 0 0 45 90Zm5.5 6.6.4-.5c3.1-.6 6.3-1 9.5-1-1.4 5.5-2.7 11.1-3.6 16.9v.5c-2.3-5.2-4.4-10.6-6.3-16Zm35.2 87c-1 .4-2 .5-3 .2a7.3 7.3 0 0 1-3.2-2.5 26 26 0 0 1-4.8-12.6c-.7-4.8-1-9.8-.8-14.6v-2.5l1.3-.4c4.5 9.8 9.9 19.2 16.1 28a14 14 0 0 1-5.5 4.5v-.1Zm75.5-36.7c1.4 6.7.7 13.8-2 20.3a54.2 54.2 0 0 1-12.9 19.3 36.8 36.8 0 0 1-19 10.2 34.9 34.9 0 0 1-32.6-17.6c2.8-3.7 5-7.6 7-11.8h.2c11-6.4 22-12.8 32.5-20a297 297 0 0 0 20-14.5 38 38 0 0 1 6.8 14Zm3-70.3 6.1-1.9 6.3-2.1a57 57 0 0 1 9.8-2.1h3a9 9 0 0 1 4.9 1.8 9 9 0 0 1 3 4.8c.5 1.8.5 3.6.2 5.4-.3 2-1 3.9-2 5.7a50 50 0 0 1-8.2 11.2c-3 3.2-6.3 6.4-9.5 9.5l-11.3 10.6c-3.6 3.4-7.3 6.5-11 9.5a69.8 69.8 0 0 0-14.2-12.3l-2.3-1.5c5-10 8.7-20.7 11.2-31.8l.3-1.5c4.4-2 9-3.8 13.7-5.3ZM113 49a48 48 0 0 0-5.4-1.4l2.7-3.3c3.2-4 6.9-7.5 10.8-10.8 3-3.1 7.2-5 11.6-5 4.6 1 8.4 4 10.3 8.1a66.5 66.5 0 0 1 6 29.4c-.1 5-.6 10-1.6 14.9-5.5 2.7-11 5.7-16.2 8.9a26.2 26.2 0 0 0 2.5-23 32 32 0 0 0-21-17.8h.2ZM65.6 29.3c4.3-7 9-14 14.2-20.6C81.5 7 83.4 5.2 85.5 4l1.6-.6h1.3l.3.2h.2v.2l.4.3.2.2A8 8 0 0 1 91 7.7a35 35 0 0 1 0 10 285 285 0 0 1-4.2 30.6A33 33 0 0 0 71.2 60l-.2.3c-3.5-.8-7-1.2-10.5-1.3l-7.2-5.3-.6-.3c3.8-8.2 8.1-16.2 12.9-23.9ZM16 119.6l-1.6.1h-.7l-.8-.1-1.1-.2-.4-.2-.8-.4-.5-.3-.4-.2-1-.7-.4-.4-.3-.3-.8-1-.8-1.3-.1-.2-.4-.9-1.1-3-.2-.7-.1-.6-.4-1.7c-.6-3.2-.8-6.5-.6-9.8v-1.9a92.4 92.4 0 0 1 11.3-38.6l1-1.7.5-.8.2-.2.4-.5c1.2-2 2.8-3.9 4.5-5.6l.5-.5h.2l.2-.3 1.2-1 1.3-.8.6-.4.4-.2 1.2-.5.6-.1.4-.1a13 13 0 0 1 6.5.5c4.8 2.1 9 4.9 13 8.5l1.3 1c-3.3 7.2-6 14.5-8.6 22l-.2.3c-1.5 3-2.5 6.1-3 9.4l-.2 1.8a229 229 0 0 0-3.3 14.3 26.3 26.3 0 0 0-6.4 12l-1.3 1a23 23 0 0 1-10 4.3h.2Zm13.2 2.3c.3-1.8.5-3.6 1-5.4l1.2-1a209 209 0 0 0-2 20.1c-.4-4.6-.5-9.1-.2-13.7Z"/>
	</svg>
	<svg id="2" viewBox="0 0 200 200">
		<path id="2" fill="currentcolor" d="M197.4 61.8a12 12 0 0 0-8-4c-7-.3-14 1-20.4 4l-5.4 2.2 8.1-7.2c.4-.4.7-.9.8-1.4 0-.5 0-1-.2-1.6-.2-.5-.5-.9-1-1.1-.4-.3-1-.4-1.4-.3a33 33 0 0 0-14.4 7c-5 3.3-9.4 6.6-14.4 10.4l-1.8 1.5 8.8-15c2.7-4.8 5.2-9.6 8-14.2l5.6-9.7c2-3.7 3.8-7.7 5.1-11.9 1.2-3.3 1.3-7 .3-10.4a8.7 8.7 0 0 0-4.4-4 8 8 0 0 0-5.9 0 40.4 40.4 0 0 0-14 8.2l-5.2 4.6a28 28 0 0 0-3.3-8.8 23.8 23.8 0 0 0-10.7-8.5c-4.2-1.7-8.8-2-13.3-1A65.4 65.4 0 0 0 76 18.1L71.4 16c-9.3-4.6-19.5-7-29.8-7a28 28 0 0 0-22.4 12.1 28 28 0 0 0-2.6 20.7 80.1 80.1 0 0 0 8.7 21.9A140 140 0 0 0 32.9 76a177.7 177.7 0 0 0-14.2 36.9 155.8 155.8 0 0 0-17.8 32 9.8 9.8 0 0 0-.6 6.9c1.5 4 6.6 3.3 9.7 2.4 17.2-5.3 34-12.2 50-20.8l-.7 2.7-1.3 5v.4c-3.5 4.1-7 8.4-10.3 12.8a3 3 0 0 0 .2 3.3 2.3 2.3 0 0 0 3.4.3 361.9 361.9 0 0 0 30.6-27l3.8-3.7c3.6 2.2 7.2 4.4 10.9 6.4-12.9 21-25.4 42.4-39.6 62.7a2.5 2.5 0 0 0 0 2.5c.2.4.5.7.9 1l1.2.2a8 8 0 0 0 4.5-2.1l.5-.8a2.5 2.5 0 0 0-.4-2.6c13-19.2 24.6-39.2 36.6-59.1 4.9 2.4 10 4.4 15.3 6.1a56.6 56.6 0 0 0 22.2 2.8c2.7-.2 5.3-.8 7.8-1.7 0 2 3 2.2 3.1.3l.3-1.8c2.7-1.4 4.9-3.6 6.2-6.4a23.8 23.8 0 0 0-.1-19.3l.4-.2c12-6 23-14 32.7-23.5a36 36 0 0 0 11.6-20c.5-3.5-.5-7.1-2.5-9.9ZM23.9 118.5l-.2-.2-.4-.4-.2-.6-.2-1.3v-1c6.3-9 13.1-17.6 20.4-25.8 3.9 4.6 7.9 8.8 12 13l-5.4 4.4a82.2 82.2 0 0 1-14.2 9 32.7 32.7 0 0 1-7.1 2.8l-1.8.3-1 .2-1.3-.2c.4 0-.8-.4-.5-.2h-.1Zm31.8-21.8c-3.3-3.4-6.5-6.8-9.7-10.4 3.9-4 8-8 12.2-11.5l-.5 3.3c-.7 7 0 13.8 2 20.4l-1.2 1-2.8-2.8Zm25.9-71a79 79 0 0 1 8 5.3h-.3a44.7 44.7 0 0 0-19.5 16 64 64 0 0 0-10.2 20.8 145 145 0 0 0-16.4 15l-5.5-7c7.8-15 17.2-28.8 28-41.4 3.6-4 7.3-7.8 11.4-11.4l4.5 2.7Zm45.2 28a37.1 37.1 0 0 0-11-3.9l-.7-.7c6.2-7.5 12.4-15 19.1-22-.7 8.6-2.9 17-6.5 24.6l-.8 2h-.2Zm4.8 10.2c1.6 2.4 2.5 5.2 2.7 8.2l-1.2 2c-2-3.6-4.2-7.1-6.6-10.5l1.8-3.3c1.2 1 2.4 2.2 3.3 3.6Zm-.3 43-.3.8-.9 2.2-.3.6-.5.8-.6.7-.4.5-1.4 1v.3l-.4.1-1 .4-.7.5-.7.2-1.8.4-2 .3h-.5a24 24 0 0 1-5.6-.8h-.6l-.1-.1-.6-.2 11.5-18.8a31 31 0 0 0 5.8-4h.1l.4 1.2c.5 2.5.9 5 1 7.6v2.5c0 .9-.1 1.9-.3 2.8v.6l-.1.4Zm-25.7 4.6-.6-.4h-.2l-1-.6-.6-.3 8.3-7.8 1-.7 3.9-2.7 1.7-.5-9.1 14.7-3.5-1.7h.1ZM85.8 120h-.1l3-2.8-3 2.8ZM63.7 70.3c9.7-7.7 20.5-13 32.2-15.6l2.6-.5a54.5 54.5 0 0 1-4.4 7.8c-5.7 1-10.6 4.6-13.6 9.8a19.1 19.1 0 0 0-1.6 8.3l-4.1 4.3L63.5 95v-.5c-1.8-8-1.7-16.3.2-24.2Zm21.2-32h.3l.5-.4 1-.6c2.2-1.2 4.6-2.1 7-2.8h.4c2.5 1.9 5 4 7.2 6.2v.9c.2 2.6-.1 5.3-1 7.8l-3.5.5A80 80 0 0 0 66 63.1a60.4 60.4 0 0 1 15-21.6c1.2-1.1 2.5-2.1 3.9-3v-.1Zm-1.3 46.2V84l-.5-2.2c4.7-4.9 9.1-10 13-15.6h1.3l-5.2 7.2-1 1.3-1.2.7a12 12 0 0 0-4.1 4.1c-1 1.8-1.7 3.7-1.9 5.8l-.4-.8Zm.1-9.5c1-2.9 3-5.2 5.7-6.6a84.2 84.2 0 0 1-5.7 6.6Zm9.5 4 .4-.2.6-.1a12 12 0 0 1 5.2-.3c3.9.4 7.7 1.3 11.3 2.8-3.6 5-7.4 10-11.3 14.6h-1.2l-2-.5-.7-.2-1-.4c-1.3-.4-2.6-1-3.8-1.6l-.2-.1-.3-.2-.8-.5-.5-.4-.5-2.2V86l4.7-7Zm14 17h-2.6l1.7-2.1c3-3.7 5.8-7.3 8.4-11.2 2.4 1.1 4.8 2.2 7 3.6a305 305 0 0 0-14.5 9.8Zm-6.3 4.5h.3l-.8.6.5-.5v-.1Zm-9.4-2.2 4.5 1.4-2 2.2a33 33 0 0 1-2.5-3.6Zm34-15.2-.5-.2c-2.4-1.5-5-2.9-7.5-4.1l2.5-3.9c2.2 2.2 4.3 4.8 6.1 7.6l-.7.6Zm-11.9-6c-5.4-2.1-11-3.3-16.8-3.6l5.3-7.6c3.5.3 6.9 1.4 10 3.3 1.6.8 3.3 1.9 4.7 3l-3.2 5Zm-29.8 16 1.2 1a29 29 0 0 0 6 11.2l-9 9.7-3 1.8h-.2l-1-.8c-1.4-.9-2.6-1.8-3.7-2.9l-.8-.7-.4-.3c3.3-6.5 7-12.9 10.8-19h.1Zm46.5-14.3-1 .8c-2-3.2-4.3-6-7-8.5l2-3.5.5.6c2 3 4.1 6.4 6 9.7l-.5.9Zm-11.1-10.5c-4.2-3.3-9-5.5-14.1-6.6l.5-.5 5.7-7.5 3.1.4c2.6 3.1 5 6.3 7.4 9.6l-2.6 4.6Zm-16-10.4-2.5 3.5h-1.5a70 70 0 0 0 4-7.7l3.5-.2-3.5 4.4ZM79.3 85.6l.2-.3c.4 1.5 1 2.8 1.8 4.2A240 240 0 0 0 70 108.8l-1.8-2.6-.6-.9-.4-.9c-.9-1.6-1.6-3.2-2.3-5 5-4.3 9.7-9 14.4-13.8ZM124 60l-3-4 1.1.4L125 58l-1 2Zm-19.2-11c.3-1.4.6-3 .7-4.5 1.5 1.5 3 3 4.4 4.7h-5.1V49Zm-30.4 70.6-6.2 3.7 2.7-6.4c1 1 2.2 1.8 3.5 2.7Zm25.5 3.1c-2.8-.2-5.6-.5-8.4-1l8.4-8.2c2.1 1.4 4.4 2.7 6.7 3.7l-3.5 5.6h-3.2Zm.3 5-1.3 2-4.6-2.5c2 .4 3.9.5 5.9.6Zm10.2-9a24.4 24.4 0 0 0 15.8.6 15 15 0 0 0 7-5.7 17 17 0 0 0 2.9-9 38 38 0 0 0-.2-8.3c2 1.8 4 3.7 5.7 5.7 1.3 4 2.4 8.2 3.2 12.5a113.6 113.6 0 0 1-35 8.1H108l2.4-4v.1Zm37-9c.7 1 1.3 2 1.8 3.1l-1 .4-.7-3.6h-.1ZM134 88.9l-.2-.7 1.6-2 2.5 5.8-3.8-3Zm9.9-70.8 3.7-3L149 14l.9-.6.4-.2.4-.4a29 29 0 0 1 6.3-3.2h.4l.7-.2 1.4-.2h1.4l.4.1 1 .4.2.2.5.4h.1l.1.2.4.5.2.3.1.2.2.4.1.5a18 18 0 0 1-1.6 9.7 83 83 0 0 1-5.6 11.4l-4.9 8.4a769 769 0 0 1-14.5 24.9 22 22 0 0 0-7.5-10.7 94.7 94.7 0 0 0 7-20.2 52 52 0 0 0 1-12.5l5.6-5.2Zm-51.3-6.5c4.8-2.8 10-4.8 15.4-6a28 28 0 0 1 14.7 0c3.5 1.2 6.5 3.7 8.5 7 1.6 2.9 2.5 6.1 2.8 9.5-7.2 7.4-14.1 15-20.6 23.1l-.8 1a96 96 0 0 0-7.4-7.4 11 11 0 0 0-2-5 10 10 0 0 0-3.9-3.4 8.7 8.7 0 0 0-4.7-.6C90 26.2 85 23 80 20.2c4-3.3 8-6.2 12.3-8.7l.3.1ZM19.3 35c-.2-3.2.3-6.4 1.4-9.4 1.3-3.1 3.3-5.8 6-7.7a32.8 32.8 0 0 1 27-4 80 80 0 0 1 19.3 7A160.3 160.3 0 0 0 55 41a232 232 0 0 0-20 30.8c-3.3-4.8-6.4-10-9.2-15.4A55.6 55.6 0 0 1 19.3 35Zm8.3 63.3c2.3-6.4 5-12.6 8-18.6l1.2 1.5 3.7 4.7a246 246 0 0 0-14.6 17.5l1.8-5-.1-.1ZM4.8 149.6s.2.3 0 0Zm28.7-9.3c-6 2.6-12 4.9-18.2 6.8l-5.3 1.7-2.7.7H4.8v-.2c.4-2.5 1.2-4.9 2.4-7A138 138 0 0 1 19.5 120c.5.8 1 1.6 1.8 2.2a7.8 7.8 0 0 0 5.6 1.2 27 27 0 0 0 7.5-2.2c7.7-3.8 15-8.5 21.7-14l2.4-1.9v.1c3 2.9 6 5.5 9.2 8.3-2 4.2-3.8 8.3-5.4 12.8-9.3 5-18.9 9.7-28.6 13.8h-.2Zm36-12.4-2.2 2.4-3 3 1-3 4.3-2.4Zm2.7 5 8.9-8.8.3.1-1 1-8.2 7.7Zm71 5.7h-.2l-1.3.4a54.9 54.9 0 0 1-30.9-3.9c-2.7-1-5.5-2.2-8.3-3.5l2-3.3.3-.4c14-.5 27.7-3.3 40.8-8.4.8 6 1 11.9.7 17.8h-.1l-2.4 1.2h-.5Zm9.3-8.8v.3l-.3.5-.4 1.1-.1.5-.2.3-.7 1.1-.6.8-.6.6a86 86 0 0 0-.8-16.8l2.2-.9a32 32 0 0 1 1.7 7 19 19 0 0 1-.2 5.5ZM195 67.4l.1.4.2.7v2c0 .8 0 1.6-.2 2.2v.5l-.2.6-.4 1.1-1 2.4-.2.4-.3.5-.7 1.1c-2.8 4.2-6 8-9.7 11.3-5.2 4.8-10.7 9.3-16.5 13.2l-.7.5h-.1l-.4.4-1.8 1c-3.2 2-6.5 3.8-9.9 5.3l-2.5-4.4c-2-3.2-4.1-6-6.7-8.7-1.6-4.7-3.6-9.3-5.8-13.8l8.7-6.4c7.4-3.8 15-7.4 22.6-10.7a100 100 0 0 1 4.9-1.8l1.2-.4h.2l.6-.2 2.7-.8c2.4-.6 4.9-1 7.3-1h2l2 .3.4.2 1 .4.5.2.7.5.6.5.5.6.4.6.3.7.2.8v-.2Z"/>
	</svg>
	<svg id="3" viewBox="0 0 200 200">
		<path id="3" fill="currentcolor" d="M2.7 138.2a12 12 0 0 0 8 4.1c7 .2 14-1 20.4-4l5.4-2.3-8.2 7.3c-.4.4-.6.8-.8 1.4 0 .5 0 1 .2 1.5s.6 1 1 1.2c.4.3 1 .4 1.4.3a32.5 32.5 0 0 0 14.4-7c5-3.3 9.6-6.6 14.4-10.4l1.8-1.5-8.8 15c-2.7 4.8-5.1 9.5-7.9 14.2a115.3 115.3 0 0 0-10.7 21.5c-1.3 3.3-1.4 7-.4 10.5 1 1.9 2.6 3.3 4.5 4a8 8 0 0 0 5.9 0c5.1-1.7 9.8-4.5 14-8.2l5-4.6a28 28 0 0 0 3.4 8.8 22.4 22.4 0 0 0 24 9.4 65.4 65.4 0 0 0 34.3-17.5l4.6 2.2a66 66 0 0 0 30 6.9c8.7 0 16.9-4.4 22.1-11.8a28 28 0 0 0 2.7-20.7c-1.8-7.7-4.7-15-8.6-22-2.4-4-5-8.3-7.7-12.2a185 185 0 0 0 12.4-29.6c.8-2.3 1.4-4.8 1.8-7.2l4.9-7.4c5-7.8 9.3-16 13-24.7 1-2.2 1-4.5.4-6.8-1.4-4-6.6-3.3-9.6-2.4-17.2 5.2-34 12.1-50 20.7l.9-2.8 1.2-5v-.5c3.6-4 7-8.4 10.3-12.8a3 3 0 0 0-.1-3.3 2.4 2.4 0 0 0-3.5-.3 362 362 0 0 0-30.5 27l-4 3.7c-3.4-2.2-7.1-4.4-10.8-6.4C116.3 45.4 128.8 24 143 3.8a2.6 2.6 0 0 0 0-2.7c-.2-.3-.5-.7-.9-.9-.4-.2-.8-.2-1.2-.2a8 8 0 0 0-4.5 2.1l-.5.7a2.4 2.4 0 0 0 .3 2.7c-12.9 19.2-24.6 39.2-36.4 59.2a127 127 0 0 0-15.4-6.2 56.3 56.3 0 0 0-22.2-2.8c-2.7.3-5.4.8-8 1.7.3-2-2.7-2.2-3-.2l-.3 1.7a15.3 15.3 0 0 0-6.2 6.4 23.8 23.8 0 0 0 .2 19.3l-.4.2c-11.9 6.1-23 14-32.7 23.6-6 5-10 12.1-11.7 20-.5 3.5.4 7 2.6 9.8Zm173.5-56.7.3.2.2.5.3.5.2 1.4v1c-6.3 9-13.1 17.6-20.4 25.7-3.9-4.5-7.9-8.8-12-13l5.3-4.4a80 80 0 0 1 21.4-11.8l1.7-.3 1.3-.1 1.2.1c-.5 0 .7.4.5.2Zm-31.8 21.8a150 150 0 0 1 9.6 10.5c-3.8 4-7.8 8-12 11.4l.4-3.3c.6-6.9 0-13.7-2-20.3l1.2-1.1 2.9 2.8h-.1Zm-26 71c-2.6-1.6-5.3-3.2-7.8-5.2l.3-.1a44.7 44.7 0 0 0 19.5-16c4.6-6.2 8-13.2 10-20.7 6-4.6 11.4-9.6 16.5-15l5.4 7a221.4 221.4 0 0 1-28 41.4c-3.5 4-7.3 7.8-11.2 11.4l-4.6-2.7Zm-45.1-28a33 33 0 0 0 11 4l.7.7a307 307 0 0 1-19.1 22 67 67 0 0 1 6.5-24.6l.9-2.1ZM68.4 136a17.5 17.5 0 0 1-2.7-8.1l1.2-2c2 3.5 4.3 7 6.7 10.5l-1.8 3.3c-1.3-1-2.3-2.2-3.4-3.7Zm.5-42.9.2-1 .8-2 .3-.6.6-.8.5-.8.4-.4 1.5-1.1v-.2l.4-.2 1-.5.7-.3.6-.3 1.8-.4 2-.2h.6c1.9 0 3.8.3 5.6.8h.7l.5.3a9390 9390 0 0 1-11.5 18.7 31 31 0 0 0-5.8 4l-.3-1.1c-.7-2.5-1-5-1.2-7.6v-2.6l.4-2.7v-1h.2Zm25.6-4.6.7.3h.2l1 .7.4.3-8.2 7.7-1 .8-3.8 2.6-1.8.6 9-14.8 3.5 1.8Zm19.7-8.5h.2l-3.1 2.7 2.9-2.7Zm22.2 49.6v.2a80.2 80.2 0 0 1-32.3 15.4l-2.6.5c1.4-2.7 2.8-5.4 4.4-7.8 5.8-.9 10.7-4.5 13.6-9.8a18 18 0 0 0 1.7-8.2l4.2-4.3c3.5-3.7 7.3-7 11.1-10.6v.4l.8 3.1a54 54 0 0 1-.9 21.2v-.1Zm-21.1 31.9-.3.2-.6.3-1 .7a32 32 0 0 1-7 2.8h-.5c-2.4-2-4.8-4-7.2-6.2v-.9c0-2.6.3-5.3 1-7.8 12.3-1.8 24-6.5 34.4-13.8a60.5 60.5 0 0 1-18.8 24.7Zm1.1-46v.2l.2.4.3 2.2c-4.7 4.9-9 10-13 15.5l-1.1.2 5-7.3 1-1.3 1.4-.7c3.3-2 5.5-5.7 5.8-10h.1l.3.9Zm0 9.5c-1.1 3-3.1 5.3-5.7 6.6a114 114 0 0 1 5.6-6.6Zm-9.5-4-.3.3-.8.1c-1.6.4-3.4.5-5.1.2-4-.3-7.8-1.3-11.4-2.7 3.6-5.1 7.4-10 11.4-14.7l1.1.1 2 .5h.2l.5.2 1 .3a27 27 0 0 1 3.8 1.7h.2l.3.3.9.4.5.5.4 2.2v3.7l-4.6 7h-.1Zm-14-17.1h2.7l-1.9 2.2c-2.9 3.6-5.7 7.3-8.4 11.1a81.9 81.9 0 0 1-6.9-3.5c5-3 9.8-6.4 14.4-9.8Zm6.3-4.4H99l.7-.7-.5.6Zm9.4 2.2c-1.5-.6-3-1.1-4.5-1.4l2-2.2c.9 1 1.7 2.3 2.5 3.6ZM74.7 117l.4.2c2.4 1.4 5 2.9 7.5 4l-2.5 4a38.9 38.9 0 0 1-6.1-7.7l.7-.5Zm11.7 6c5.4 2 11.1 3.3 16.9 3.6l-5.4 7.6c-5.3-.9-10.3-3-14.7-6.3l3.2-5Zm29.8-16-1-1.1a32 32 0 0 0-6.2-11.2l9-9.7 3-1.7h.2l1 .8c1.4.8 2.6 1.7 3.9 2.8l.8.8.2.2c-3.3 6.6-6.9 12.9-10.8 19Zm-46.4 14.3 1-.8c2 3.2 4.3 6 7 8.5l-2 3.5-.6-.6-6-9.7.6-1Zm11 10.3a35 35 0 0 0 14.1 6.6l-.4.6-5.7 7.5-3.1-.5a129 129 0 0 1-7.4-9.5l2.6-4.7ZM97 142.1l2.6-3.5h1.4a54 54 0 0 0-4 7.7l-3.5.2 3.5-4.4Zm24-27.6-.4.3c-.4-1.6-1-2.9-1.6-4.2 4-6.3 7.7-12.7 11.2-19.4l1.8 2.7.5.8.5 1c.8 1.5 1.6 3.2 2.2 4.9-5 4.4-9.6 9.1-14.4 13.9h.1ZM76.1 140l3 4-1.2-.5-2.9-1.4 1-2Zm19.3 11c-.4 1.4-.7 3-.9 4.4l-4.4-4.6h5.2v.1Zm30.4-70.7 6.1-3.6c-.8 2.2-1.7 4.4-2.7 6.4-1-1-2.2-1.9-3.4-2.8Zm-25.7-3c2.9.2 5.6.5 8.4 1l-8.3 8.2a41.4 41.4 0 0 0-6.8-3.8l3.5-5.6 3.3.1h-.1Zm-.1-5.1 1.1-2 4.6 2.5c-1.8-.3-3.8-.4-5.7-.5Zm-10.4 9a24 24 0 0 0-15.7-.5c-2.8 1-5.3 3-7 5.6a17 17 0 0 0-3 8.9c-.3 2.7-.2 5.6.2 8.4a60 60 0 0 1-5.8-5.8 106 106 0 0 1-3.2-12.4c8-3 16-5.3 24.3-6.8a91 91 0 0 1 10.7-1.4h2l-2.5 3.9v.1Zm-37 9L51 87.1l1-.4.8 3.6ZM66.1 111l.2.7-1.4 2-2.7-5.7 3.9 3Zm-9.9 71-3.6 3-1.6 1-.8.7-.5.2-.4.4c-2 1.3-4 2.4-6.2 3.1h-.5l-.8.3-1.3.2H39l-.2-.1-1-.5h-.4l-.5-.5-.2-.2-.4-.5-.2-.3c.2.3 0-.1 0-.2l-.2-.5-.2-.4a18 18 0 0 1 1.6-9.8c1.6-4 3.4-7.7 5.6-11.4 1.6-2.7 3.4-5.5 4.9-8.3 4.7-8.4 9.6-16.7 14.6-25 1.4 4.4 4 8.1 7.4 10.8-3 6.4-5.4 13.2-6.9 20.1-1 4.1-1.2 8.4-1 12.6l-5.7 5.2h.1Zm51.5 6.5a54 54 0 0 1-15.6 6 27.8 27.8 0 0 1-14.7-.1 15.3 15.3 0 0 1-8.4-7 22.1 22.1 0 0 1-3-9.5 281 281 0 0 0 20.6-23.1l1-1c2.3 2.5 4.8 5 7.2 7.3a11 11 0 0 0 2 5 10 10 0 0 0 4 3.4c1.5.7 3.1.9 4.7.7 4.7 3.6 9.5 6.7 14.5 9.6-3.9 3.3-8 6.1-12.3 8.7Zm73-23.4a20 20 0 0 1-1.6 9.6c-1.3 3-3.3 5.6-5.8 7.5a32.9 32.9 0 0 1-27 4 80 80 0 0 1-19.2-7 216.6 216.6 0 0 0 38-51c3.4 4.9 6.4 10 9.1 15.4a55.6 55.6 0 0 1 6.5 21.5Zm-8.3-63.3h.1a198 198 0 0 1-8.2 18.6l-1-1.7-3.6-4.4c5.1-5.6 10-11.4 14.7-17.6l-1.9 5h-.1Zm22.9-51.3c-.3-.4-.1-.2 0 0Zm-28.9 9.2c6-2.5 12.2-4.8 18.3-6.8L190 51a28 28 0 0 1 2.6-.6l1.3-.1h1.4v.2a20 20 0 0 1-2.4 7A138 138 0 0 1 180.6 80c-.4-.9-1-1.6-1.7-2.2a7.8 7.8 0 0 0-5.8-1.2c-2.6.3-5.1 1-7.5 2.2a96.9 96.9 0 0 0-21.7 14l-2.2 1.8h-.2c-3-3-6-5.7-9-8.3 2-4.2 3.7-8.4 5.3-12.8a314 314 0 0 1 28.6-13.9Zm-36 12.4 2.2-2.4 3-3-1 3-4.2 2.4Zm-2.6-5c-3 3-5.8 6-9 8.8l-.1-.1.8-.9 8.2-7.8h.1Zm-71.2-5.6.3-.1 1.3-.4a34 34 0 0 1 7.8-.9c7.9 0 15.8 1.6 23 4.8 3 1 5.7 2.2 8.4 3.5l-2 3.3-.1.4a126 126 0 0 0-41 8.4c-.7-5.9-1-11.9-.5-17.8l2.4-1.1.4-.1Zm-9.2 8.8.2-.4.1-.5.4-1.1.2-.4.1-.4.7-1 .7-.8.6-.7c-.3 5.6 0 11.2.7 16.8l-2 1c-1-2.3-1.5-4.7-1.8-7.1a14 14 0 0 1 .2-5.4h-.1ZM5 132.6l-.1-.3-.1-.8-.1-1v-.8c0-.8 0-1.6.2-2.3v-.4l.3-.7.4-1c.2-1 .6-1.7 1-2.5l.1-.3.3-.6.7-1.2 1.7-2.5c2.3-3.2 5.1-6 8-8.7A126 126 0 0 1 34 96.3l.7-.5.5-.3 1.8-1a95 95 0 0 1 9.9-5.4l2.4 4.4c2.1 3.2 4.3 6 6.7 8.7 1.7 4.8 3.6 9.4 5.8 14l-8.7 6.3c-7.4 3.8-15 7.3-22.6 10.7l-4.9 1.7-1.2.5h-.2l-.6.2-2.7.8c-2.4.5-4.8 1-7.2 1h-2.2l-2-.4H9l-1-.5-.5-.2-.7-.5-.6-.5-.4-.6-.4-.6-.3-.7-.3-.8H5Z"/>
	</svg>
</svg>
