<svg xmlns="http://www.w3.org/2000/svg" viewBox="0 0 356 331"><path d="M350.5 102.5a21.9 21.9 0 0 0-14.2-6.7 82.3 82.3 0 0 0-36.1 6.7l-9.6 3.6c4.9-3.9 9.7-7.9 14.4-12a4.2 4.2 0 0 0-3.2-7.2 59 59 0 0 0-25.5 11.5c-8.7 5.7-16.8 11-25.4 17.2l-3.4 2.5 15.7-25c4.8-7.6 9.3-15.5 14-23.2 3.4-5.3 6.8-10.6 10-16a106 106 0 0 0 9-19.7c2.3-5.5 2.5-11.6.6-17.2a15 15 0 0 0-18.3-6.9c-9 3-17.4 7.7-24.7 13.8l-9.2 7.6c-1-5.2-3-10.2-5.8-14.7a41.9 41.9 0 0 0-42.5-15.3A119.1 119.1 0 0 0 141 26l-5.6 4.3-8.1-3.6a123.6 123.6 0 0 0-53-11.3c-15.4 0-30 7.1-39.4 19.4A44.1 44.1 0 0 0 30.3 69c3.1 12.9 8.3 25 15.3 36.3 4.2 7 8.7 13.8 13.6 20.4a295 295 0 0 0-22 49c-1.4 3.9-2.5 8-3.2 12a251.8 251.8 0 0 0-25.2 39.2 162 162 0 0 0-6.3 13.7c-1.8 3.5-2 7.6-1 11.3 2.6 6.7 11.7 5.3 17 4 8.7-2 17.3-5 25.7-7.8a505.4 505.4 0 0 0 62.9-26.5l-1.4 4.5c-.9 2.7-1.6 5.5-2.3 8.3v.7a362 362 0 0 0-18 21.3 4.4 4.4 0 0 0 0 5.3 4.4 4.4 0 0 0 6.2.6c18.9-13.9 37-28.8 54.1-44.7l6.8-6.1a263 263 0 0 0 19.3 10.5c-22.7 35-45 70.3-70 103.7a4 4 0 0 0 3.9 6.2c2.8-.3 5.6-1.5 7.8-3.3a3.8 3.8 0 0 0 .3-5.8c22.9-31.6 43.6-64.7 64.7-97.6a211 211 0 0 0 27.1 10.1 108 108 0 0 0 39.5 4.6 59 59 0 0 0 14-2.8c-.3 3.4 5 3.9 5.5.4l.4-3c4.7-2.3 8.5-6 11-10.4a37.2 37.2 0 0 0-.3-31.9l.7-.3c9.5-4.2 18.6-9.3 27.2-15a245.2 245.2 0 0 0 30.7-23.9 58.6 58.6 0 0 0 20.7-33c.8-5.9-.8-11.8-4.5-16.4ZM43 196.2l-.5-.4h-.1l-.5-.6v-.1l-.4-.8v-.2l-.3-2v-1.7a476 476 0 0 1 36.1-42.6c6.8 7.5 14 14.6 21.4 21.5l-9.6 7.2a147.6 147.6 0 0 1-25.3 15 61 61 0 0 1-12.6 4.5l-3 .6-2.1.2-2.2-.2c.8.1-1.4-.7-.9-.4Zm56.2-36a378.7 378.7 0 0 1-17-17.4 271 271 0 0 1 21.4-18.9 82.1 82.1 0 0 0 2.8 39.2l-2.2 1.7-5-4.7Zm46-117.5a219 219 0 0 1 14.1 8.8l-.6.2a78.2 78.2 0 0 0-34.6 26.4 102.1 102.1 0 0 0-17.8 34.3c-10.2 7.5-20 15.8-29 24.8-3.4-3.8-6.6-7.7-9.7-11.7a363.8 363.8 0 0 1 49.7-68.4 220 220 0 0 1 19.8-18.8l8.2 4.4Zm80.2 46.4-5.8-2.6a72 72 0 0 0-13.8-3.8l-1.2-1.3a517.2 517.2 0 0 1 33.8-36.2A110.6 110.6 0 0 1 227 85.7l-1.5 3.4Zm8.4 16.8a27.7 27.7 0 0 1 5 13.6l-2.3 3.3c-3.6-5.9-7.5-11.7-11.7-17.3l3.1-5.7a34 34 0 0 1 5.9 6.1Zm-.7 71-.4 1.6a25 25 0 0 1-1.5 3.5v.2l-.5.7-1 1.3-1 1.3-.8.7c-.7.8-1.5 1.4-2.4 2l-.3.1-.4.3-1.6.8-1.5.6-1.2.4-3.1.6a35 35 0 0 1-3.5.4h-1a46.5 46.5 0 0 1-10-1.1l-.9-.2h-.1l-.2-.1-1-.3 20.3-31c3.7-1.7 7.2-4 10.5-6.5l.6 1.7c1 4.1 1.7 8.4 2 12.6v4.2l-.6 4.7-.2 1-.2.6Zm-45.5 7.7-1-.5-.2-.1h-.2l-1.8-1.2-.8-.4 14.6-12.8 1.6-1.3 7-4.3 3-.9-16 24.3a69 69 0 0 1-6.2-2.8Zm-34.8 14h-.2l-.1-.1 5.3-4.4-5 4.5Zm-39.4-82 .2-.3c17-12.5 36.4-21.2 57-25.6l4.6-.7a88.6 88.6 0 0 1-7.9 12.9 33.5 33.5 0 0 0-24 16.1 28 28 0 0 0-3 13.7l-7.3 7c-6.4 6-13.1 11.8-19.7 17.5l-.2-.6-1.1-5.1a76.7 76.7 0 0 1 1.4-35ZM151 63.7l.6-.3 1-.6 1.9-1a24 24 0 0 1 4.3-2 28 28 0 0 1 7.9-2.5l.8-.1c4.4 3.2 8.6 6.6 12.8 10.2l.1 1.5a34 34 0 0 1-1.9 13l-6.4.8c-19.4 3.6-38 11-54.5 22A89 89 0 0 1 151 63.8Zm-2.1 75.9v-.1l-.3-.8a27 27 0 0 1-.6-3.6c8.4-8 16-16.5 23.1-25.6l2.1-.3c-3 4-6.2 8-9.2 12.2l-1.6 2-2.3 1.1c-6 3.5-9.9 9.6-10.4 16.4l-.2.3-.6-1.6Zm.2-15.5a20 20 0 0 1 10-10.8 223 223 0 0 1-10 10.8Zm16.7 6.4.7-.2 1.1-.3c3-.6 6.2-.8 9.3-.4 7 .7 13.7 2.3 20.2 4.7a405.3 405.3 0 0 1-20.3 24.2l-2-.3-3.6-.7h-.3l-.8-.3-2-.6c-2.3-.7-4.5-1.7-6.7-2.7l-.3-.2-.5-.3-1.5-.9-1-.6-.6-3.6-.2-1.9V142a891 891 0 0 1 8.3-11.4h.2Zm24.9 28.5h-.6l-2 .1H186l3.2-3.7c5.1-6 10.1-12.1 14.9-18.5 4.2 1.8 8.2 3.7 12.2 5.8a536.4 536.4 0 0 0-25.6 16.3Zm-11.2 7.4h.4l-1.3 1 .9-1Zm-16.7-3.8c2.7 1 5.3 1.8 8 2.4l-3.4 3.7a80 80 0 0 1-4.6-6Zm60-25-.7-.5c-4.2-2.4-8.7-4.6-13.2-6.6l4.4-6.4a75 75 0 0 1 10.8 12.4l-1.2 1Zm-20.8-10a107 107 0 0 0-21.6-5.5c-2.7-.4-5.5-.5-8.2-.5l9.5-12.5c6.1.6 12.1 2.4 17.6 5.3 3 1.5 5.8 3.2 8.4 5.2-1.8 2.7-3.7 5.4-5.7 8ZM149.1 154l2.2 2a52 52 0 0 0 10.6 18.3 864.9 864.9 0 0 1-15.7 16l-5.4 3-.4-.2-2-1.2c-2.2-1.4-4.4-3-6.5-4.7l-1.5-1.2-.4-.4a359.9 359.9 0 0 1 19.1-31.6Zm82.5-23.6-1.6 1.3a73.9 73.9 0 0 0-12.5-14l3.6-5.9.8 1c3.7 5.3 7.3 10.6 10.7 16.1l-1 1.5Zm-19.7-17c-7.4-5.5-16-9.2-25-11l.9-1A885 885 0 0 1 198 89.2c1.8.2 3.5.4 5.3.8a266 266 0 0 1 13.3 15.8 250 250 0 0 1-4.7 7.6Zm-28.3-17.3-4.6 5.7h-2.5c2.7-4 5-8.4 7-12.8 2-.2 4.1-.2 6.2-.2l-6 7.3Zm-42.4 45.6.5-.5a30 30 0 0 0 3 7 377 377 0 0 0-19.9 31.9 59.2 59.2 0 0 1-3.3-4.4l-1-1.5-.7-1.3a64.2 64.2 0 0 1-4-8.2 604 604 0 0 0 25.4-23Zm79-42.4-5.2-6.5 2 .7 5 2.3-1.8 3.5Zm-34-18c.6-2.5 1-5 1.3-7.5 2.7 2.5 5.3 5 7.8 7.6-3-.2-6.1-.2-9.2 0Zm-54 116.7-11 5.9c1.6-3.6 3.2-7.1 5-10.6a65 65 0 0 0 6 4.7Zm45.4 5c-5-.3-10-1-14.8-2l14.8-13.3c3.8 2.4 7.7 4.5 11.9 6.3l-6.2 9.2-5.7-.2Zm.4 8.4-2.1 3.2-8.2-4.1c3.4.4 6.8.8 10.3 1Zm18.3-15a46 46 0 0 0 28 1 27 27 0 0 0 17.5-24c.5-4.7.4-9.3-.3-13.9 3.6 3 7 6.1 10.3 9.5 2.3 6.7 4.2 13.6 5.6 20.5l-6.7 2.4a234.7 234.7 0 0 1-55.4 11l-3.3.2 4.3-6.6Zm65.5-15c1.2 1.7 2.3 3.4 3.2 5.2l-1.8.8-1.4-6Zm-23.6-34.2-.4-1.1c.9-1 1.8-2.2 2.6-3.4 1.6 3.1 3.2 6.3 4.6 9.6-2.2-1.8-4.5-3.5-6.8-5.1Zm17.4-117a153 153 0 0 1 6.4-5l3-2 1.5-1 .8-.5.6-.4c3.5-2.3 7.3-4 11.2-5.3l.7-.2 1.2-.3 2.5-.3h2.6l.5.2 1.9.7.4.2.9.7.2.2.1.1.7.8.5.6c-.4-.5 0 .2 0 .3l.4.7.3.8c.7 5.5-.3 11.1-3 16-2.7 6.6-6 12.9-9.8 18.8-2.8 4.7-5.9 9.3-8.7 14a1555.2 1555.2 0 0 1-25.8 41A36.2 36.2 0 0 0 231.5 93c5.5-10.7 9.5-22 12.2-33.4a72.3 72.3 0 0 0 1.8-20.8c3.3-3 6.6-5.8 10-8.5Zm-91.2-10.8a100 100 0 0 1 27.7-10.1c8.6-2 17.5-2 26 .3a26.9 26.9 0 0 1 15 11.3 37.3 37.3 0 0 1 5.1 16c-12.8 12-25 24.8-36.5 38.1l-1.5 1.7c-4.2-4.3-8.6-8.3-13-12.3a17.6 17.6 0 0 0-10.5-13.8c-2.7-1-5.6-1.3-8.4-1a213.7 213.7 0 0 0-25.7-15.8c6.8-5.4 14.1-10.2 21.8-14.4ZM35.1 58.1c-.4-5.2.5-10.5 2.4-15.4A31 31 0 0 1 48 29.9a60.8 60.8 0 0 1 48-6.7 150 150 0 0 1 34 11.6A272.6 272.6 0 0 0 98.2 68c-13.2 16-25 33.2-35.3 51.2a209 209 0 0 1-16.3-25.7A87.2 87.2 0 0 1 35.1 58Zm14.5 104.6C53.9 152.2 58.7 142 64 132l2 2.6 6.2 7.5a503.1 503.1 0 0 0-26 29c1-2.9 2.2-5.7 3.3-8.4ZM9.2 247.5c.5.6.2.3 0 0Zm51.2-15.2A427.8 427.8 0 0 1 28 243.5c-3.6 1-6.3 2-9.4 2.8l-4.7 1-2.2.3h-1.4l-.9-.1-.2-.1v-.4c.7-4 2.1-8 4.2-11.5a223.8 223.8 0 0 1 22-37 11 11 0 0 0 3 3.6c3 2 6.5 2.7 10 2.1 4.6-.6 9.1-1.8 13.4-3.7 4.4-1.7 8.7-3.7 13-6 8.9-5 17.4-10.7 25.4-17l4-3.2.3.3c5.2 4.7 10.6 9.2 16 13.6-3.4 6.9-6.6 13.9-9.4 21a575.2 575.2 0 0 1-50.7 23Zm63.8-20.6-4 4-5.3 5 1.8-5 7.5-4Zm4.6 8.3c5.2-5 10.4-9.8 15.8-14.6l.4.3-1.5 1.4-14.7 13Zm126 9.4-.5.1-2.2.5a60.8 60.8 0 0 1-13.8 1.5 102 102 0 0 1-19.1-1.7 207.3 207.3 0 0 1-36.6-12l3.5-5.5.4-.6a232 232 0 0 0 72.4-13.8 143.8 143.8 0 0 1 1.2 29.5h-.3c-1.3.7-2.7 1.2-4.1 1.7l-.9.3Zm16.3-14.7-.1.6-.3 1-.8 1.9-.2.5-.3.6-1.3 1.8-1 1.4-1 1h-.1c.5-9.3 0-18.6-1.4-27.8l3.9-1.5c1.5 3.7 2.5 7.7 3 11.7.4 3 .3 6-.4 8.8Zm75.3-103 .2.7.2 1.2.2 1.9v1.2a24 24 0 0 1-.5 3.8l-.1.6-.3 1-.7 1.9a36 36 0 0 1-1.8 4l-.3.5-.6 1-1.2 2a101 101 0 0 1-17 18.6 289.7 289.7 0 0 1-29.5 21.7l-1.3.8-.1.1-.6.4-3.3 1.9a168.4 168.4 0 0 1-17.5 8.7c-1.4-2.6-3-5-4.5-7.4-3.4-5.1-7.4-10-11.8-14.3a205 205 0 0 0-10.1-23c5.1-3.4 10.2-7 15.3-10.6a773.2 773.2 0 0 1 40-17.5l8.8-3 2.1-.6.2-.1h.2l1-.4 4.8-1.2a79 79 0 0 1 12.9-1.8h1.2l2.2.1 3.5.5h.1l.8.3 1.8.6.8.4 1.3.8 1 .9.9 1 .7 1 .5 1 .5 1.3Z"/></svg>