<svg xmlns="http://www.w3.org/2000/svg" viewBox="0 0 356 331"><path d="M5.6 228.7c3.7 4 8.8 6.3 14.2 6.7 12.4.6 24.7-1.7 36.1-6.6l9.6-3.7-14.4 12a4.2 4.2 0 0 0 3.2 7.3c9.3-1.8 18-5.7 25.5-11.5 8.7-5.7 16.8-11 25.4-17.2l3.4-2.6c-5.3 8.3-10.6 16.6-15.7 25-4.8 7.7-9.3 15.6-14.1 23.2-3.4 5.4-6.7 10.7-9.8 16.1-3.7 6.2-6.8 12.8-9.1 19.6a24.7 24.7 0 0 0-.7 17.3 15 15 0 0 0 18.4 6.8 73 73 0 0 0 24.6-13.8c3.2-2.4 6.3-4.9 9.3-7.5 1 5.2 3 10.1 5.7 14.6a41.9 41.9 0 0 0 42.6 15.4 119.1 119.1 0 0 0 55.2-24.5 190 190 0 0 0 5.6-4.4l8.2 3.7a123.6 123.6 0 0 0 53 11.3c15.4 0 30-7.2 39.3-19.5a44.1 44.1 0 0 0 4.7-34 122.6 122.6 0 0 0-15.4-36.3c-4.1-7-8.6-13.8-13.5-20.4a295 295 0 0 0 22-49c1.4-4 2.5-8 3.2-12 3-4 5.8-8 8.7-12.1 6-8.7 11.5-17.8 16.5-27.2 2.3-4.5 4.4-9 6.3-13.7a16 16 0 0 0 1-11.2c-2.6-6.7-11.7-5.3-17.1-4-8.6 2-17.2 5-25.6 7.8a505.5 505.5 0 0 0-62.9 26.5l1.4-4.5 2.2-8.3.1-.7a362 362 0 0 0 18-21.3 4.4 4.4 0 0 0-.1-5.3 4.4 4.4 0 0 0-6.1-.6 629.6 629.6 0 0 0-54.2 44.6l-6.8 6.2c-6.2-3.8-12.7-7.3-19.3-10.6 22.7-35 45-70.2 70-103.6a4 4 0 0 0-3.8-6.3c-2.9.4-5.6 1.5-7.8 3.4a3.8 3.8 0 0 0-.3 5.7c-23 31.7-43.6 64.8-64.7 97.7-8.8-4-17.9-7.4-27.2-10.2-12.7-4-26-5.5-39.4-4.5a59 59 0 0 0-14 2.8c.3-3.4-5-3.9-5.5-.5l-.4 3c-4.7 2.3-8.5 6-11.1 10.5a37.2 37.2 0 0 0 .4 31.9l-.7.3a227.8 227.8 0 0 0-57.9 38.9 58.6 58.6 0 0 0-20.7 33c-.8 5.8.8 11.7 4.5 16.3ZM313 135.1l.5.3v.1l.5.6.1.1.3.8v.1l.4 2.2v1.6a475.7 475.7 0 0 1-36.1 42.6 334 334 0 0 0-21.4-21.5c3.2-2.5 6.4-5 9.6-7.3 7.9-5.8 16.3-10.8 25.2-15a70 70 0 0 1 12.6-4.5l3.1-.6 2-.1 2.3.2c-.8-.1 1.4.7.9.4Zm-56.3 36c5.8 5.6 11.5 11.3 17 17.3a271 271 0 0 1-21.3 19l.7-5.6c1.2-11.3 0-22.8-3.5-33.6l2.2-1.8 5 4.7Zm-46 117.4c-4.7-2.7-9.4-5.6-14-8.7l.6-.2a78.2 78.2 0 0 0 34.6-26.4 103 103 0 0 0 17.8-34.3c10.3-7.5 20-15.8 29.1-24.8a289 289 0 0 1 9.7 11.6 363.8 363.8 0 0 1-49.7 68.4c-6.2 6.7-12.9 13-19.8 18.9-2.8-1.4-5.5-3-8.2-4.5Zm-80-46.4a60.6 60.6 0 0 0 19.5 6.5l1.2 1.3a516.9 516.9 0 0 1-33.9 36.2c1.2-14.1 5.1-27.9 11.5-40.5l1.6-3.5Zm-8.5-16.7a27.7 27.7 0 0 1-5-13.6l2.2-3.4a231 231 0 0 0 11.8 17.4l-3.1 5.7a32.4 32.4 0 0 1-6-6.1Zm.6-71 .5-1.6a25 25 0 0 1 1.5-3.5v-.2l.5-.7 1-1.4 1-1.2.7-.8 2.5-2h.2l.5-.3 1.6-.8 1.5-.6 1.2-.4 3.1-.7a35 35 0 0 1 3.4-.3h1.1a46.5 46.5 0 0 1 10 1l.9.3h.3l1 .3-20.4 31c-3.7 1.8-7.2 4-10.4 6.6l-.1-.1-.5-1.6a59.8 59.8 0 0 1-2-12.7v-4.1c.1-1.6.3-3.2.6-4.7l.2-1 .1-.6Zm45.6-7.7 1 .5h.1l.2.2 1.9 1 .7.5-14.6 12.7-1.5 1.4-7 4.3-3.1.8 16.1-24.2a69 69 0 0 1 6.2 2.8Zm34.8-14h.2l-5.2 4.5 5-4.5Zm39.4 82-.2.2a146.7 146.7 0 0 1-57 25.6l-4.6.8c2.2-4.5 4.9-8.8 7.8-13 10-1.4 18.9-7.3 24-16a28 28 0 0 0 3-13.7l7.4-7c6.4-6.1 13-11.8 19.7-17.6l.2.6c.4 1.8.8 3.5 1 5.2h.1a76.7 76.7 0 0 1-1.4 35ZM205 267.5l-.6.4-1 .5-1.9 1-4.3 2.2c-2.5 1.1-5.2 2-7.9 2.4l-.8.1c-4.4-3.2-8.7-6.6-12.8-10.2l-.2-1.6c-.1-4.3.5-8.7 2-12.9l6.3-.9c19.5-3.6 38-11 54.6-21.9a100 100 0 0 1-8.8 16.3 89 89 0 0 1-24.6 24.6Zm2-75.8h.1l.2.9.6 3.6c-8.3 8-16 16.5-23 25.6l-2.1.3 9.2-12.2 1.6-2.1 2.3-1a21 21 0 0 0 10.4-16.5l.2-.3v.1l.6 1.6Zm0 15.3a20 20 0 0 1-10 10.8 223 223 0 0 1 10-10.8Zm-16.6-6.5-.7.3-1.1.2c-3.1.7-6.3.8-9.4.5a79.5 79.5 0 0 1-20-4.7c6.3-8.4 13.1-16.4 20.2-24.2l2 .3 3.6.7h.2l.9.3 2 .6a38 38 0 0 1 6.6 2.7l.4.2.5.3 1.4.8 1 .7.7 3.5.2 2v1.3l-.1 3.1a891 891 0 0 1-8.3 11.5h-.1Zm-24.9-28.4h.6l2-.1h2.1l-3.2 3.6c-5.1 6-10.1 12.2-15 18.5a120 120 0 0 1-12-5.8c8.6-5.1 17.1-10.5 25.5-16.2Zm11.2-7.4h-.5l1.4-1-1 1Zm16.6 3.8c-2.6-1-5.2-1.8-8-2.4l3.5-3.7c1.6 1.9 3.2 4 4.5 6Zm-60 25 .7.4c4.3 2.5 8.8 4.7 13.3 6.7a358 358 0 0 0-4.4 6.4 64.3 64.3 0 0 1-10.8-12.5l1.2-1Zm20.9 9.9c7 2.6 14.2 4.5 21.6 5.5 2.7.4 5.4.6 8.2.5l-9.5 12.5a46.3 46.3 0 0 1-17.6-5.3c-3-1.4-5.8-3.2-8.5-5.1l5.8-8.1Zm52.8-26.3-2.1-2c-2.3-6.8-5.9-13-10.6-18.3a868 868 0 0 1 15.7-16l5.4-3 .4.2 1.9 1.2c2.3 1.4 4.5 3 6.5 4.6l1.5 1.3.4.3a359.9 359.9 0 0 1-19 31.7Zm-82.5 23.6 1.7-1.3a74 74 0 0 0 12.5 14l-3.7 5.8-.7-1c-3.8-5.2-7.3-10.6-10.7-16l1-1.5Zm19.8 17a61 61 0 0 0 25 10.9l-.9 1a885 885 0 0 1-10.2 12.3l-5.3-.7a266 266 0 0 1-13.3-15.9l4.7-7.6Zm28.3 17.3 4.5-5.7h2.5c-2.6 4-5 8.3-6.9 12.8l-6.3.2 6.2-7.3Zm42.4-45.7-.5.5a30 30 0 0 0-3-6.9c7.1-10.3 13.9-21 19.9-32l3.3 4.5 1 1.5.7 1.3a63.9 63.9 0 0 1 4 8.2 603.2 603.2 0 0 0-25.4 23ZM136 232l5.2 6.5-2-.8c-1.7-.6-3.4-1.4-5-2.3l1.7-3.4Zm34 18c-.6 2.4-1 5-1.3 7.5-2.7-2.5-5.3-5-7.8-7.6 3 .2 6 .2 9.1 0Zm54-116.7 10.9-5.9a233 233 0 0 1-4.8 10.5 71 71 0 0 0-6.2-4.6Zm-45.4-5c5 .3 10 1 14.8 1.9l-14.8 13.3a80.6 80.6 0 0 0-11.9-6.2l6.1-9.2c2 0 3.9 0 5.8.2Zm-.4-8.5 2-3.2c2.9 1.4 5.6 2.7 8.3 4.2-3.4-.5-6.8-.8-10.3-1Zm-18.3 15a46 46 0 0 0-28-.9 27 27 0 0 0-17.5 24 54 54 0 0 0 .3 13.9c-3.6-3-7-6.2-10.3-9.5-2.3-6.8-4.2-13.6-5.7-20.5l6.8-2.4a234.9 234.9 0 0 1 55.3-11.1l3.4-.2-4.3 6.7Zm-65.6 15a66.4 66.4 0 0 1-3.2-5.2l2-.7 1.2 6ZM118 184l.4 1-2.6 3.5a203 203 0 0 1-4.7-9.6c2.3 1.8 4.5 3.5 6.9 5Zm-17.4 117c-2 1.7-4.2 3.3-6.4 5l-3 2-1.5 1-.8.5-.7.4c-3.5 2.2-7.2 4-11.1 5.3H77l-.6.2-1.2.3-2.5.3H71l-1.1-.1-.5-.1h-.1l-1.8-.7-.4-.3-1-.7-.1-.1-.1-.2-.8-.8-.4-.5c.4.5 0-.2-.1-.3l-.3-.8-.3-.7c-.7-5.5.3-11.2 2.9-16.1 2.8-6.5 6-12.8 9.8-18.8 2.9-4.7 6-9.2 8.8-13.9a1554.4 1554.4 0 0 1 25.8-41 36.2 36.2 0 0 0 13.1 17.5 154.4 154.4 0 0 0-12.1 33.3 72.3 72.3 0 0 0-1.9 20.8c-3.2 3-6.6 5.7-10 8.5Zm91.1 10.7A100 100 0 0 1 164 322c-8.6 2-17.6 1.9-26-.4a26.9 26.9 0 0 1-15-11.3 37.4 37.4 0 0 1-5.2-16 494 494 0 0 0 36.6-38l1.5-1.7a298 298 0 0 0 13 12.2c.9 6.1 4.8 11.4 10.5 13.8 2.7 1 5.5 1.4 8.4 1.1a206 206 0 0 0 25.7 15.8 152.7 152.7 0 0 1-21.9 14.3ZM321 273.1a31 31 0 0 1-13 28.3 60.8 60.8 0 0 1-47.9 6.7 148.4 148.4 0 0 1-34.1-11.6 272.6 272.6 0 0 0 32-33.3 369 369 0 0 0 35.3-51.1 209 209 0 0 1 16.2 25.7A87.2 87.2 0 0 1 321 273Zm-14.5-104.5a335 335 0 0 1-14.5 30.7l-2-2.6c-2-2.6-4.1-5-6.3-7.5l7.8-8.2c6.3-6.7 12.3-13.6 18.2-20.7-1 2.7-2 5.5-3.2 8.3Zm40.4-84.8c-.5-.6-.2-.3 0 0ZM295.7 99c10.6-4.2 21.4-8 32.4-11.2 3.5-1 6.3-2 9.4-2.8 1.6-.4 3.1-.8 4.7-1l2.1-.3h1.5l.9.1.2.1v.3c-.7 4.1-2.2 8-4.3 11.6a223.8 223.8 0 0 1-21.8 37 11 11 0 0 0-3-3.6c-3-2-6.7-2.7-10.2-2.1-4.6.6-9 1.8-13.3 3.6a128 128 0 0 0-13 6.1c-8.9 5-17.4 10.7-25.5 17l-4 3.1-.2-.2c-5.2-4.7-10.6-9.2-16.1-13.6a261 261 0 0 0 9.5-21A575.3 575.3 0 0 1 295.7 99ZM232 119.6l4-4 5.3-5.1-1.8 5.1-7.5 4Zm-4.7-8.4c-5 5-10.3 9.9-15.7 14.6l-.4-.2 1.5-1.4 14.6-13Zm-126-9.3c-.4.2.5-.1.6-.1l2.1-.6a60.8 60.8 0 0 1 13.8-1.5c6.5 0 12.9.6 19.2 1.7a207.3 207.3 0 0 1 36.6 12L170 119l-.3.5a232 232 0 0 0-72.4 13.8A144 144 0 0 1 96 104l.2-.1c1.4-.6 2.8-1.2 4.2-1.6l.9-.3ZM85 116.6l.2-.7.3-1 .7-1.8.3-.6.3-.5 1.2-1.9 1.1-1.3 1-1h.1a138 138 0 0 0 1.3 27.7l-3.8 1.6a51.3 51.3 0 0 1-3-11.7c-.4-3-.3-6 .3-8.8Zm-75.3 103-.1-.7-.3-1.2-.2-2v-1.1l.5-3.8.2-.6.3-1 .7-2a36 36 0 0 1 1.7-3.8l.4-.7.6-1 1.2-1.8a101 101 0 0 1 17-18.6 212 212 0 0 1 16.1-12.6 484 484 0 0 1 13.4-9.2l1.2-.8.2-.1.6-.4 3.3-2a168.5 168.5 0 0 1 17.5-8.6 95.8 95.8 0 0 0 16.3 21.7 205 205 0 0 0 10.1 23L95 202.7a776 776 0 0 1-40 17.5c-3 1.1-5.8 2.1-8.8 3l-2.1.7h-.3l-.1.1-1.1.3-4.7 1.2a79 79 0 0 1-13 1.9h-1.2l-2.1-.1a27 27 0 0 1-3.6-.6l-.9-.2-1.8-.7-.7-.3-1.3-.9-1-.8-.9-1-.7-1-.6-1.1-.5-1.3Z"/></svg>