<svg height="1290" viewBox="0 0 4344 1290" width="4344" xmlns="http://www.w3.org/2000/svg"><g fill="#1364da"><path d="m3515.321289 1181.339844h828.558106v108.660156h-828.558106z"/><path d="m498.938599.546143-353.130494 1140.012329h-145.31372l353.130493-1140.012329z"/><path d="m627.65918 1140.553467h-128.410279v-1140.011719h128.410279z"/><path d="m1255.503906 1140.553467h-128.410156v-1140.000122h128.410156z"/><path d="m1127.095947.546143-353.130493 1140.012329h-145.313721l353.130494-1140.012329z"/></g><path d="m2336.009277 901.518127h-212.205078v-68.674743h47.385498v-194.915161c0-45.783081-8.756103-78.268921-26.268066-97.45752-17.511963-19.188537-41.033203-28.782837-70.563233-28.782837-39.831543 0-69.533447 14.138977-89.105712 42.41687-19.572266 28.277832-29.701783 56.892334-30.388672 85.843384v192.895264h74.168945v68.674743h-212.205078v-68.674743h47.385498v-194.915161c0-46.45636-8.755982-79.110474-26.268066-97.962403-17.512085-18.851928-40.68982-28.277954-69.533204-28.277954-39.144653 0-68.674926 13.802307-88.590576 41.406861-19.915649 27.604614-30.216919 55.882446-30.903564 84.833496v194.915161h85.500244v68.674743h-250.319824v-68.674743h74.168945v-313.07605h-75.198975v-69.684692h165.84961v79.783935c14.421753-26.258056 33.994018-47.634765 58.717041-64.130127 24.722778-16.495422 54.939697-24.743164 90.650635-24.743164 35.024047 0 65.927734 8.584351 92.710937 25.753052s45.325439 43.595032 55.626709 79.278931c13.734863-30.970948 33.993897-56.218995 60.7771-75.744141 26.783203-19.525208 59.403808-29.287842 97.861572-29.287842 43.265137 0 80.006103 13.465698 110.2229 40.396973 30.217041 26.931274 45.32544 69.011352 45.32544 126.240356v225.212769h75.198974zm361.57251-262.579895v54.535828c-1.373535 33.664063-14.593262 66.318237-39.659668 97.962524-25.066406 31.644227-57.171631 47.46637-96.316162 47.46637-36.397786 0-66.958089-13.465637-91.680908-40.396912-24.722901-26.931274-37.084473-65.981628-37.084473-117.151062 0-47.129699 11.50293-86.853332 34.509033-119.170898 23.006104-32.317505 56.82837-48.476318 101.467041-48.476318 35.023926 0 64.897461 11.4458 89.620606 34.337402 24.7229 22.891602 37.770996 53.189331 39.144531 90.893066zm0 262.579895h162.909912l243.988281.000061v-68.674804h-74.168945v-196.934937c1.373535-32.990722 13.391602-61.941772 36.054199-86.853271 22.662598-24.911438 53.223145-37.367188 91.681153-37.367188 29.530273 0 53.2229 9.594239 71.078125 28.782715 17.855468 19.188639 26.783203 51.674479 26.783203 97.45752v194.915161h-74.168457v68.674804h238.988281v-68.674804h-74.168945v-225.212769c0-57.229004-15.451905-99.309082-46.355469-126.240234-30.903809-26.931275-68.674805-40.396973-113.313477-40.396973-72.108398 0-124.301269 28.614502-156.578613 85.843506v-76.75415h-167.909668v69.68457h77.259278v313.07605h-78.289307-.879639-73.289062v-626.152222h-195.723145v69.684692h106.102295v245.411255c-30.903483-53.862548-81.722819-80.793823-152.458008-80.793823-72.795166 0-125.503174 25.416443-158.123535 76.249268-32.620361 50.832763-48.930664 107.220154-48.930664 169.162048 0 70.021301 17.855469 125.062073 53.566162 165.122376 35.710938 40.060262 83.439942 60.090393 143.187012 60.090393 42.578125 0 76.743896-9.762635 102.49707-29.287781 25.75293-19.525147 45.840332-42.753357 60.261963-69.684632z"/></svg>