<svg enable-background="new 0 0 983.6 235.2" viewBox="0 0 983.6 235.2" xmlns="http://www.w3.org/2000/svg"><path d="m54.6 88.2 18.7 92h6.7l18.7-92h54.6v144.9h-29.8v-119.5h-6.7l-26 119.5h-28.2l-26-119.5h-6.7v119.5h-29.9v-144.9zm171.1 30.7c34.4 0 54.4 20.6 54.4 58.2s-19.9 58.2-54.4 58.2-54.4-20.6-54.4-58.2c.1-37.7 20-58.2 54.4-58.2zm0 93.2c15.5 0 22.9-8.4 22.9-26.9v-16.4c0-18.5-7.3-26.9-22.9-26.9s-22.9 8.4-22.9 26.9v16.4c.1 18.5 7.4 26.9 22.9 26.9zm66.6-.6 56.9-68.9h-56.1v-21.6h91.6v21.6l-56.9 68.9h57.7v21.6h-93.2zm108.8-90.5h42v112.1h-29.8v-90.5h-12.2zm12.2-32.8h29.8v21.6h-29.8zm49.5 0h42v144.9h-29.8v-123.3h-12.2zm61.8 0h42v144.9h-29.8v-123.3h-12.2zm106 30.7c16.6 0 27.5 8.2 30.7 22.5h6.7v-20.4h35.5v21.6h-12.2v68.9h12.2v21.6h-17c-12 0-18.5-6.5-18.5-18.5v-1.9h-6.7c-3.2 14.3-14.1 22.5-30.7 22.5-26.2 0-44.7-22.3-44.7-58.2s18.5-58.1 44.7-58.1zm8.8 93.2c15.1 0 22-8.4 22-26.9v-16.4c0-18.5-6.9-26.9-22-26.9s-22 8.4-22 26.9v16.4c0 18.5 6.9 26.9 22 26.9z"/><path d="m814.4 233.1h-29.8v-233.1h29.8zm24.3-114.2h118v-6.7l-76.9-27.9v-23.6l76.9-27.9v-6.8h-91.1v-26h118v47.5l-62.6 21.6v6.7l62.6 21.6v47.5h-144.9zm0-92.9h26.9v26.9h-26.9z"/></svg>