<svg xmlns="http://www.w3.org/2000/svg" viewBox="0 0 72 24">
    <path d="M19.43 12.98a7.8 7.8 0 0 0 0-1.96l2.11-1.65a.5.5 0 0 0 .12-.64l-2-3.46a.5.5 0 0 0-.61-.22l-2.49 1a7.3 7.3 0 0 0-1.69-.98l-.38-2.65A.49.49 0 0 0 14 2h-4a.49.49 0 0 0-.49.42l-.38 2.65c-.61.25-1.17.59-1.69.98l-2.49-1a.57.57 0 0 0-.18-.03.5.5 0 0 0-.43.25l-2 3.46a.5.5 0 0 0 .12.64l2.11 1.65a7.93 7.93 0 0 0 0 1.96l-2.11 1.65a.5.5 0 0 0-.12.64l2 3.46a.5.5 0 0 0 .61.22l2.49-1c.52.4 1.08.73 1.69.98l.38 2.65c.03.24.24.42.49.42h4c.25 0 .46-.18.49-.42l.38-2.65a7.68 7.68 0 0 0 1.69-.98l2.49 1 .18.03a.5.5 0 0 0 .43-.25l2-3.46a.5.5 0 0 0-.12-.64l-2.11-1.65Zm-1.98-1.71a5.34 5.34 0 0 1 0 1.46l-.14 1.13.89.7 1.08.84-.7 1.21-1.27-.51-1.04-.42-.9.68c-.43.32-.84.56-1.25.73l-1.06.43-.16 1.13-.2 1.35h-1.4l-.19-1.35-.16-1.13-1.06-.43a5.67 5.67 0 0 1-1.23-.71l-.91-.7-1.06.43-1.27.51-.7-1.21 1.08-.84.89-.7-.14-1.13A8.04 8.04 0 0 1 6.5 12c0-.2.02-.43.05-.73l.14-1.13-.89-.7-1.08-.84.7-1.21 1.27.51 1.04.42.9-.68c.43-.32.84-.56 1.25-.73l1.06-.43.16-1.13.2-1.35h1.39l.19 1.35.16 1.13 1.06.43c.43.18.83.41 1.23.71l.91.7 1.06-.43 1.27-.51.7 1.21-1.07.85-.89.7.14 1.13ZM12 8a4 4 0 1 0 0 8 4 4 0 0 0 0-8Zm0 6a2 2 0 0 1-2-2c0-1.1.9-2 2-2a2 2 0 0 1 2 2 2 2 0 0 1-2 2Z"/>

    <path d="M40.5 3c-1.74 0-3.41.81-4.5 2.09A5.99 5.99 0 0 0 31.5 3 5.45 5.45 0 0 0 26 8.5c0 3.78 3.4 6.86 8.55 11.54L36 21.35l1.45-1.32C42.6 15.36 46 12.28 46 8.5 46 5.42 43.58 3 40.5 3Zm-4.4 15.55-.1.1-.1-.1C31.14 14.24 28 11.39 28 8.5c0-2 1.5-3.5 3.5-3.5a3.9 3.9 0 0 1 3.57 2.36h1.87A3.88 3.88 0 0 1 40.5 5c2 0 3.5 1.5 3.5 3.5 0 2.89-3.14 5.74-7.9 10.05Z"/>

    <path d="M60 2a10 10 0 1 0 0 20 10 10 0 0 0 0-20Zm-4.93 16.28c.43-.9 3.05-1.78 4.93-1.78s4.51.88 4.93 1.78a7.9 7.9 0 0 1-9.86 0Zm11.29-1.45c-1.43-1.74-4.9-2.33-6.36-2.33s-4.93.59-6.36 2.33A8.01 8.01 0 1 1 68 12c0 1.82-.62 3.49-1.64 4.83ZM60 6a3.5 3.5 0 0 0-3.5 3.5A3.5 3.5 0 0 0 60 13a3.5 3.5 0 0 0 3.5-3.5A3.5 3.5 0 0 0 60 6Zm0 5a1.5 1.5 0 1 1 0-3 1.5 1.5 0 0 1 0 3Z"/>
</svg>
