<svg xmlns="http://www.w3.org/2000/svg" viewBox="0 0 48 24">
	<path fill="#0c0b1d" d="M19.43 12.98a7.8 7.8 0 0 0 0-1.96l2.11-1.65a.5.5 0 0 0 .12-.64l-2-3.46a.5.5 0 0 0-.61-.22l-2.49 1a7.3 7.3 0 0 0-1.69-.98l-.38-2.65A.49.49 0 0 0 14 2h-4a.49.49 0 0 0-.49.42l-.38 2.65c-.61.25-1.17.59-1.69.98l-2.49-1a.5.5 0 0 0-.61.22l-2 3.46a.5.5 0 0 0 .12.64l2.11 1.65c-.08.65-.08 1.3 0 1.96l-2.11 1.65a.5.5 0 0 0-.12.64l2 3.46a.5.5 0 0 0 .61.22l2.49-1c.52.4 1.08.73 1.69.98l.38 2.65c.03.24.24.42.49.42h4c.25 0 .46-.18.49-.42l.38-2.65c.6-.25 1.17-.58 1.69-.98l2.49 1 .18.03a.5.5 0 0 0 .43-.25l2-3.46a.5.5 0 0 0-.12-.64l-2.11-1.65Zm-1.98-1.71c.07.48.07.98 0 1.46l-.14 1.13.89.7 1.08.84-.7 1.21-1.27-.51-1.04-.42-.9.68c-.43.32-.84.56-1.25.73l-1.06.43-.16 1.13-.2 1.35h-1.4l-.19-1.35-.16-1.13-1.06-.43a5.67 5.67 0 0 1-1.23-.71l-.91-.7-1.06.43-1.27.51-.7-1.21 1.08-.84.89-.7-.14-1.13c-.03-.25-.04-.5-.05-.74 0-.2.02-.43.05-.73l.14-1.13-.89-.7-1.08-.84.7-1.21 1.27.51 1.04.42.9-.68c.43-.32.84-.56 1.25-.73l1.06-.43.16-1.13.2-1.35h1.39l.19 1.35.16 1.13 1.06.43c.43.18.83.41 1.23.71l.91.7 1.06-.43 1.27-.51.7 1.21-1.07.85-.89.7.14 1.13ZM12 8a4 4 0 1 0 0 8 4 4 0 0 0 0-8Zm0 6a2 2 0 1 1 0-4 2 2 0 0 1 0 4Z"/>
	<path fill="#9874d3" d="M43.43 12.98a7.8 7.8 0 0 0 0-1.96l2.11-1.65a.5.5 0 0 0 .12-.64l-2-3.46a.5.5 0 0 0-.61-.22l-2.49 1a7.3 7.3 0 0 0-1.69-.98l-.38-2.65A.49.49 0 0 0 38 2h-4a.49.49 0 0 0-.49.42l-.38 2.65c-.61.25-1.17.59-1.69.98l-2.49-1a.5.5 0 0 0-.61.22l-2 3.46a.5.5 0 0 0 .12.64l2.11 1.65c-.08.65-.08 1.3 0 1.96l-2.11 1.65a.5.5 0 0 0-.12.64l2 3.46a.5.5 0 0 0 .61.22l2.49-1c.52.4 1.08.73 1.69.98l.38 2.65c.03.24.24.42.49.42h4c.25 0 .46-.18.49-.42l.38-2.65c.6-.25 1.17-.58 1.69-.98l2.49 1 .18.03a.5.5 0 0 0 .43-.25l2-3.46a.5.5 0 0 0-.12-.64l-2.11-1.65Zm-1.98-1.71c.07.48.07.98 0 1.46l-.14 1.13.89.7 1.08.84-.7 1.21-1.27-.51-1.04-.42-.9.68c-.43.32-.84.56-1.25.73l-1.06.43-.16 1.13-.2 1.35h-1.4l-.19-1.35-.16-1.13-1.06-.43a5.67 5.67 0 0 1-1.23-.71l-.91-.7-1.06.43-1.27.51-.7-1.21 1.08-.84.89-.7-.14-1.13c-.03-.25-.04-.5-.05-.74 0-.2.02-.43.05-.73l.14-1.13-.89-.7-1.08-.84.7-1.21 1.27.51 1.04.42.9-.68c.43-.32.84-.56 1.25-.73l1.06-.43.16-1.13.2-1.35h1.39l.19 1.35.16 1.13 1.06.43c.43.18.83.41 1.23.71l.91.7 1.06-.43 1.27-.51.7 1.21-1.07.85-.89.7.14 1.13ZM36 8a4 4 0 1 0 0 8 4 4 0 0 0 0-8Zm0 6a2 2 0 1 1 0-4 2 2 0 0 1 0 4Z"/>
</svg>
